Georama-Xp-XLt.ufo
<glyph name="numbersign" format="2">
	<advance width="1034"/>
	<unicode hex="0023"/>
	<outline>
		<contour>
			<point x="179" y="475" type="line"/>
			<point x="373" y="475" type="line"/>
			<point x="299" y="208" type="line"/>
			<point x="116" y="208" type="line"/>
			<point x="116" y="190" type="line"/>
			<point x="293" y="190" type="line"/>
			<point x="241" y="0" type="line"/>
			<point x="261" y="0" type="line"/>
			<point x="313" y="190" type="line"/>
			<point x="639" y="190" type="line"/>
			<point x="587" y="0" type="line"/>
			<point x="607" y="0" type="line"/>
			<point x="659" y="190" type="line"/>
			<point x="855" y="190" type="line"/>
			<point x="855" y="208" type="line"/>
			<point x="665" y="208" type="line"/>
			<point x="739" y="475" type="line"/>
			<point x="918" y="475" type="line"/>
			<point x="918" y="493" type="line"/>
			<point x="744" y="493" type="line"/>
			<point x="802" y="700" type="line"/>
			<point x="782" y="700" type="line"/>
			<point x="724" y="493" type="line"/>
			<point x="398" y="493" type="line"/>
			<point x="456" y="700" type="line"/>
			<point x="436" y="700" type="line"/>
			<point x="378" y="493" type="line"/>
			<point x="179" y="493" type="line"/>
		</contour>
		<contour>
			<point x="393" y="475" type="line"/>
			<point x="719" y="475" type="line"/>
			<point x="645" y="208" type="line"/>
			<point x="319" y="208" type="line"/>
		</contour>
	</outline>
</glyph>
<glyph name="dollar" format="2">
	<advance width="1034"/>
	<unicode hex="0024"/>
	<outline>
		<contour>
			<point x="538" y="-10" type="curve" smooth="yes"/>
			<point x="809" y="-10"/>
			<point x="927" y="47"/>
			<point x="927" y="179" type="curve" smooth="yes"/>
			<point x="927" y="288"/>
			<point x="835" y="332"/>
			<point x="553" y="359" type="curve" smooth="yes"/>
			<point x="287" y="385"/>
			<point x="188" y="430"/>
			<point x="188" y="526" type="curve" smooth="yes"/>
			<point x="188" y="631"/>
			<point x="317" y="690"/>
			<point x="548" y="690" type="curve" smooth="yes"/>
			<point x="638" y="690"/>
			<point x="777" y="669"/>
			<point x="878" y="641" type="curve"/>
			<point x="884" y="661" type="line"/>
			<point x="786" y="690"/>
			<point x="644" y="710"/>
			<point x="538" y="710" type="curve" smooth="yes"/>
			<point x="296" y="708"/>
			<point x="167" y="644"/>
			<point x="167" y="526" type="curve" smooth="yes"/>
			<point x="167" y="415"/>
			<point x="268" y="366"/>
			<point x="551" y="339" type="curve" smooth="yes"/>
			<point x="816" y="313"/>
			<point x="907" y="272"/>
			<point x="907" y="179" type="curve" smooth="yes"/>
			<point x="907" y="61"/>
			<point x="795" y="10"/>
			<point x="536" y="10" type="curve" smooth="yes"/>
			<point x="421" y="10"/>
			<point x="235" y="40"/>
			<point x="113" y="78" type="curve"/>
			<point x="107" y="58" type="line"/>
			<point x="231" y="19"/>
			<point x="418" y="-10"/>
		</contour>
		<contour>
			<point x="530" y="-105" type="line"/>
			<point x="550" y="-105" type="line"/>
			<point x="550" y="-5" type="line"/>
			<point x="530" y="-5" type="line"/>
		</contour>
		<contour>
			<point x="530" y="705" type="line"/>
			<point x="550" y="705" type="line"/>
			<point x="550" y="805" type="line"/>
			<point x="530" y="805" type="line"/>
		</contour>
	</outline>
</glyph>
<glyph name="ampersand" format="2">
	<advance width="1003"/>
	<unicode hex="0026"/>
	<outline>
		<contour>
			<point x="996" y="-9" type="line"/>
			<point x="1006" y="9" type="line"/>
			<point x="297" y="405" type="line" smooth="yes"/>
			<point x="228" y="443"/>
			<point x="190" y="492"/>
			<point x="190" y="547" type="curve" smooth="yes"/>
			<point x="190" y="634"/>
			<point x="279" y="690"/>
			<point x="469" y="690" type="curve" smooth="yes"/>
			<point x="640" y="690"/>
			<point x="731" y="640"/>
			<point x="731" y="547" type="curve" smooth="yes"/>
			<point x="731" y="474"/>
			<point x="689" y="432"/>
			<point x="585" y="416" type="curve"/>
			<point x="589" y="397" type="line"/>
			<point x="701" y="417"/>
			<point x="751" y="465"/>
			<point x="751" y="549" type="curve" smooth="yes"/>
			<point x="751" y="655"/>
			<point x="653" y="710"/>
			<point x="469" y="710" type="curve" smooth="yes"/>
			<point x="266" y="710"/>
			<point x="170" y="647"/>
			<point x="170" y="547" type="curve" smooth="yes"/>
			<point x="170" y="486"/>
			<point x="209" y="431"/>
			<point x="276" y="393" type="curve" smooth="yes"/>
		</contour>
		<contour>
			<point x="442" y="-10" type="curve" smooth="yes"/>
			<point x="595" y="-10"/>
			<point x="724" y="33"/>
			<point x="806" y="102" type="curve"/>
			<point x="789" y="111" type="line"/>
			<point x="709" y="49"/>
			<point x="586" y="10"/>
			<point x="442" y="10" type="curve" smooth="yes"/>
			<point x="218" y="10"/>
			<point x="89" y="77"/>
			<point x="89" y="198" type="curve" smooth="yes"/>
			<point x="89" y="290"/>
			<point x="161" y="354"/>
			<point x="299" y="387" type="curve"/>
			<point x="279" y="398" type="line"/>
			<point x="140" y="364"/>
			<point x="69" y="297"/>
			<point x="69" y="198" type="curve" smooth="yes"/>
			<point x="69" y="64"/>
			<point x="205" y="-10"/>
		</contour>
		<contour>
			<point x="816" y="109" type="line"/>
			<point x="877" y="166"/>
			<point x="908" y="236"/>
			<point x="908" y="319" type="curve" smooth="yes"/>
			<point x="908" y="341"/>
			<point x="904" y="360"/>
			<point x="896" y="382" type="curve"/>
			<point x="877" y="375" type="line"/>
			<point x="885" y="353"/>
			<point x="888" y="336"/>
			<point x="888" y="319" type="curve" smooth="yes"/>
			<point x="888" y="240"/>
			<point x="857" y="172"/>
			<point x="799" y="119" type="curve"/>
		</contour>
	</outline>
</glyph>
<glyph name="asterisk" format="2">
	<advance width="466"/>
	<unicode hex="002A"/>
	<outline>
		<contour>
			<point x="103" y="311" type="line"/>
			<point x="234" y="487" type="line"/>
			<point x="361" y="310" type="line"/>
			<point x="374" y="319" type="line"/>
			<point x="248" y="499" type="line"/>
			<point x="453" y="563" type="line"/>
			<point x="448" y="578" type="line"/>
			<point x="244" y="516" type="line"/>
			<point x="244" y="730" type="line"/>
			<point x="224" y="730" type="line"/>
			<point x="224" y="516" type="line"/>
			<point x="18" y="578" type="line"/>
			<point x="13" y="563" type="line"/>
			<point x="220" y="499" type="line"/>
			<point x="89" y="321" type="line"/>
		</contour>
	</outline>
</glyph>
<glyph name="plus" format="2">
	<advance width="560"/>
	<unicode hex="002B"/>
	<outline>
		<contour>
			<point x="270" y="72" type="line"/>
			<point x="290" y="72" type="line"/>
			<point x="290" y="279" type="line"/>
			<point x="497" y="279" type="line"/>
			<point x="497" y="299" type="line"/>
			<point x="290" y="299" type="line"/>
			<point x="290" y="506" type="line"/>
			<point x="270" y="506" type="line"/>
			<point x="270" y="299" type="line"/>
			<point x="63" y="299" type="line"/>
			<point x="63" y="279" type="line"/>
			<point x="270" y="279" type="line"/>
		</contour>
	</outline>
</glyph>
<glyph name="period" format="2">
	<advance width="221"/>
	<unicode hex="002E"/>
	<outline>
		<contour>
			<point x="94" y="17" type="curve" smooth="yes"/>
			<point x="94" y="1"/>
			<point x="96" y="0"/>
			<point x="111" y="0" type="curve" smooth="yes"/>
			<point x="127" y="0"/>
			<point x="128" y="1"/>
			<point x="128" y="17" type="curve" smooth="yes"/>
			<point x="128" y="33"/>
			<point x="127" y="34"/>
			<point x="111" y="34" type="curve" smooth="yes"/>
			<point x="95" y="34"/>
			<point x="94" y="33"/>
		</contour>
	</outline>
</glyph>
<glyph name="slash" format="2">
	<advance width="442"/>
	<unicode hex="002F"/>
	<outline>
		<contour>
			<point x="10" y="-210" type="line"/>
			<point x="32" y="-210" type="line"/>
			<point x="432" y="740" type="line"/>
			<point x="410" y="740" type="line"/>
		</contour>
	</outline>
</glyph>
<glyph name="one" format="2">
	<advance width="1034"/>
	<unicode hex="0031"/>
	<outline>
		<contour>
			<point x="91" y="0" type="line"/>
			<point x="1000" y="0" type="line"/>
			<point x="1000" y="20" type="line"/>
			<point x="602" y="20" type="line"/>
			<point x="602" y="710" type="line"/>
			<point x="590" y="710" type="line"/>
			<point x="85" y="499" type="line"/>
			<point x="93" y="481" type="line"/>
			<point x="582" y="685" type="line"/>
			<point x="582" y="20" type="line"/>
			<point x="91" y="20" type="line"/>
		</contour>
	</outline>
</glyph>
<glyph name="four" format="2">
	<advance width="1034"/>
	<unicode hex="0034"/>
	<outline>
		<contour>
			<point x="49" y="212" type="line"/>
			<point x="749" y="212" type="line"/>
			<point x="749" y="0" type="line"/>
			<point x="769" y="0" type="line"/>
			<point x="769" y="212" type="line"/>
			<point x="1000" y="212" type="line"/>
			<point x="1000" y="232" type="line"/>
			<point x="769" y="232" type="line"/>
			<point x="769" y="700" type="line"/>
			<point x="755" y="710" type="line"/>
			<point x="45" y="229" type="line"/>
		</contour>
		<contour>
			<point x="84" y="232" type="line"/>
			<point x="749" y="681" type="line"/>
			<point x="749" y="232" type="line"/>
		</contour>
	</outline>
</glyph>
<glyph name="eight" format="2">
	<advance width="1034"/>
	<unicode hex="0038"/>
	<outline>
		<contour>
			<point x="717" y="361" type="curve"/>
			<point x="747" y="356" type="line"/>
			<point x="885" y="402"/>
			<point x="940" y="463"/>
			<point x="940" y="540" type="curve" smooth="yes"/>
			<point x="940" y="651"/>
			<point x="802" y="710"/>
			<point x="524" y="710" type="curve" smooth="yes"/>
			<point x="246" y="710"/>
			<point x="88" y="651"/>
			<point x="88" y="537" type="curve" smooth="yes"/>
			<point x="88" y="236"/>
			<point x="977" y="504"/>
			<point x="977" y="203" type="curve" smooth="yes"/>
			<point x="977" y="74"/>
			<point x="807" y="10"/>
			<point x="506" y="10" type="curve" smooth="yes"/>
			<point x="214" y="10"/>
			<point x="57" y="79"/>
			<point x="57" y="199" type="curve" smooth="yes"/>
			<point x="57" y="287"/>
			<point x="142" y="358"/>
			<point x="306" y="400" type="curve"/>
			<point x="269" y="406" type="line"/>
			<point x="112" y="361"/>
			<point x="37" y="291"/>
			<point x="37" y="196" type="curve" smooth="yes"/>
			<point x="37" y="64"/>
			<point x="199" y="-10"/>
			<point x="506" y="-10" type="curve" smooth="yes"/>
			<point x="819" y="-10"/>
			<point x="997" y="62"/>
			<point x="997" y="203" type="curve" smooth="yes"/>
			<point x="997" y="532"/>
			<point x="108" y="260"/>
			<point x="108" y="540" type="curve" smooth="yes"/>
			<point x="108" y="638"/>
			<point x="258" y="690"/>
			<point x="524" y="690" type="curve" smooth="yes"/>
			<point x="790" y="690"/>
			<point x="920" y="638"/>
			<point x="920" y="540" type="curve" smooth="yes"/>
			<point x="920" y="469"/>
			<point x="872" y="417"/>
		</contour>
	</outline>
</glyph>
<glyph name="nine" format="2">
	<advance width="1034"/>
	<unicode hex="0039"/>
	<outline>
		<contour>
			<point x="471" y="-10" type="curve" smooth="yes"/>
			<point x="790" y="-10"/>
			<point x="969" y="117"/>
			<point x="969" y="350" type="curve" smooth="yes"/>
			<point x="969" y="589"/>
			<point x="813" y="710"/>
			<point x="514" y="710" type="curve" smooth="yes"/>
			<point x="229" y="710"/>
			<point x="50" y="629"/>
			<point x="50" y="476" type="curve" smooth="yes"/>
			<point x="50" y="337"/>
			<point x="204" y="260"/>
			<point x="440" y="260" type="curve" smooth="yes"/>
			<point x="631" y="260"/>
			<point x="841" y="306"/>
			<point x="952" y="369" type="curve"/>
			<point x="951" y="391" type="line"/>
			<point x="850" y="327"/>
			<point x="639" y="280"/>
			<point x="440" y="280" type="curve" smooth="yes"/>
			<point x="226" y="280"/>
			<point x="70" y="349"/>
			<point x="70" y="476" type="curve" smooth="yes"/>
			<point x="70" y="617"/>
			<point x="240" y="690"/>
			<point x="514" y="690" type="curve" smooth="yes"/>
			<point x="799" y="690"/>
			<point x="949" y="576"/>
			<point x="949" y="352" type="curve" smooth="yes"/>
			<point x="949" y="131"/>
			<point x="777" y="10"/>
			<point x="471" y="10" type="curve" smooth="yes"/>
			<point x="345" y="10"/>
			<point x="224" y="28"/>
			<point x="97" y="52" type="curve"/>
			<point x="93" y="32" type="line"/>
			<point x="221" y="7"/>
			<point x="342" y="-10"/>
		</contour>
	</outline>
</glyph>
<glyph name="greater" format="2">
  <advance width="560"/>
  <unicode hex="003E"/>
  <outline>
    <contour>
      <point x="497" y="279" type="line"/>
      <point x="497" y="299" type="line"/>
      <point x="63" y="510" type="line"/>
      <point x="63" y="488" type="line"/>
      <point x="475" y="289" type="line"/>
      <point x="63" y="91" type="line"/>
      <point x="63" y="69" type="line"/>
    </contour>
  </outline>
</glyph>
<glyph name="C" format="2">
  <advance width="1066"/>
  <unicode hex="0043"/>
  <anchor x="592" y="700" name="top"/>
  <anchor x="592" y="0" name="bottom"/>
  <outline>
    <contour>
      <point x="92" y="337" type="curve" smooth="yes"/>
      <point x="92" y="113"/>
      <point x="270" y="-10"/>
      <point x="593" y="-10" type="curve" smooth="yes"/>
      <point x="744" y="-10"/>
      <point x="888" y="9"/>
      <point x="1007" y="45" type="curve"/>
      <point x="1001" y="65" type="line"/>
      <point x="882" y="29"/>
      <point x="740" y="10"/>
      <point x="593" y="10" type="curve" smooth="yes"/>
      <point x="283" y="10"/>
      <point x="112" y="126"/>
      <point x="112" y="337" type="curve" smooth="yes"/>
      <point x="112" y="562"/>
      <point x="294" y="690"/>
      <point x="614" y="690" type="curve" smooth="yes"/>
      <point x="750" y="690"/>
      <point x="845" y="679"/>
      <point x="957" y="649" type="curve"/>
      <point x="963" y="669" type="line"/>
      <point x="851" y="699"/>
      <point x="755" y="710"/>
      <point x="614" y="710" type="curve" smooth="yes"/>
      <point x="281" y="710"/>
      <point x="92" y="575"/>
    </contour>
  </outline>
</glyph>
<glyph name="F" format="2">
	<advance width="911"/>
	<unicode hex="0046"/>
	<outline>
		<contour>
			<point x="142" y="0" type="line"/>
			<point x="162" y="0" type="line"/>
			<point x="162" y="303" type="line"/>
			<point x="799" y="303" type="line"/>
			<point x="799" y="323" type="line"/>
			<point x="162" y="323" type="line"/>
			<point x="162" y="680" type="line"/>
			<point x="872" y="680" type="line"/>
			<point x="872" y="700" type="line"/>
			<point x="142" y="700" type="line"/>
		</contour>
	</outline>
</glyph>
<glyph name="J" format="2">
  <advance width="774"/>
  <unicode hex="004A"/>
  <anchor x="380" y="700" name="top"/>
  <outline>
    <contour>
      <point x="29" y="40" type="line"/>
      <point x="121" y="8"/>
      <point x="246" y="-11"/>
      <point x="340" y="-11" type="curve" smooth="yes"/>
      <point x="540" y="-11"/>
      <point x="662" y="76"/>
      <point x="662" y="285" type="curve" smooth="yes"/>
      <point x="662" y="700" type="line"/>
      <point x="106" y="700" type="line"/>
      <point x="106" y="680" type="line"/>
      <point x="642" y="680" type="line"/>
      <point x="642" y="285" type="line" smooth="yes"/>
      <point x="642" y="90"/>
      <point x="528" y="9"/>
      <point x="340" y="9" type="curve" smooth="yes"/>
      <point x="249" y="9"/>
      <point x="128" y="28"/>
      <point x="35" y="60" type="curve"/>
    </contour>
  </outline>
</glyph>
<glyph name="L" format="2">
  <advance width="869"/>
  <unicode hex="004C"/>
  <anchor x="435" y="350" name="center"/>
  <anchor x="152" y="700" name="top"/>
  <anchor x="560" y="700" name="topright"/>
  <anchor x="476" y="0" name="bottom"/>
  <outline>
    <contour>
      <point x="142" y="0" type="line"/>
      <point x="840" y="0" type="line"/>
      <point x="840" y="20" type="line"/>
      <point x="162" y="20" type="line"/>
      <point x="162" y="700" type="line"/>
      <point x="142" y="700" type="line"/>
    </contour>
  </outline>
</glyph>
<glyph name="Q" format="2">
  <advance width="1257"/>
  <unicode hex="0051"/>
  <outline>
    <contour>
      <point x="720" y="-2" type="curve"/>
      <point x="699" y="-3" type="line"/>
      <point x="763" y="-117"/>
      <point x="840" y="-208"/>
      <point x="961" y="-208" type="curve" smooth="yes"/>
      <point x="1004" y="-208"/>
      <point x="1055" y="-197"/>
      <point x="1112" y="-171" type="curve"/>
      <point x="1104" y="-153" type="line"/>
      <point x="1050" y="-177"/>
      <point x="1002" y="-188"/>
      <point x="961" y="-188" type="curve" smooth="yes"/>
      <point x="850" y="-188"/>
      <point x="780" y="-108"/>
    </contour>
    <contour>
      <point x="627" y="10" type="curve" smooth="yes"/>
      <point x="401" y="10"/>
      <point x="112" y="76"/>
      <point x="112" y="350" type="curve" smooth="yes"/>
      <point x="112" y="636"/>
      <point x="401" y="690"/>
      <point x="627" y="690" type="curve" smooth="yes"/>
      <point x="854" y="690"/>
      <point x="1144" y="637"/>
      <point x="1144" y="350" type="curve" smooth="yes"/>
      <point x="1144" y="62"/>
      <point x="854" y="10"/>
    </contour>
    <contour>
      <point x="627" y="-10" type="curve" smooth="yes"/>
      <point x="872" y="-10"/>
      <point x="1165" y="48"/>
      <point x="1165" y="355" type="curve" smooth="yes"/>
      <point x="1165" y="652"/>
      <point x="860" y="710"/>
      <point x="627" y="710" type="curve" smooth="yes"/>
      <point x="390" y="710"/>
      <point x="92" y="648"/>
      <point x="92" y="350" type="curve" smooth="yes"/>
      <point x="92" y="65"/>
      <point x="390" y="-10"/>
    </contour>
  </outline>
</glyph>
<glyph name="S" format="2">
	<advance width="965"/>
	<unicode hex="0053"/>
	<anchor x="480" y="700" name="top"/>
	<anchor x="484" y="0" name="bottom"/>
	<outline>
		<contour>
			<point x="829" y="661" type="line"/>
			<point x="732" y="689"/>
			<point x="591" y="710"/>
			<point x="493" y="710" type="curve" smooth="yes"/>
			<point x="227" y="710"/>
			<point x="92" y="643"/>
			<point x="92" y="526" type="curve" smooth="yes"/>
			<point x="92" y="380"/>
			<point x="285" y="359"/>
			<point x="496" y="339" type="curve" smooth="yes"/>
			<point x="692" y="320"/>
			<point x="872" y="301"/>
			<point x="872" y="179" type="curve" smooth="yes"/>
			<point x="872" y="62"/>
			<point x="743" y="10"/>
			<point x="481" y="10" type="curve" smooth="yes"/>
			<point x="314" y="10"/>
			<point x="106" y="63"/>
			<point x="58" y="78" type="curve"/>
			<point x="52" y="58" type="line"/>
			<point x="100" y="43"/>
			<point x="310" y="-10"/>
			<point x="481" y="-10" type="curve" smooth="yes"/>
			<point x="757" y="-10"/>
			<point x="892" y="48"/>
			<point x="892" y="179" type="curve" smooth="yes"/>
			<point x="892" y="320"/>
			<point x="698" y="342"/>
			<point x="498" y="359" type="curve" smooth="yes"/>
			<point x="305" y="375"/>
			<point x="112" y="398"/>
			<point x="112" y="526" type="curve" smooth="yes"/>
			<point x="112" y="631"/>
			<point x="241" y="690"/>
			<point x="493" y="690" type="curve" smooth="yes"/>
			<point x="587" y="690"/>
			<point x="726" y="669"/>
			<point x="823" y="641" type="curve"/>
		</contour>
	</outline>
</glyph>
<glyph name="T" format="2">
  <advance width="836"/>
  <unicode hex="0054"/>
  <anchor x="418" y="700" name="top"/>
  <anchor x="418" y="0" name="bottom"/>
  <outline>
    <contour>
      <point x="830" y="681" type="line"/>
      <point x="830" y="700" type="line"/>
      <point x="6" y="700" type="line"/>
      <point x="6" y="681" type="line"/>
      <point x="408" y="681" type="line"/>
      <point x="408" y="0" type="line"/>
      <point x="428" y="0" type="line"/>
      <point x="428" y="681" type="line"/>
    </contour>
  </outline>
</glyph>
<glyph name="U" format="2">
  <advance width="1130"/>
  <unicode hex="0055"/>
  <anchor x="633" y="0" name="ogonek"/>
  <anchor x="565" y="700" name="top"/>
  <anchor x="1018" y="700" name="topright"/>
  <anchor x="565" y="0" name="bottom"/>
  <outline>
    <contour>
      <point x="112" y="292" type="line"/>
      <point x="112" y="42"/>
      <point x="356" y="-10"/>
      <point x="565" y="-10" type="curve" smooth="yes"/>
      <point x="774" y="-10"/>
      <point x="1018" y="42"/>
      <point x="1018" y="292" type="curve" smooth="yes"/>
      <point x="1018" y="700" type="line"/>
      <point x="998" y="700" type="line"/>
      <point x="998" y="292" type="line" smooth="yes"/>
      <point x="998" y="58"/>
      <point x="764" y="10"/>
      <point x="565" y="10" type="curve" smooth="yes"/>
      <point x="366" y="10"/>
      <point x="132" y="58"/>
      <point x="132" y="292" type="curve" smooth="yes"/>
      <point x="132" y="700" type="line"/>
      <point x="112" y="700" type="line"/>
    </contour>
  </outline>
</glyph>
<glyph name="W" format="2">
	<advance width="1388"/>
	<unicode hex="0057"/>
	<anchor x="694" y="700" name="top"/>
	<anchor x="694" y="0" name="bottom"/>
	<outline>
		<contour>
			<point x="1064" y="0" type="line"/>
			<point x="1374" y="696" type="line"/>
			<point x="1356" y="704" type="line"/>
			<point x="1056" y="33" type="line"/>
			<point x="704" y="662" type="line"/>
			<point x="684" y="662" type="line"/>
			<point x="332" y="33" type="line"/>
			<point x="32" y="704" type="line"/>
			<point x="14" y="696" type="line"/>
			<point x="324" y="0" type="line"/>
			<point x="337" y="0" type="line"/>
			<point x="694" y="638" type="line"/>
			<point x="1051" y="0" type="line"/>
		</contour>
	</outline>
</glyph>
<glyph name="X" format="2">
	<advance width="994"/>
	<unicode hex="0058"/>
	<outline>
		<contour>
			<point x="24" y="8" type="line"/>
			<point x="35" y="-8" type="line"/>
			<point x="497" y="347" type="line"/>
			<point x="959" y="-8" type="line"/>
			<point x="970" y="8" type="line"/>
			<point x="512" y="360" type="line"/>
			<point x="943" y="691" type="line"/>
			<point x="932" y="707" type="line"/>
			<point x="497" y="372" type="line"/>
			<point x="62" y="707" type="line"/>
			<point x="51" y="691" type="line"/>
			<point x="482" y="360" type="line"/>
		</contour>
	</outline>
</glyph>
<glyph name="Y" format="2">
	<advance width="962"/>
	<unicode hex="0059"/>
	<anchor x="481" y="700" name="top"/>
	<anchor x="488" y="0" name="bottom"/>
	<outline>
		<contour>
			<point x="478" y="0" type="line"/>
			<point x="498" y="0" type="line"/>
			<point x="498" y="313" type="line"/>
			<point x="948" y="692" type="line"/>
			<point x="936" y="708" type="line"/>
			<point x="488" y="331" type="line"/>
			<point x="26" y="708" type="line"/>
			<point x="14" y="692" type="line"/>
			<point x="478" y="313" type="line"/>
		</contour>
	</outline>
</glyph>
<glyph name="Z" format="2">
	<advance width="941"/>
	<unicode hex="005A"/>
	<anchor x="466" y="350" name="center"/>
	<anchor x="466" y="0" name="bottom"/>
	<anchor x="472" y="700" name="top"/>
	<outline>
		<contour>
			<point x="45" y="0" type="line"/>
			<point x="904" y="0" type="line"/>
			<point x="904" y="20" type="line"/>
			<point x="84" y="20" type="line"/>
			<point x="84" y="22" type="line"/>
			<point x="857" y="685" type="line"/>
			<point x="857" y="700" type="line"/>
			<point x="82" y="700" type="line"/>
			<point x="82" y="680" type="line"/>
			<point x="818" y="680" type="line"/>
			<point x="818" y="678" type="line"/>
			<point x="45" y="15" type="line"/>
		</contour>
	</outline>
</glyph>
<glyph name="bracketleft" format="2">
	<advance width="466"/>
	<unicode hex="005B"/>
	<outline>
		<contour>
			<point x="169" y="-190" type="line"/>
			<point x="169" y="720" type="line"/>
			<point x="420" y="720" type="line"/>
			<point x="420" y="740" type="line"/>
			<point x="149" y="740" type="line"/>
			<point x="149" y="-210" type="line"/>
			<point x="420" y="-210" type="line"/>
			<point x="420" y="-190" type="line"/>
		</contour>
	</outline>
</glyph>
<glyph name="backslash" format="2">
  <advance width="442"/>
  <unicode hex="005C"/>
  <outline>
    <contour>
      <point x="32" y="740" type="line"/>
      <point x="10" y="740" type="line"/>
      <point x="410" y="-210" type="line"/>
      <point x="432" y="-210" type="line"/>
    </contour>
  </outline>
</glyph>
<glyph name="bracketright" format="2">
  <advance width="466"/>
  <unicode hex="005D"/>
  <outline>
    <contour>
      <point x="46" y="-190" type="line"/>
      <point x="46" y="-210" type="line"/>
      <point x="317" y="-210" type="line"/>
      <point x="317" y="740" type="line"/>
      <point x="46" y="740" type="line"/>
      <point x="46" y="720" type="line"/>
      <point x="297" y="720" type="line"/>
      <point x="297" y="-190" type="line"/>
    </contour>
  </outline>
</glyph>
<glyph name="asciicircum" format="2">
	<advance width="560"/>
	<unicode hex="005E"/>
	<outline>
		<contour>
			<point x="59" y="276" type="line"/>
			<point x="82" y="276" type="line"/>
			<point x="280" y="686" type="line"/>
			<point x="478" y="276" type="line"/>
			<point x="501" y="276" type="line"/>
			<point x="290" y="710" type="line"/>
			<point x="270" y="710" type="line"/>
		</contour>
	</outline>
</glyph>
<glyph name="a" format="2">
	<advance width="809"/>
	<unicode hex="0061"/>
	<anchor x="792" y="-1" name="ogonek"/>
	<anchor x="405" y="0" name="bottom"/>
	<anchor x="407" y="530" name="top"/>
	<outline>
		<contour>
			<point x="80" y="121" type="curve" smooth="yes"/>
			<point x="80" y="29"/>
			<point x="152" y="-10"/>
			<point x="256" y="-10" type="curve" smooth="yes"/>
			<point x="424" y="-10"/>
			<point x="561" y="70"/>
			<point x="645" y="137" type="curve"/>
			<point x="645" y="30"/>
			<point x="679" y="-10"/>
			<point x="746" y="-10" type="curve" smooth="yes"/>
			<point x="760" y="-10"/>
			<point x="775" y="-7"/>
			<point x="792" y="-1" type="curve"/>
			<point x="786" y="16" type="line"/>
			<point x="773" y="11"/>
			<point x="761" y="9"/>
			<point x="749" y="9" type="curve" smooth="yes"/>
			<point x="696" y="9"/>
			<point x="663" y="36"/>
			<point x="665" y="133" type="curve" smooth="yes"/>
			<point x="670" y="353" type="line" smooth="yes"/>
			<point x="673" y="488"/>
			<point x="554" y="540"/>
			<point x="398" y="540" type="curve" smooth="yes"/>
			<point x="317" y="540"/>
			<point x="225" y="526"/>
			<point x="134" y="503" type="curve"/>
			<point x="138" y="483" type="line"/>
			<point x="239" y="509"/>
			<point x="327" y="520"/>
			<point x="400" y="520" type="curve" smooth="yes"/>
			<point x="565" y="520"/>
			<point x="652" y="458"/>
			<point x="650" y="353" type="curve" smooth="yes"/>
			<point x="649" y="295" type="line"/>
			<point x="263" y="280"/>
			<point x="80" y="277"/>
		</contour>
		<contour>
			<point x="100" y="126" type="curve" smooth="yes"/>
			<point x="100" y="262"/>
			<point x="311" y="267"/>
			<point x="648" y="276" type="curve"/>
			<point x="645" y="163" type="line"/>
			<point x="527" y="60"/>
			<point x="386" y="10"/>
			<point x="256" y="10" type="curve" smooth="yes"/>
			<point x="162" y="10"/>
			<point x="100" y="46"/>
		</contour>
	</outline>
</glyph>
<glyph name="d" format="2">
  <advance width="861"/>
  <unicode hex="0064"/>
  <anchor x="431" y="275" name="center"/>
  <anchor x="428" y="740" name="top"/>
  <anchor x="865" y="740" name="topright"/>
  <anchor x="431" y="0" name="bottom"/>
  <outline>
    <contour>
      <point x="724" y="0" type="line"/>
      <point x="737" y="0" type="line"/>
      <point x="737" y="740" type="line"/>
      <point x="717" y="740" type="line"/>
      <point x="717" y="514" type="line"/>
      <point x="633" y="531"/>
      <point x="542" y="540"/>
      <point x="465" y="540" type="curve" smooth="yes"/>
      <point x="206" y="540"/>
      <point x="74" y="440"/>
      <point x="74" y="245" type="curve" smooth="yes"/>
      <point x="74" y="87"/>
      <point x="185" y="-10"/>
      <point x="367" y="-10" type="curve" smooth="yes"/>
      <point x="481" y="-10"/>
      <point x="581" y="27"/>
      <point x="717" y="120" type="curve"/>
    </contour>
    <contour>
      <point x="717" y="143" type="line"/>
      <point x="580" y="48"/>
      <point x="481" y="10"/>
      <point x="367" y="10" type="curve" smooth="yes"/>
      <point x="199" y="10"/>
      <point x="94" y="99"/>
      <point x="94" y="245" type="curve" smooth="yes"/>
      <point x="94" y="429"/>
      <point x="218" y="521"/>
      <point x="465" y="521" type="curve" smooth="yes"/>
      <point x="533" y="521"/>
      <point x="618" y="512"/>
      <point x="717" y="493" type="curve"/>
    </contour>
  </outline>
</glyph>
<glyph name="g" format="2">
	<advance width="886"/>
	<unicode hex="0067"/>
	<anchor x="449" y="530" name="top"/>
	<anchor x="430" y="-220" name="bottom"/>
	<outline>
		<contour>
			<point x="430" y="-220" type="curve" smooth="yes"/>
			<point x="706" y="-220"/>
			<point x="858" y="-153"/>
			<point x="858" y="-41" type="curve" smooth="yes"/>
			<point x="858" y="44"/>
			<point x="794" y="77"/>
			<point x="659" y="77" type="curve" smooth="yes"/>
			<point x="302" y="77" type="line" smooth="yes"/>
			<point x="182" y="77"/>
			<point x="117" y="108"/>
			<point x="117" y="170" type="curve" smooth="yes"/>
			<point x="117" y="213"/>
			<point x="153" y="245"/>
			<point x="213" y="268" type="curve"/>
			<point x="194" y="276" type="line"/>
			<point x="126" y="249"/>
			<point x="97" y="215"/>
			<point x="97" y="166" type="curve" smooth="yes"/>
			<point x="97" y="95"/>
			<point x="169" y="57"/>
			<point x="299" y="57" type="curve" smooth="yes"/>
			<point x="659" y="57" type="line" smooth="yes"/>
			<point x="776" y="57"/>
			<point x="838" y="27"/>
			<point x="838" y="-39" type="curve" smooth="yes"/>
			<point x="838" y="-142"/>
			<point x="696" y="-200"/>
			<point x="430" y="-200" type="curve" smooth="yes"/>
			<point x="187" y="-200"/>
			<point x="55" y="-159"/>
			<point x="55" y="-56" type="curve" smooth="yes"/>
			<point x="55" y="-3"/>
			<point x="94" y="51"/>
			<point x="225" y="71" type="curve"/>
			<point x="195" y="77" type="line"/>
			<point x="73" y="59"/>
			<point x="35" y="-1"/>
			<point x="35" y="-57" type="curve" smooth="yes"/>
			<point x="35" y="-175"/>
			<point x="168" y="-220"/>
		</contour>
		<contour>
			<point x="444" y="221" type="curve" smooth="yes"/>
			<point x="666" y="221"/>
			<point x="768" y="272"/>
			<point x="768" y="381" type="curve" smooth="yes"/>
			<point x="768" y="490"/>
			<point x="666" y="540"/>
			<point x="444" y="540" type="curve" smooth="yes"/>
			<point x="222" y="540"/>
			<point x="120" y="490"/>
			<point x="120" y="381" type="curve" smooth="yes"/>
			<point x="120" y="272"/>
			<point x="222" y="221"/>
		</contour>
		<contour>
			<point x="444" y="240" type="curve" smooth="yes"/>
			<point x="234" y="240"/>
			<point x="140" y="283"/>
			<point x="140" y="381" type="curve" smooth="yes"/>
			<point x="140" y="479"/>
			<point x="234" y="521"/>
			<point x="444" y="521" type="curve" smooth="yes"/>
			<point x="654" y="521"/>
			<point x="748" y="479"/>
			<point x="748" y="381" type="curve" smooth="yes"/>
			<point x="748" y="283"/>
			<point x="654" y="240"/>
		</contour>
		<contour>
			<point x="647" y="505" type="line"/>
			<point x="667" y="547"/>
			<point x="715" y="566"/>
			<point x="788" y="566" type="curve" smooth="yes"/>
			<point x="808" y="566"/>
			<point x="825" y="565"/>
			<point x="847" y="562" type="curve"/>
			<point x="849" y="582" type="line"/>
			<point x="820" y="585"/>
			<point x="806" y="586"/>
			<point x="788" y="586" type="curve" smooth="yes"/>
			<point x="706" y="586"/>
			<point x="651" y="562"/>
			<point x="630" y="509" type="curve"/>
		</contour>
	</outline>
</glyph>
<glyph name="n" format="2">
	<advance width="893"/>
	<unicode hex="006E"/>
	<anchor x="460" y="530" name="top"/>
	<anchor x="462" y="0" name="bottom"/>
	<outline>
		<contour>
			<point x="124" y="0" type="line"/>
			<point x="144" y="0" type="line"/>
			<point x="144" y="411" type="line"/>
			<point x="284" y="476"/>
			<point x="379" y="520"/>
			<point x="528" y="520" type="curve" smooth="yes"/>
			<point x="681" y="520"/>
			<point x="749" y="446"/>
			<point x="749" y="333" type="curve" smooth="yes"/>
			<point x="749" y="0" type="line"/>
			<point x="769" y="0" type="line"/>
			<point x="769" y="333" type="line" smooth="yes"/>
			<point x="769" y="463"/>
			<point x="690" y="540"/>
			<point x="528" y="540" type="curve" smooth="yes"/>
			<point x="378" y="540"/>
			<point x="277" y="494"/>
			<point x="144" y="432" type="curve"/>
			<point x="144" y="530" type="line"/>
			<point x="124" y="530" type="line"/>
		</contour>
	</outline>
</glyph>
<glyph name="o" format="2">
  <advance width="914"/>
  <unicode hex="006F"/>
  <anchor x="534" y="0" name="ogonek"/>
  <anchor x="457" y="530" name="top"/>
  <anchor x="593" y="530" name="topright"/>
  <anchor x="457" y="0" name="bottom"/>
  <outline>
    <contour>
      <point x="74" y="267" type="curve" smooth="yes"/>
      <point x="74" y="84"/>
      <point x="191" y="-10"/>
      <point x="457" y="-10" type="curve" smooth="yes"/>
      <point x="723" y="-10"/>
      <point x="840" y="84"/>
      <point x="840" y="267" type="curve" smooth="yes"/>
      <point x="840" y="437"/>
      <point x="740" y="540"/>
      <point x="457" y="540" type="curve" smooth="yes"/>
      <point x="174" y="540"/>
      <point x="74" y="437"/>
    </contour>
    <contour>
      <point x="94" y="267" type="curve" smooth="yes"/>
      <point x="94" y="421"/>
      <point x="183" y="520"/>
      <point x="457" y="520" type="curve" smooth="yes"/>
      <point x="731" y="520"/>
      <point x="820" y="421"/>
      <point x="820" y="267" type="curve" smooth="yes"/>
      <point x="820" y="103"/>
      <point x="714" y="10"/>
      <point x="457" y="10" type="curve" smooth="yes"/>
      <point x="200" y="10"/>
      <point x="94" y="103"/>
    </contour>
  </outline>
</glyph>
<glyph name="x" format="2">
	<advance width="795"/>
	<unicode hex="0078"/>
	<outline>
		<contour>
			<point x="24" y="8" type="line"/>
			<point x="36" y="-8" type="line"/>
			<point x="397" y="262" type="line"/>
			<point x="759" y="-8" type="line"/>
			<point x="771" y="8" type="line"/>
			<point x="414" y="275" type="line"/>
			<point x="750" y="522" type="line"/>
			<point x="738" y="538" type="line"/>
			<point x="397" y="287" type="line"/>
			<point x="57" y="538" type="line"/>
			<point x="45" y="522" type="line"/>
			<point x="381" y="275" type="line"/>
		</contour>
	</outline>
</glyph>
<glyph name="y" format="2">
	<advance width="756"/>
	<unicode hex="0079"/>
	<anchor x="377" y="530" name="top"/>
	<anchor x="571" y="0" name="bottom"/>
	<outline>
		<contour>
			<point x="281" y="-205" type="line"/>
			<point x="299" y="-215" type="line"/>
			<point x="743" y="529" type="line"/>
			<point x="725" y="539" type="line"/>
			<point x="413" y="16" type="line"/>
			<point x="29" y="540" type="line"/>
			<point x="13" y="528" type="line"/>
			<point x="400" y="0" type="line"/>
			<point x="403" y="0" type="line"/>
		</contour>
	</outline>
</glyph>
<glyph name="z" format="2">
	<advance width="769"/>
	<unicode hex="007A"/>
	<anchor x="398" y="530" name="top"/>
	<outline>
		<contour>
			<point x="43" y="0" type="line"/>
			<point x="733" y="0" type="line"/>
			<point x="733" y="20" type="line"/>
			<point x="77" y="20" type="line"/>
			<point x="695" y="512" type="line"/>
			<point x="695" y="530" type="line"/>
			<point x="93" y="530" type="line"/>
			<point x="93" y="510" type="line"/>
			<point x="661" y="510" type="line"/>
			<point x="43" y="18" type="line"/>
		</contour>
	</outline>
</glyph>
<glyph name="braceleft" format="2">
	<advance width="466"/>
	<unicode hex="007B"/>
	<outline>
		<contour>
			<point x="200" y="-69" type="curve" smooth="yes"/>
			<point x="200" y="-139"/>
			<point x="232" y="-210"/>
			<point x="368" y="-210" type="curve" smooth="yes"/>
			<point x="410" y="-210" type="line"/>
			<point x="410" y="-190" type="line"/>
			<point x="368" y="-190" type="line" smooth="yes"/>
			<point x="248" y="-190"/>
			<point x="220" y="-129"/>
			<point x="220" y="-69" type="curve" smooth="yes"/>
			<point x="220" y="2"/>
			<point x="253" y="75"/>
			<point x="253" y="145" type="curve" smooth="yes"/>
			<point x="253" y="187"/>
			<point x="245" y="255"/>
			<point x="186" y="265" type="curve"/>
			<point x="244" y="279"/>
			<point x="253" y="341"/>
			<point x="253" y="383" type="curve" smooth="yes"/>
			<point x="253" y="457"/>
			<point x="220" y="525"/>
			<point x="220" y="597" type="curve" smooth="yes"/>
			<point x="220" y="657"/>
			<point x="248" y="720"/>
			<point x="368" y="720" type="curve" smooth="yes"/>
			<point x="410" y="720" type="line"/>
			<point x="410" y="740" type="line"/>
			<point x="368" y="740" type="line" smooth="yes"/>
			<point x="232" y="740"/>
			<point x="200" y="667"/>
			<point x="200" y="597" type="curve" smooth="yes"/>
			<point x="200" y="523"/>
			<point x="233" y="455"/>
			<point x="233" y="383" type="curve" smooth="yes"/>
			<point x="233" y="338"/>
			<point x="219" y="275"/>
			<point x="161" y="275" type="curve" smooth="yes"/>
			<point x="140" y="275" type="line"/>
			<point x="140" y="255" type="line"/>
			<point x="161" y="255" type="line" smooth="yes"/>
			<point x="219" y="255"/>
			<point x="233" y="190"/>
			<point x="233" y="145" type="curve" smooth="yes"/>
			<point x="233" y="75"/>
			<point x="200" y="3"/>
		</contour>
	</outline>
</glyph>
<glyph name="braceright" format="2">
  <advance width="466"/>
  <unicode hex="007D"/>
  <outline>
    <contour>
      <point x="56" y="-190" type="line"/>
      <point x="56" y="-210" type="line"/>
      <point x="98" y="-210" type="line" smooth="yes"/>
      <point x="234" y="-210"/>
      <point x="266" y="-139"/>
      <point x="266" y="-69" type="curve" smooth="yes"/>
      <point x="266" y="3"/>
      <point x="233" y="75"/>
      <point x="233" y="145" type="curve" smooth="yes"/>
      <point x="233" y="190"/>
      <point x="247" y="255"/>
      <point x="305" y="255" type="curve" smooth="yes"/>
      <point x="326" y="255" type="line"/>
      <point x="326" y="275" type="line"/>
      <point x="305" y="275" type="line" smooth="yes"/>
      <point x="247" y="275"/>
      <point x="233" y="338"/>
      <point x="233" y="383" type="curve" smooth="yes"/>
      <point x="233" y="455"/>
      <point x="266" y="523"/>
      <point x="266" y="597" type="curve" smooth="yes"/>
      <point x="266" y="667"/>
      <point x="234" y="740"/>
      <point x="98" y="740" type="curve" smooth="yes"/>
      <point x="56" y="740" type="line"/>
      <point x="56" y="720" type="line"/>
      <point x="98" y="720" type="line" smooth="yes"/>
      <point x="218" y="720"/>
      <point x="246" y="657"/>
      <point x="246" y="597" type="curve" smooth="yes"/>
      <point x="246" y="525"/>
      <point x="213" y="457"/>
      <point x="213" y="383" type="curve" smooth="yes"/>
      <point x="213" y="341"/>
      <point x="222" y="279"/>
      <point x="280" y="265" type="curve"/>
      <point x="221" y="255"/>
      <point x="213" y="187"/>
      <point x="213" y="145" type="curve" smooth="yes"/>
      <point x="213" y="75"/>
      <point x="246" y="2"/>
      <point x="246" y="-69" type="curve" smooth="yes"/>
      <point x="246" y="-129"/>
      <point x="218" y="-190"/>
      <point x="98" y="-190" type="curve" smooth="yes"/>
    </contour>
  </outline>
</glyph>
<glyph name="asciitilde" format="2">
	<advance width="560"/>
	<unicode hex="007E"/>
	<outline>
		<contour>
			<point x="485" y="271" type="curve"/>
			<point x="485" y="295" type="line"/>
			<point x="459" y="275"/>
			<point x="431" y="248"/>
			<point x="389" y="248" type="curve" smooth="yes"/>
			<point x="306" y="248"/>
			<point x="258" y="350"/>
			<point x="167" y="350" type="curve" smooth="yes"/>
			<point x="133" y="350"/>
			<point x="100" y="328"/>
			<point x="75" y="309" type="curve"/>
			<point x="75" y="284" type="line"/>
			<point x="97" y="302"/>
			<point x="127" y="330"/>
			<point x="169" y="330" type="curve" smooth="yes"/>
			<point x="252" y="330"/>
			<point x="300" y="228"/>
			<point x="391" y="228" type="curve" smooth="yes"/>
			<point x="434" y="228"/>
			<point x="461" y="252"/>
		</contour>
	</outline>
</glyph>
<glyph name="currency" format="2">
	<advance width="455"/>
	<unicode hex="00A4"/>
	<outline>
		<contour>
			<point x="52" y="451" type="line"/>
			<point x="126" y="376" type="line"/>
			<point x="107" y="353"/>
			<point x="95" y="323"/>
			<point x="95" y="289" type="curve" smooth="yes"/>
			<point x="95" y="255"/>
			<point x="107" y="225"/>
			<point x="127" y="202" type="curve"/>
			<point x="52" y="127" type="line"/>
			<point x="66" y="113" type="line"/>
			<point x="141" y="188" type="line"/>
			<point x="164" y="168"/>
			<point x="194" y="157"/>
			<point x="227" y="157" type="curve" smooth="yes"/>
			<point x="260" y="157"/>
			<point x="291" y="168"/>
			<point x="314" y="188" type="curve"/>
			<point x="389" y="113" type="line"/>
			<point x="403" y="127" type="line"/>
			<point x="328" y="202" type="line"/>
			<point x="348" y="225"/>
			<point x="360" y="255"/>
			<point x="360" y="289" type="curve" smooth="yes"/>
			<point x="360" y="323"/>
			<point x="348" y="353"/>
			<point x="328" y="376" type="curve"/>
			<point x="403" y="451" type="line"/>
			<point x="389" y="465" type="line"/>
			<point x="314" y="390" type="line"/>
			<point x="291" y="410"/>
			<point x="261" y="422"/>
			<point x="227" y="422" type="curve" smooth="yes"/>
			<point x="193" y="422"/>
			<point x="163" y="410"/>
			<point x="140" y="390" type="curve"/>
			<point x="66" y="465" type="line"/>
		</contour>
		<contour>
			<point x="227" y="177" type="curve" smooth="yes"/>
			<point x="165" y="177"/>
			<point x="115" y="227"/>
			<point x="115" y="289" type="curve" smooth="yes"/>
			<point x="115" y="352"/>
			<point x="165" y="402"/>
			<point x="227" y="402" type="curve" smooth="yes"/>
			<point x="290" y="402"/>
			<point x="340" y="352"/>
			<point x="340" y="289" type="curve" smooth="yes"/>
			<point x="340" y="227"/>
			<point x="290" y="177"/>
		</contour>
	</outline>
</glyph>
<glyph name="yen" format="2">
	<advance width="1034"/>
	<unicode hex="00A5"/>
	<outline>
		<contour>
			<point x="142" y="366" type="line"/>
			<point x="514" y="366" type="line"/>
			<point x="514" y="196" type="line"/>
			<point x="142" y="196" type="line"/>
			<point x="142" y="176" type="line"/>
			<point x="514" y="176" type="line"/>
			<point x="514" y="0" type="line"/>
			<point x="534" y="0" type="line"/>
			<point x="534" y="176" type="line"/>
			<point x="907" y="176" type="line"/>
			<point x="907" y="196" type="line"/>
			<point x="534" y="196" type="line"/>
			<point x="534" y="366" type="line"/>
			<point x="907" y="366" type="line"/>
			<point x="907" y="386" type="line"/>
			<point x="534" y="386" type="line"/>
			<point x="944" y="692" type="line"/>
			<point x="932" y="708" type="line"/>
			<point x="524" y="404" type="line"/>
			<point x="102" y="708" type="line"/>
			<point x="90" y="692" type="line"/>
			<point x="514" y="386" type="line"/>
			<point x="142" y="386" type="line"/>
		</contour>
	</outline>
</glyph>
<glyph name="brokenbar" format="2">
	<advance width="304"/>
	<unicode hex="00A6"/>
	<outline>
		<contour>
			<point x="162" y="391" type="line"/>
			<point x="162" y="790" type="line"/>
			<point x="142" y="790" type="line"/>
			<point x="142" y="391" type="line"/>
		</contour>
		<contour>
			<point x="142" y="190" type="line"/>
			<point x="142" y="-210" type="line"/>
			<point x="162" y="-210" type="line"/>
			<point x="162" y="190" type="line"/>
		</contour>
	</outline>
</glyph>
<glyph name="section" format="2">
	<advance width="700"/>
	<unicode hex="00A7"/>
	<outline>
		<contour>
			<point x="337" y="-220" type="curve" smooth="yes"/>
			<point x="525" y="-220"/>
			<point x="646" y="-120"/>
			<point x="646" y="34" type="curve" smooth="yes"/>
			<point x="646" y="125"/>
			<point x="605" y="215"/>
			<point x="487" y="382" type="curve" smooth="yes"/>
			<point x="395" y="512"/>
			<point x="367" y="566"/>
			<point x="367" y="620" type="curve" smooth="yes"/>
			<point x="367" y="683"/>
			<point x="415" y="723"/>
			<point x="494" y="723" type="curve" smooth="yes"/>
			<point x="528" y="723"/>
			<point x="568" y="716"/>
			<point x="627" y="698" type="curve"/>
			<point x="633" y="716" type="line"/>
			<point x="564" y="739"/>
			<point x="493" y="750"/>
			<point x="420" y="750" type="curve" smooth="yes"/>
			<point x="225" y="750"/>
			<point x="95" y="641"/>
			<point x="94" y="474" type="curve" smooth="yes"/>
			<point x="94" y="357"/>
			<point x="136" y="262"/>
			<point x="249" y="121" type="curve" smooth="yes"/>
			<point x="316" y="37"/>
			<point x="354" y="-5"/>
			<point x="355" y="-82" type="curve" smooth="yes"/>
			<point x="356" y="-137"/>
			<point x="303" y="-184"/>
			<point x="239" y="-184" type="curve" smooth="yes"/>
			<point x="184" y="-184"/>
			<point x="143" y="-166"/>
			<point x="64" y="-108" type="curve"/>
			<point x="54" y="-124" type="line"/>
			<point x="154" y="-197"/>
			<point x="222" y="-220"/>
		</contour>
		<contour>
			<point x="337" y="-201" type="curve" smooth="yes"/>
			<point x="290" y="-201"/>
			<point x="256" y="-198"/>
			<point x="225" y="-190" type="curve"/>
			<point x="239" y="-199" type="line"/>
			<point x="313" y="-204"/>
			<point x="374" y="-148"/>
			<point x="374" y="-82" type="curve" smooth="yes"/>
			<point x="374" y="-16"/>
			<point x="357" y="17"/>
			<point x="264" y="132" type="curve" smooth="yes"/>
			<point x="153" y="271"/>
			<point x="114" y="361"/>
			<point x="114" y="474" type="curve" smooth="yes"/>
			<point x="114" y="630"/>
			<point x="235" y="731"/>
			<point x="420" y="731" type="curve" smooth="yes"/>
			<point x="437" y="731"/>
			<point x="455" y="730"/>
			<point x="475" y="728" type="curve"/>
			<point x="475" y="735" type="line"/>
			<point x="394" y="737"/>
			<point x="348" y="687"/>
			<point x="347" y="618" type="curve" smooth="yes"/>
			<point x="347" y="560"/>
			<point x="377" y="505"/>
			<point x="472" y="371" type="curve" smooth="yes"/>
			<point x="586" y="210"/>
			<point x="626" y="122"/>
			<point x="626" y="34" type="curve" smooth="yes"/>
			<point x="627" y="-109"/>
			<point x="515" y="-200"/>
		</contour>
	</outline>
</glyph>
<glyph name="copyright" format="2">
	<advance width="1114"/>
	<unicode hex="00A9"/>
	<outline>
		<contour>
			<point x="557" y="10" type="curve" smooth="yes"/>
			<point x="312" y="10"/>
			<point x="93" y="85"/>
			<point x="93" y="350" type="curve" smooth="yes"/>
			<point x="93" y="615"/>
			<point x="312" y="690"/>
			<point x="557" y="690" type="curve" smooth="yes"/>
			<point x="802" y="690"/>
			<point x="1021" y="615"/>
			<point x="1021" y="350" type="curve" smooth="yes"/>
			<point x="1021" y="85"/>
			<point x="802" y="10"/>
		</contour>
		<contour>
			<point x="557" y="710" type="curve" smooth="yes"/>
			<point x="302" y="710"/>
			<point x="73" y="631"/>
			<point x="73" y="350" type="curve" smooth="yes"/>
			<point x="73" y="69"/>
			<point x="302" y="-10"/>
			<point x="557" y="-10" type="curve" smooth="yes"/>
			<point x="812" y="-10"/>
			<point x="1041" y="69"/>
			<point x="1041" y="350" type="curve" smooth="yes"/>
			<point x="1041" y="631"/>
			<point x="812" y="710"/>
		</contour>
		<contour>
			<point x="341" y="334" type="curve" smooth="yes"/>
			<point x="341" y="225"/>
			<point x="423" y="179"/>
			<point x="548" y="179" type="curve" smooth="yes"/>
			<point x="653" y="179"/>
			<point x="726" y="195"/>
			<point x="764" y="204" type="curve"/>
			<point x="758" y="224" type="line"/>
			<point x="719" y="214"/>
			<point x="650" y="199"/>
			<point x="548" y="199" type="curve" smooth="yes"/>
			<point x="428" y="199"/>
			<point x="361" y="237"/>
			<point x="361" y="334" type="curve" smooth="yes"/>
			<point x="361" y="451"/>
			<point x="453" y="489"/>
			<point x="580" y="489" type="curve" smooth="yes"/>
			<point x="641" y="489"/>
			<point x="681" y="484"/>
			<point x="733" y="470" type="curve"/>
			<point x="739" y="490" type="line"/>
			<point x="687" y="504"/>
			<point x="643" y="509"/>
			<point x="580" y="509" type="curve" smooth="yes"/>
			<point x="447" y="509"/>
			<point x="341" y="464"/>
		</contour>
	</outline>
</glyph>
<glyph name="ordfeminine" format="2">
  <advance width="525"/>
  <unicode hex="00AA"/>
  <outline>
    <contour>
      <point x="77" y="275" type="line"/>
      <point x="466" y="275" type="line"/>
      <point x="466" y="291" type="line"/>
      <point x="77" y="291" type="line"/>
    </contour>
    <contour>
      <point x="55" y="443" type="curve" smooth="yes"/>
      <point x="55" y="388"/>
      <point x="93" y="364"/>
      <point x="154" y="364" type="curve" smooth="yes"/>
      <point x="252" y="364"/>
      <point x="320" y="407"/>
      <point x="365" y="444" type="curve"/>
      <point x="366" y="385"/>
      <point x="387" y="364"/>
      <point x="423" y="364" type="curve" smooth="yes"/>
      <point x="432" y="364"/>
      <point x="443" y="366"/>
      <point x="453" y="369" type="curve"/>
      <point x="449" y="383" type="line"/>
      <point x="442" y="381"/>
      <point x="434" y="378"/>
      <point x="428" y="378" type="curve" smooth="yes"/>
      <point x="400" y="378"/>
      <point x="382" y="394"/>
      <point x="382" y="447" type="curve" smooth="yes"/>
      <point x="382" y="567" type="line" smooth="yes"/>
      <point x="382" y="644"/>
      <point x="323" y="674"/>
      <point x="232" y="674" type="curve" smooth="yes"/>
      <point x="187" y="674"/>
      <point x="136" y="666"/>
      <point x="86" y="653" type="curve"/>
      <point x="88" y="638" type="line"/>
      <point x="143" y="651"/>
      <point x="193" y="658"/>
      <point x="233" y="658" type="curve" smooth="yes"/>
      <point x="323" y="658"/>
      <point x="365" y="626"/>
      <point x="365" y="567" type="curve" smooth="yes"/>
      <point x="365" y="537" type="line"/>
      <point x="132" y="536"/>
      <point x="55" y="523"/>
    </contour>
    <contour>
      <point x="71" y="444" type="curve" smooth="yes"/>
      <point x="71" y="505"/>
      <point x="127" y="523"/>
      <point x="365" y="523" type="curve"/>
      <point x="365" y="461" type="line"/>
      <point x="302" y="405"/>
      <point x="225" y="378"/>
      <point x="158" y="378" type="curve" smooth="yes"/>
      <point x="105" y="378"/>
      <point x="71" y="397"/>
    </contour>
  </outline>
</glyph>
<glyph name="logicalnot" format="2">
	<advance width="560"/>
	<unicode hex="00AC"/>
	<outline>
		<contour>
			<point x="63" y="384" type="line"/>
			<point x="477" y="384" type="line"/>
			<point x="477" y="177" type="line"/>
			<point x="497" y="177" type="line"/>
			<point x="497" y="404" type="line"/>
			<point x="63" y="404" type="line"/>
		</contour>
	</outline>
</glyph>
<glyph name="registered" format="2">
  <advance width="1066"/>
  <unicode hex="00AE"/>
  <outline>
    <contour>
      <point x="533" y="209" type="curve" smooth="yes"/>
      <point x="775" y="209"/>
      <point x="993" y="284"/>
      <point x="993" y="551" type="curve" smooth="yes"/>
      <point x="993" y="818"/>
      <point x="775" y="893"/>
      <point x="533" y="893" type="curve" smooth="yes"/>
      <point x="291" y="893"/>
      <point x="73" y="818"/>
      <point x="73" y="551" type="curve" smooth="yes"/>
      <point x="73" y="284"/>
      <point x="291" y="209"/>
    </contour>
    <contour>
      <point x="533" y="228" type="curve" smooth="yes"/>
      <point x="300" y="228"/>
      <point x="92" y="299"/>
      <point x="92" y="551" type="curve" smooth="yes"/>
      <point x="92" y="803"/>
      <point x="300" y="874"/>
      <point x="533" y="874" type="curve" smooth="yes"/>
      <point x="766" y="874"/>
      <point x="974" y="803"/>
      <point x="974" y="551" type="curve" smooth="yes"/>
      <point x="974" y="299"/>
      <point x="766" y="228"/>
    </contour>
    <contour>
      <point x="786" y="397" type="curve" smooth="yes"/>
      <point x="789" y="397"/>
      <point x="791" y="397"/>
      <point x="794" y="397" type="curve"/>
      <point x="794" y="416" type="line"/>
      <point x="792" y="416"/>
      <point x="790" y="416"/>
      <point x="788" y="416" type="curve" smooth="yes"/>
      <point x="742" y="416"/>
      <point x="659" y="467"/>
      <point x="584" y="536" type="curve"/>
      <point x="668" y="541"/>
      <point x="713" y="562"/>
      <point x="713" y="626" type="curve" smooth="yes"/>
      <point x="713" y="694"/>
      <point x="659" y="711"/>
      <point x="506" y="711" type="curve" smooth="yes"/>
      <point x="447" y="711"/>
      <point x="416" y="711"/>
      <point x="359" y="708" type="curve"/>
      <point x="359" y="398" type="line"/>
      <point x="378" y="398" type="line"/>
      <point x="378" y="537" type="line"/>
      <point x="436" y="536"/>
      <point x="477" y="535"/>
      <point x="527" y="535" type="curve" smooth="yes"/>
      <point x="536" y="535"/>
      <point x="545" y="535"/>
      <point x="554" y="535" type="curve"/>
      <point x="630" y="467"/>
      <point x="734" y="397"/>
    </contour>
    <contour>
      <point x="527" y="554" type="curve" smooth="yes"/>
      <point x="477" y="554"/>
      <point x="436" y="555"/>
      <point x="378" y="556" type="curve"/>
      <point x="378" y="688" type="line"/>
      <point x="435" y="691"/>
      <point x="447" y="692"/>
      <point x="506" y="692" type="curve" smooth="yes"/>
      <point x="652" y="692"/>
      <point x="694" y="681"/>
      <point x="694" y="626" type="curve" smooth="yes"/>
      <point x="694" y="554"/>
      <point x="617" y="554"/>
    </contour>
  </outline>
</glyph>
<glyph name="uni00B2" format="2">
	<advance width="657"/>
	<unicode hex="00B2"/>
	<outline>
		<contour>
			<point x="89" y="370" type="line"/>
			<point x="570" y="370" type="line"/>
			<point x="570" y="386" type="line"/>
			<point x="131" y="386" type="line"/>
			<point x="423" y="520"/>
			<point x="473" y="564"/>
			<point x="473" y="647" type="curve" smooth="yes"/>
			<point x="473" y="725"/>
			<point x="413" y="770"/>
			<point x="300" y="770" type="curve" smooth="yes"/>
			<point x="240" y="770"/>
			<point x="169" y="755"/>
			<point x="117" y="732" type="curve"/>
			<point x="123" y="717" type="line"/>
			<point x="172" y="738"/>
			<point x="239" y="751"/>
			<point x="298" y="751" type="curve" smooth="yes"/>
			<point x="400" y="751"/>
			<point x="453" y="712"/>
			<point x="453" y="645" type="curve" smooth="yes"/>
			<point x="453" y="565"/>
			<point x="386" y="519"/>
			<point x="86" y="384" type="curve"/>
		</contour>
	</outline>
</glyph>
<glyph name="uni00B5" format="2">
  <advance width="870"/>
  <unicode hex="00B5"/>
  <outline>
    <contour>
      <point x="124" y="-210" type="line"/>
      <point x="144" y="-210" type="line"/>
      <point x="144" y="88" type="line"/>
      <point x="175" y="27"/>
      <point x="243" y="-10"/>
      <point x="349" y="-10" type="curve" smooth="yes"/>
      <point x="489" y="-10"/>
      <point x="583" y="36"/>
      <point x="708" y="99" type="curve"/>
      <point x="717" y="20"/>
      <point x="764" y="-10"/>
      <point x="806" y="-10" type="curve" smooth="yes"/>
      <point x="821" y="-10"/>
      <point x="836" y="-7"/>
      <point x="853" y="-1" type="curve"/>
      <point x="847" y="15" type="line"/>
      <point x="836" y="10"/>
      <point x="823" y="7"/>
      <point x="811" y="7" type="curve" smooth="yes"/>
      <point x="767" y="7"/>
      <point x="726" y="36"/>
      <point x="726" y="139" type="curve" smooth="yes"/>
      <point x="726" y="530" type="line"/>
      <point x="706" y="530" type="line"/>
      <point x="706" y="118" type="line"/>
      <point x="578" y="55"/>
      <point x="487" y="10"/>
      <point x="349" y="10" type="curve" smooth="yes"/>
      <point x="212" y="10"/>
      <point x="144" y="79"/>
      <point x="144" y="177" type="curve" smooth="yes"/>
      <point x="144" y="530" type="line"/>
      <point x="124" y="530" type="line"/>
    </contour>
  </outline>
</glyph>
<glyph name="uni00B9" format="2">
	<advance width="575"/>
	<unicode hex="00B9"/>
	<outline>
		<contour>
			<point x="36" y="370" type="line"/>
			<point x="542" y="370" type="line"/>
			<point x="542" y="386" type="line"/>
			<point x="323" y="386" type="line"/>
			<point x="323" y="768" type="line"/>
			<point x="312" y="768" type="line"/>
			<point x="32" y="650" type="line"/>
			<point x="38" y="634" type="line"/>
			<point x="304" y="745" type="line"/>
			<point x="304" y="386" type="line"/>
			<point x="36" y="386" type="line"/>
		</contour>
	</outline>
</glyph>
<glyph name="ordmasculine" format="2">
  <advance width="558"/>
  <unicode hex="00BA"/>
  <outline>
    <contour>
      <point x="91" y="276" type="line"/>
      <point x="488" y="276" type="line"/>
      <point x="488" y="292" type="line"/>
      <point x="91" y="292" type="line"/>
    </contour>
    <contour>
      <point x="61" y="520" type="curve" smooth="yes"/>
      <point x="61" y="417"/>
      <point x="128" y="364"/>
      <point x="280" y="364" type="curve" smooth="yes"/>
      <point x="431" y="364"/>
      <point x="497" y="417"/>
      <point x="497" y="520" type="curve" smooth="yes"/>
      <point x="497" y="617"/>
      <point x="441" y="675"/>
      <point x="280" y="675" type="curve" smooth="yes"/>
      <point x="118" y="675"/>
      <point x="61" y="617"/>
    </contour>
    <contour>
      <point x="80" y="520" type="curve" smooth="yes"/>
      <point x="80" y="605"/>
      <point x="130" y="659"/>
      <point x="280" y="659" type="curve" smooth="yes"/>
      <point x="429" y="659"/>
      <point x="478" y="605"/>
      <point x="478" y="520" type="curve" smooth="yes"/>
      <point x="478" y="430"/>
      <point x="420" y="380"/>
      <point x="280" y="380" type="curve" smooth="yes"/>
      <point x="139" y="380"/>
      <point x="80" y="430"/>
    </contour>
  </outline>
</glyph>
<glyph name="AE" format="2">
  <advance width="1552"/>
  <unicode hex="00C6"/>
  <anchor x="756" y="700" name="top"/>
  <outline>
    <contour>
      <point x="1" y="0" type="line"/>
      <point x="29" y="0" type="line"/>
      <point x="364" y="319" type="line"/>
      <point x="740" y="319" type="line"/>
      <point x="740" y="0" type="line"/>
      <point x="1499" y="0" type="line"/>
      <point x="1499" y="20" type="line"/>
      <point x="760" y="20" type="line"/>
      <point x="760" y="319" type="line"/>
      <point x="1438" y="319" type="line"/>
      <point x="1438" y="339" type="line"/>
      <point x="760" y="339" type="line"/>
      <point x="760" y="680" type="line"/>
      <point x="1470" y="680" type="line"/>
      <point x="1470" y="700" type="line"/>
      <point x="736" y="700" type="line"/>
    </contour>
    <contour>
      <point x="385" y="339" type="line"/>
      <point x="740" y="678" type="line"/>
      <point x="740" y="339" type="line"/>
    </contour>
  </outline>
</glyph>
<glyph name="Thorn" format="2">
	<advance width="1048"/>
	<unicode hex="00DE"/>
	<outline>
		<contour>
			<point x="142" y="0" type="line"/>
			<point x="162" y="0" type="line"/>
			<point x="162" y="169" type="line"/>
			<point x="324" y="165"/>
			<point x="409" y="164"/>
			<point x="535" y="164" type="curve" smooth="yes"/>
			<point x="852" y="164"/>
			<point x="970" y="215"/>
			<point x="970" y="402" type="curve" smooth="yes"/>
			<point x="970" y="561"/>
			<point x="886" y="629"/>
			<point x="510" y="629" type="curve" smooth="yes"/>
			<point x="448" y="629"/>
			<point x="366" y="627"/>
			<point x="162" y="619" type="curve"/>
			<point x="162" y="700" type="line"/>
			<point x="142" y="700" type="line"/>
		</contour>
		<contour>
			<point x="535" y="184" type="curve" smooth="yes"/>
			<point x="389" y="184"/>
			<point x="315" y="187"/>
			<point x="162" y="190" type="curve"/>
			<point x="162" y="599" type="line"/>
			<point x="368" y="607"/>
			<point x="444" y="609"/>
			<point x="510" y="609" type="curve" smooth="yes"/>
			<point x="864" y="609"/>
			<point x="950" y="550"/>
			<point x="950" y="402" type="curve" smooth="yes"/>
			<point x="950" y="241"/>
			<point x="858" y="184"/>
		</contour>
	</outline>
</glyph>
<glyph name="ae" format="2">
  <advance width="1379"/>
  <unicode hex="00E6"/>
  <anchor x="711" y="530" name="top"/>
  <outline>
    <contour>
      <point x="256" y="-10" type="curve" smooth="yes"/>
      <point x="395" y="-10"/>
      <point x="534" y="47"/>
      <point x="664" y="156" type="curve"/>
      <point x="665" y="156" type="line"/>
      <point x="707" y="51"/>
      <point x="824" y="-10"/>
      <point x="985" y="-10" type="curve" smooth="yes"/>
      <point x="1147" y="-10"/>
      <point x="1237" y="11"/>
      <point x="1307" y="27" type="curve"/>
      <point x="1303" y="47" type="line"/>
      <point x="1236" y="32"/>
      <point x="1141" y="10"/>
      <point x="985" y="10" type="curve" smooth="yes"/>
      <point x="794" y="10"/>
      <point x="670" y="101"/>
      <point x="667" y="244" type="curve" smooth="yes"/>
      <point x="667" y="257"/>
      <point x="667" y="260"/>
      <point x="669" y="281" type="curve"/>
      <point x="1015" y="281"/>
      <point x="1250" y="300"/>
      <point x="1314" y="303" type="curve"/>
      <point x="1315" y="306"/>
      <point x="1315" y="310"/>
      <point x="1315" y="320" type="curve" smooth="yes"/>
      <point x="1315" y="458"/>
      <point x="1197" y="540"/>
      <point x="998" y="540" type="curve" smooth="yes"/>
      <point x="828" y="540"/>
      <point x="705" y="471"/>
      <point x="668" y="355" type="curve"/>
      <point x="667" y="355" type="line"/>
      <point x="671" y="473"/>
      <point x="574" y="540"/>
      <point x="398" y="540" type="curve" smooth="yes"/>
      <point x="322" y="540"/>
      <point x="231" y="527"/>
      <point x="134" y="503" type="curve"/>
      <point x="138" y="483" type="line"/>
      <point x="235" y="507"/>
      <point x="324" y="520"/>
      <point x="400" y="520" type="curve" smooth="yes"/>
      <point x="561" y="520"/>
      <point x="650" y="461"/>
      <point x="650" y="353" type="curve" smooth="yes"/>
      <point x="650" y="300" type="line"/>
      <point x="187" y="287"/>
      <point x="80" y="253"/>
      <point x="80" y="121" type="curve" smooth="yes"/>
      <point x="80" y="36"/>
      <point x="142" y="-10"/>
    </contour>
    <contour>
      <point x="256" y="10" type="curve" smooth="yes"/>
      <point x="155" y="10"/>
      <point x="100" y="51"/>
      <point x="100" y="126" type="curve" smooth="yes"/>
      <point x="100" y="237"/>
      <point x="211" y="268"/>
      <point x="648" y="280" type="curve"/>
      <point x="647" y="273"/>
      <point x="647" y="268"/>
      <point x="647" y="249" type="curve" smooth="yes"/>
      <point x="647" y="220"/>
      <point x="650" y="196"/>
      <point x="657" y="176" type="curve"/>
      <point x="550" y="75"/>
      <point x="393" y="10"/>
    </contour>
    <contour>
      <point x="672" y="301" type="curve"/>
      <point x="697" y="443"/>
      <point x="818" y="520"/>
      <point x="998" y="520" type="curve" smooth="yes"/>
      <point x="1180" y="520"/>
      <point x="1294" y="443"/>
      <point x="1294" y="321" type="curve"/>
      <point x="1246" y="318"/>
      <point x="1017" y="301"/>
    </contour>
  </outline>
</glyph>
<glyph name="divide" format="2">
  <advance width="560"/>
  <unicode hex="00F7"/>
  <outline>
    <contour>
      <point x="263" y="88" type="curve" smooth="yes"/>
      <point x="263" y="72"/>
      <point x="265" y="71"/>
      <point x="280" y="71" type="curve" smooth="yes"/>
      <point x="296" y="71"/>
      <point x="297" y="72"/>
      <point x="297" y="88" type="curve" smooth="yes"/>
      <point x="297" y="104"/>
      <point x="296" y="105"/>
      <point x="280" y="105" type="curve" smooth="yes"/>
      <point x="264" y="105"/>
      <point x="263" y="104"/>
    </contour>
    <contour>
      <point x="263" y="490" type="curve" smooth="yes"/>
      <point x="263" y="474"/>
      <point x="265" y="473"/>
      <point x="280" y="473" type="curve" smooth="yes"/>
      <point x="296" y="473"/>
      <point x="297" y="474"/>
      <point x="297" y="490" type="curve" smooth="yes"/>
      <point x="297" y="506"/>
      <point x="296" y="507"/>
      <point x="280" y="507" type="curve" smooth="yes"/>
      <point x="264" y="507"/>
      <point x="263" y="506"/>
    </contour>
    <contour>
      <point x="63" y="279" type="line"/>
      <point x="497" y="279" type="line"/>
      <point x="497" y="299" type="line"/>
      <point x="63" y="299" type="line"/>
    </contour>
  </outline>
</glyph>
<glyph name="Dcroat" format="2">
  <advance width="1152"/>
  <unicode hex="0110"/>
  <outline>
    <contour>
      <point x="-8" y="350" type="line"/>
      <point x="382" y="350" type="line"/>
      <point x="382" y="370" type="line"/>
      <point x="-8" y="370" type="line"/>
    </contour>
    <component base="D"/>
  </outline>
</glyph>
<glyph name="hbar" format="2">
  <advance width="893"/>
  <unicode hex="0127"/>
  <outline>
    <contour>
      <point x="-16" y="618" type="line"/>
      <point x="481" y="618" type="line"/>
      <point x="481" y="636" type="line"/>
      <point x="-16" y="636" type="line"/>
    </contour>
    <contour>
      <point x="124" y="0" type="line"/>
      <point x="144" y="0" type="line"/>
      <point x="144" y="411" type="line"/>
      <point x="284" y="476"/>
      <point x="379" y="520"/>
      <point x="528" y="520" type="curve" smooth="yes"/>
      <point x="681" y="520"/>
      <point x="749" y="446"/>
      <point x="749" y="333" type="curve" smooth="yes"/>
      <point x="749" y="0" type="line"/>
      <point x="769" y="0" type="line"/>
      <point x="769" y="333" type="line" smooth="yes"/>
      <point x="769" y="463"/>
      <point x="690" y="540"/>
      <point x="528" y="540" type="curve" smooth="yes"/>
      <point x="378" y="540"/>
      <point x="278" y="494"/>
      <point x="144" y="432" type="curve"/>
      <point x="144" y="740" type="line"/>
      <point x="124" y="740" type="line"/>
    </contour>
  </outline>
</glyph>
<glyph name="Idotaccent" format="2">
  <advance width="304"/>
  <unicode hex="0130"/>
  <outline>
    <contour>
      <point x="152" y="837" type="curve" smooth="yes"/>
      <point x="168" y="837"/>
      <point x="169" y="838"/>
      <point x="169" y="854" type="curve" smooth="yes"/>
      <point x="169" y="870"/>
      <point x="168" y="871"/>
      <point x="152" y="871" type="curve" smooth="yes"/>
      <point x="136" y="871"/>
      <point x="135" y="870"/>
      <point x="135" y="854" type="curve" smooth="yes"/>
      <point x="135" y="838"/>
      <point x="137" y="837"/>
    </contour>
    <contour>
      <point x="142" y="0" type="line"/>
      <point x="162" y="0" type="line"/>
      <point x="162" y="700" type="line"/>
      <point x="142" y="700" type="line"/>
    </contour>
  </outline>
</glyph>
<glyph name="dotlessi" format="2">
  <advance width="268"/>
  <unicode hex="0131"/>
  <anchor x="143" y="0" name="ogonek"/>
  <anchor x="134" y="0" name="bottom"/>
  <anchor x="134" y="530" name="top"/>
  <outline>
    <contour>
      <point x="124" y="0" type="line"/>
      <point x="144" y="0" type="line"/>
      <point x="144" y="530" type="line"/>
      <point x="124" y="530" type="line"/>
    </contour>
  </outline>
</glyph>
<glyph name="Ldot" format="2">
  <advance width="869"/>
  <unicode hex="013F"/>
  <outline>
    <contour>
      <point x="562" y="369" type="curve" smooth="yes"/>
      <point x="562" y="353"/>
      <point x="564" y="352"/>
      <point x="579" y="352" type="curve" smooth="yes"/>
      <point x="595" y="352"/>
      <point x="596" y="353"/>
      <point x="596" y="369" type="curve" smooth="yes"/>
      <point x="596" y="385"/>
      <point x="595" y="386"/>
      <point x="579" y="386" type="curve" smooth="yes"/>
      <point x="563" y="386"/>
      <point x="562" y="385"/>
    </contour>
    <contour>
      <point x="142" y="0" type="line"/>
      <point x="840" y="0" type="line"/>
      <point x="840" y="20" type="line"/>
      <point x="162" y="20" type="line"/>
      <point x="162" y="700" type="line"/>
      <point x="142" y="700" type="line"/>
    </contour>
  </outline>
</glyph>
<glyph name="ldot" format="2">
  <advance width="359"/>
  <unicode hex="0140"/>
  <outline>
    <contour>
      <point x="322" y="339" type="curve" smooth="yes"/>
      <point x="338" y="339"/>
      <point x="339" y="340"/>
      <point x="339" y="356" type="curve" smooth="yes"/>
      <point x="339" y="372"/>
      <point x="338" y="373"/>
      <point x="322" y="373" type="curve" smooth="yes"/>
      <point x="306" y="373"/>
      <point x="305" y="372"/>
      <point x="305" y="356" type="curve" smooth="yes"/>
      <point x="305" y="340"/>
      <point x="307" y="339"/>
    </contour>
    <component base="l"/>
  </outline>
</glyph>
<glyph name="Lslash" format="2">
  <advance width="869"/>
  <unicode hex="0141"/>
  <outline>
    <contour>
      <point x="26" y="177" type="line"/>
      <point x="142" y="244" type="line"/>
      <point x="142" y="0" type="line"/>
      <point x="840" y="0" type="line"/>
      <point x="840" y="20" type="line"/>
      <point x="162" y="20" type="line"/>
      <point x="162" y="255" type="line"/>
      <point x="532" y="469" type="line"/>
      <point x="532" y="493" type="line"/>
      <point x="162" y="279" type="line"/>
      <point x="162" y="700" type="line"/>
      <point x="142" y="700" type="line"/>
      <point x="142" y="268" type="line"/>
      <point x="26" y="201" type="line"/>
    </contour>
  </outline>
</glyph>
<glyph name="lslash" format="2">
	<advance width="359"/>
	<unicode hex="0142"/>
	<outline>
		<contour>
			<point x="270" y="-10" type="curve" smooth="yes"/>
			<point x="309" y="-10"/>
			<point x="346" y="-2"/>
			<point x="375" y="5" type="curve"/>
			<point x="371" y="25" type="line"/>
			<point x="342" y="18"/>
			<point x="305" y="10"/>
			<point x="270" y="10" type="curve" smooth="yes"/>
			<point x="206" y="10"/>
			<point x="144" y="38"/>
			<point x="144" y="161" type="curve" smooth="yes"/>
			<point x="144" y="269" type="line"/>
			<point x="303" y="428" type="line"/>
			<point x="303" y="456" type="line"/>
			<point x="144" y="297" type="line"/>
			<point x="144" y="740" type="line"/>
			<point x="124" y="740" type="line"/>
			<point x="124" y="277" type="line"/>
			<point x="38" y="192" type="line"/>
			<point x="38" y="164" type="line"/>
			<point x="124" y="249" type="line"/>
			<point x="124" y="161" type="line" smooth="yes"/>
			<point x="124" y="22"/>
			<point x="196" y="-10"/>
		</contour>
	</outline>
</glyph>
<glyph name="uni0162" format="2">
  <advance width="836"/>
  <unicode hex="0162"/>
  <outline>
    <contour>
      <point x="277" y="-163" type="curve"/>
      <point x="269" y="-181" type="line"/>
      <point x="334" y="-208"/>
      <point x="390" y="-220"/>
      <point x="435" y="-220" type="curve" smooth="yes"/>
      <point x="523" y="-220"/>
      <point x="568" y="-181"/>
      <point x="568" y="-116" type="curve" smooth="yes"/>
      <point x="568" y="-63"/>
      <point x="518" y="-25"/>
      <point x="426" y="5" type="curve"/>
      <point x="408" y="0" type="line"/>
      <point x="480" y="-30"/>
      <point x="548" y="-62"/>
      <point x="548" y="-116" type="curve" smooth="yes"/>
      <point x="548" y="-169"/>
      <point x="509" y="-200"/>
      <point x="435" y="-200" type="curve" smooth="yes"/>
      <point x="392" y="-200"/>
      <point x="339" y="-188"/>
    </contour>
    <contour>
      <point x="830" y="681" type="line"/>
      <point x="830" y="700" type="line"/>
      <point x="6" y="700" type="line"/>
      <point x="6" y="681" type="line"/>
      <point x="408" y="681" type="line"/>
      <point x="408" y="0" type="line"/>
      <point x="428" y="0" type="line"/>
      <point x="428" y="681" type="line"/>
    </contour>
  </outline>
</glyph>
<glyph name="Tbar" format="2">
  <advance width="836"/>
  <unicode hex="0166"/>
  <outline>
    <contour>
      <point x="123" y="370" type="line"/>
      <point x="408" y="370" type="line"/>
      <point x="408" y="0" type="line"/>
      <point x="428" y="0" type="line"/>
      <point x="428" y="370" type="line"/>
      <point x="713" y="370" type="line"/>
      <point x="713" y="390" type="line"/>
      <point x="428" y="390" type="line"/>
      <point x="428" y="682" type="line"/>
      <point x="830" y="682" type="line"/>
      <point x="830" y="700" type="line"/>
      <point x="6" y="700" type="line"/>
      <point x="6" y="682" type="line"/>
      <point x="408" y="682" type="line"/>
      <point x="408" y="390" type="line"/>
      <point x="123" y="390" type="line"/>
    </contour>
  </outline>
</glyph>
<glyph name="uogonek" format="2">
  <advance width="870"/>
  <unicode hex="0173"/>
  <outline>
    <contour>
      <point x="812" y="-221" type="curve" smooth="yes"/>
      <point x="831" y="-221"/>
      <point x="845" y="-219"/>
      <point x="857" y="-215" type="curve"/>
      <point x="857" y="-197" type="line"/>
      <point x="845" y="-200"/>
      <point x="832" y="-202"/>
      <point x="815" y="-202" type="curve" smooth="yes"/>
      <point x="773" y="-202"/>
      <point x="730" y="-186"/>
      <point x="730" y="-129" type="curve" smooth="yes"/>
      <point x="730" y="-62"/>
      <point x="795" y="-16"/>
      <point x="853" y="-1" type="curve"/>
      <point x="847" y="15" type="line"/>
      <point x="836" y="10"/>
      <point x="823" y="7"/>
      <point x="811" y="7" type="curve" smooth="yes"/>
      <point x="767" y="7"/>
      <point x="726" y="36"/>
      <point x="726" y="139" type="curve" smooth="yes"/>
      <point x="726" y="530" type="line"/>
      <point x="706" y="530" type="line"/>
      <point x="706" y="118" type="line"/>
      <point x="578" y="55"/>
      <point x="487" y="10"/>
      <point x="349" y="10" type="curve" smooth="yes"/>
      <point x="212" y="10"/>
      <point x="144" y="79"/>
      <point x="144" y="177" type="curve" smooth="yes"/>
      <point x="144" y="530" type="line"/>
      <point x="124" y="530" type="line"/>
      <point x="124" y="177" type="line" smooth="yes"/>
      <point x="124" y="67"/>
      <point x="198" y="-10"/>
      <point x="349" y="-10" type="curve" smooth="yes"/>
      <point x="489" y="-10"/>
      <point x="583" y="36"/>
      <point x="708" y="99" type="curve"/>
      <point x="717" y="20"/>
      <point x="764" y="-10"/>
      <point x="806" y="-10" type="curve" smooth="yes"/>
      <point x="814" y="-10"/>
      <point x="821" y="-7"/>
      <point x="829" y="-5" type="curve"/>
      <point x="846" y="11" type="line"/>
      <point x="770" y="-6"/>
      <point x="708" y="-63"/>
      <point x="708" y="-131" type="curve" smooth="yes"/>
      <point x="708" y="-201"/>
      <point x="765" y="-221"/>
    </contour>
  </outline>
</glyph>
<glyph name="longs" format="2">
  <advance width="379"/>
  <unicode hex="017F"/>
  <outline>
    <contour>
      <point x="205" y="499" type="line"/>
      <point x="205" y="666"/>
      <point x="283" y="731"/>
      <point x="429" y="731" type="curve" smooth="yes"/>
      <point x="504" y="731"/>
      <point x="572" y="716"/>
      <point x="657" y="694" type="curve"/>
      <point x="662" y="714" type="line"/>
      <point x="568" y="739"/>
      <point x="502" y="751"/>
      <point x="425" y="751" type="curve" smooth="yes"/>
      <point x="278" y="751"/>
      <point x="185" y="686"/>
      <point x="185" y="499" type="curve" smooth="yes"/>
      <point x="185" y="484" type="line"/>
      <point x="45" y="479" type="line"/>
      <point x="45" y="464" type="line"/>
      <point x="185" y="464" type="line"/>
      <point x="185" y="0" type="line"/>
      <point x="205" y="0" type="line"/>
    </contour>
  </outline>
</glyph>
<glyph name="florin" format="2">
	<advance width="1034"/>
	<unicode hex="0192"/>
	<outline>
		<contour>
			<point x="169" y="386" type="line"/>
			<point x="166" y="366" type="line"/>
			<point x="315" y="366" type="line"/>
			<point x="224" y="-210" type="line"/>
			<point x="241" y="-210" type="line"/>
			<point x="332" y="366" type="line"/>
			<point x="847" y="366" type="line"/>
			<point x="850" y="386" type="line"/>
			<point x="335" y="386" type="line"/>
			<point x="338" y="401" type="line"/>
			<point x="366" y="578"/>
			<point x="511" y="692"/>
			<point x="708" y="692" type="curve" smooth="yes"/>
			<point x="775" y="692"/>
			<point x="856" y="682"/>
			<point x="927" y="665" type="curve"/>
			<point x="933" y="683" type="line"/>
			<point x="862" y="700"/>
			<point x="783" y="710"/>
			<point x="719" y="710" type="curve" smooth="yes"/>
			<point x="500" y="710"/>
			<point x="351" y="595"/>
			<point x="321" y="403" type="curve" smooth="yes"/>
			<point x="318" y="386" type="line"/>
		</contour>
	</outline>
</glyph>
<glyph name="uni0259" format="2">
  <advance width="856"/>
  <unicode hex="0259"/>
  <outline>
    <contour>
      <point x="65" y="222" type="curve"/>
      <point x="64" y="216"/>
      <point x="64" y="210"/>
      <point x="64" y="205" type="curve" smooth="yes"/>
      <point x="64" y="59"/>
      <point x="172" y="-10"/>
      <point x="381" y="-10" type="curve" smooth="yes"/>
      <point x="592" y="-10"/>
      <point x="782" y="77"/>
      <point x="782" y="281" type="curve" smooth="yes"/>
      <point x="782" y="452"/>
      <point x="635" y="540"/>
      <point x="444" y="540" type="curve" smooth="yes"/>
      <point x="282" y="540"/>
      <point x="142" y="514"/>
      <point x="72" y="498" type="curve"/>
      <point x="76" y="478" type="line"/>
      <point x="143" y="493"/>
      <point x="288" y="520"/>
      <point x="444" y="520" type="curve" smooth="yes"/>
      <point x="622" y="520"/>
      <point x="762" y="438"/>
      <point x="762" y="281" type="curve" smooth="yes"/>
      <point x="762" y="268"/>
      <point x="761" y="256"/>
      <point x="760" y="244" type="curve"/>
      <point x="414" y="244"/>
      <point x="129" y="225"/>
    </contour>
    <contour>
      <point x="757" y="224" type="curve"/>
      <point x="725" y="61"/>
      <point x="530" y="10"/>
      <point x="381" y="10" type="curve" smooth="yes"/>
      <point x="177" y="10"/>
      <point x="85" y="78"/>
      <point x="85" y="204" type="curve"/>
      <point x="133" y="207"/>
      <point x="412" y="224"/>
    </contour>
  </outline>
</glyph>
<glyph name="gravecomb" format="2">
	<advance width="0"/>
	<unicode hex="0300"/>
	<anchor x="-547" y="730" name="top"/>
	<anchor x="-457" y="530" name="_top"/>
	<outline>
		<contour>
			<point x="-450" y="596" type="line"/>
			<point x="-421" y="596" type="line"/>
			<point x="-643" y="790" type="line"/>
			<point x="-673" y="790" type="line"/>
		</contour>
	</outline>
</glyph>
<glyph name="uni0302" format="2">
	<advance width="0"/>
	<unicode hex="0302"/>
	<anchor x="-457" y="713" name="top"/>
	<anchor x="-457" y="530" name="_top"/>
	<anchor x="-288" y="660" name="top_viet"/>
	<outline>
		<contour>
			<point x="-684" y="596" type="line"/>
			<point x="-657" y="596" type="line"/>
			<point x="-457" y="772" type="line"/>
			<point x="-258" y="596" type="line"/>
			<point x="-230" y="596" type="line"/>
			<point x="-442" y="790" type="line"/>
			<point x="-471" y="790" type="line"/>
		</contour>
	</outline>
</glyph>
<glyph name="uni0306" format="2">
	<advance width="0"/>
	<unicode hex="0306"/>
	<anchor x="-457" y="727" name="top"/>
	<anchor x="-457" y="530" name="_top"/>
	<outline>
		<contour>
			<point x="-457" y="617" type="curve" smooth="yes"/>
			<point x="-334" y="617"/>
			<point x="-265" y="642"/>
			<point x="-242" y="735" type="curve" smooth="yes"/>
			<point x="-239" y="747"/>
			<point x="-236" y="761"/>
			<point x="-235" y="775" type="curve"/>
			<point x="-255" y="777" type="line"/>
			<point x="-256" y="766"/>
			<point x="-258" y="756"/>
			<point x="-260" y="746" type="curve" smooth="yes"/>
			<point x="-277" y="660"/>
			<point x="-343" y="637"/>
			<point x="-457" y="637" type="curve" smooth="yes"/>
			<point x="-571" y="637"/>
			<point x="-636" y="660"/>
			<point x="-655" y="747" type="curve" smooth="yes"/>
			<point x="-657" y="756"/>
			<point x="-658" y="766"/>
			<point x="-659" y="777" type="curve"/>
			<point x="-679" y="775" type="line"/>
			<point x="-678" y="761"/>
			<point x="-676" y="748"/>
			<point x="-673" y="736" type="curve" smooth="yes"/>
			<point x="-650" y="642"/>
			<point x="-580" y="617"/>
		</contour>
	</outline>
</glyph>
<glyph name="uni0307" format="2">
	<advance width="0"/>
	<unicode hex="0307"/>
	<anchor x="-457" y="662" name="top"/>
	<anchor x="-457" y="530" name="_top"/>
	<outline>
		<contour>
			<point x="-457" y="676" type="curve" smooth="yes"/>
			<point x="-443" y="676"/>
			<point x="-441" y="684"/>
			<point x="-441" y="694" type="curve" smooth="yes"/>
			<point x="-441" y="704"/>
			<point x="-443" y="712"/>
			<point x="-457" y="712" type="curve" smooth="yes"/>
			<point x="-470" y="712"/>
			<point x="-473" y="704"/>
			<point x="-473" y="694" type="curve" smooth="yes"/>
			<point x="-473" y="684"/>
			<point x="-470" y="676"/>
		</contour>
	</outline>
</glyph>
<glyph name="uni030A" format="2">
	<advance width="0"/>
	<unicode hex="030A"/>
	<anchor x="-457" y="745" name="top"/>
	<anchor x="-457" y="530" name="_top"/>
	<outline>
		<contour>
			<point x="-457" y="617" type="curve" smooth="yes"/>
			<point x="-386" y="617"/>
			<point x="-351" y="643"/>
			<point x="-351" y="695" type="curve" smooth="yes"/>
			<point x="-351" y="747"/>
			<point x="-386" y="773"/>
			<point x="-457" y="773" type="curve" smooth="yes"/>
			<point x="-528" y="773"/>
			<point x="-563" y="747"/>
			<point x="-563" y="695" type="curve" smooth="yes"/>
			<point x="-563" y="643"/>
			<point x="-528" y="617"/>
		</contour>
		<contour>
			<point x="-457" y="635" type="curve" smooth="yes"/>
			<point x="-515" y="635"/>
			<point x="-544" y="656"/>
			<point x="-544" y="695" type="curve" smooth="yes"/>
			<point x="-544" y="734"/>
			<point x="-515" y="755"/>
			<point x="-457" y="755" type="curve" smooth="yes"/>
			<point x="-399" y="755"/>
			<point x="-370" y="734"/>
			<point x="-370" y="695" type="curve" smooth="yes"/>
			<point x="-370" y="656"/>
			<point x="-399" y="635"/>
		</contour>
	</outline>
</glyph>
<glyph name="uni030B" format="2">
	<advance width="0"/>
	<unicode hex="030B"/>
	<anchor x="-351" y="790" name="top"/>
	<anchor x="-457" y="530" name="_top"/>
	<outline>
		<contour>
			<point x="-369" y="596" type="line"/>
			<point x="-341" y="596" type="line"/>
			<point x="-117" y="790" type="line"/>
			<point x="-147" y="790" type="line"/>
		</contour>
		<contour>
			<point x="-586" y="596" type="line"/>
			<point x="-558" y="596" type="line"/>
			<point x="-334" y="790" type="line"/>
			<point x="-364" y="790" type="line"/>
		</contour>
	</outline>
</glyph>
<glyph name="uni031B" format="2">
	<advance width="0"/>
	<unicode hex="031B"/>
	<anchor x="-314" y="530" name="_topright"/>
	<anchor x="-105" y="693" name="topright"/>
	<outline>
		<contour>
			<point x="-324" y="513" type="line"/>
			<point x="-314" y="513" type="line"/>
			<point x="-114" y="513"/>
			<point x="-81" y="622"/>
			<point x="-154" y="693" type="curve"/>
			<point x="-170" y="682" type="line"/>
			<point x="-102" y="612"/>
			<point x="-147" y="530"/>
			<point x="-314" y="530" type="curve"/>
			<point x="-324" y="530" type="line"/>
		</contour>
	</outline>
</glyph>
<glyph name="uni0335" format="2">
	<advance width="0"/>
	<unicode hex="0335"/>
	<anchor x="-151" y="350" name="_center"/>
	<outline>
		<contour>
			<point x="-312" y="340" type="line"/>
			<point x="9" y="340" type="line"/>
			<point x="9" y="360" type="line"/>
			<point x="-312" y="360" type="line"/>
		</contour>
	</outline>
</glyph>
<glyph name="endash" format="2">
	<advance width="508"/>
	<unicode hex="2013"/>
	<outline>
		<contour>
			<point x="24" y="255" type="line"/>
			<point x="484" y="255" type="line"/>
			<point x="484" y="275" type="line"/>
			<point x="24" y="275" type="line"/>
		</contour>
	</outline>
</glyph>
<glyph name="quoteleft" format="2">
	<advance width="201"/>
	<unicode hex="2018"/>
	<outline>
		<contour>
			<point x="59" y="430" type="curve"/>
			<point x="78" y="430" type="line"/>
			<point x="77" y="442"/>
			<point x="77" y="454"/>
			<point x="77" y="466" type="curve" smooth="yes"/>
			<point x="77" y="566"/>
			<point x="104" y="632"/>
			<point x="161" y="700" type="curve"/>
			<point x="140" y="700" type="line"/>
			<point x="83" y="632"/>
			<point x="58" y="566"/>
			<point x="58" y="466" type="curve" smooth="yes"/>
			<point x="58" y="454"/>
			<point x="58" y="442"/>
		</contour>
	</outline>
</glyph>
<glyph name="daggerdbl" format="2">
  <advance width="630"/>
  <unicode hex="2021"/>
  <outline>
    <contour>
      <point x="570" y="0" type="line"/>
      <point x="570" y="20" type="line"/>
      <point x="325" y="20" type="line"/>
      <point x="325" y="510" type="line"/>
      <point x="570" y="510" type="line"/>
      <point x="570" y="530" type="line"/>
      <point x="325" y="530" type="line"/>
      <point x="325" y="740" type="line"/>
      <point x="305" y="740" type="line"/>
      <point x="305" y="530" type="line"/>
      <point x="60" y="530" type="line"/>
      <point x="60" y="510" type="line"/>
      <point x="305" y="510" type="line"/>
      <point x="305" y="20" type="line"/>
      <point x="60" y="20" type="line"/>
      <point x="60" y="0" type="line"/>
      <point x="305" y="0" type="line"/>
      <point x="305" y="-210" type="line"/>
      <point x="325" y="-210" type="line"/>
      <point x="325" y="0" type="line"/>
    </contour>
  </outline>
</glyph>
<glyph name="bullet" format="2">
	<advance width="340"/>
	<unicode hex="2022"/>
	<outline>
		<contour>
			<point x="170" y="200" type="curve" smooth="yes"/>
			<point x="234" y="200"/>
			<point x="286" y="252"/>
			<point x="286" y="316" type="curve" smooth="yes"/>
			<point x="286" y="380"/>
			<point x="234" y="432"/>
			<point x="170" y="432" type="curve" smooth="yes"/>
			<point x="106" y="432"/>
			<point x="54" y="380"/>
			<point x="54" y="316" type="curve" smooth="yes"/>
			<point x="54" y="252"/>
			<point x="106" y="200"/>
		</contour>
	</outline>
</glyph>
<glyph name="guilsinglright" format="2">
  <advance width="400"/>
  <unicode hex="203A"/>
  <outline>
    <contour>
      <point x="355" y="282" type="line"/>
      <point x="57" y="536" type="line"/>
      <point x="45" y="520" type="line"/>
      <point x="336" y="272" type="line"/>
      <point x="45" y="24" type="line"/>
      <point x="57" y="8" type="line"/>
      <point x="355" y="262" type="line"/>
    </contour>
  </outline>
</glyph>
<glyph name="fraction" format="2">
  <advance width="160"/>
  <unicode hex="2044"/>
  <outline>
    <contour>
      <point x="-141" y="-10" type="line"/>
      <point x="318" y="728" type="line"/>
      <point x="301" y="738" type="line"/>
      <point x="-158" y="0" type="line"/>
    </contour>
  </outline>
</glyph>
<glyph name="uni2052" format="2">
  <advance width="1034"/>
  <unicode hex="2052"/>
  <outline>
    <contour>
      <point x="123" y="12" type="line"/>
      <point x="136" y="-2" type="line"/>
      <point x="912" y="688" type="line"/>
      <point x="899" y="702" type="line"/>
    </contour>
    <contour>
      <point x="141" y="683" type="curve" smooth="yes"/>
      <point x="141" y="667"/>
      <point x="143" y="666"/>
      <point x="158" y="666" type="curve" smooth="yes"/>
      <point x="174" y="666"/>
      <point x="175" y="667"/>
      <point x="175" y="683" type="curve" smooth="yes"/>
      <point x="175" y="699"/>
      <point x="174" y="700"/>
      <point x="158" y="700" type="curve" smooth="yes"/>
      <point x="142" y="700"/>
      <point x="141" y="699"/>
    </contour>
    <contour>
      <point x="860" y="17" type="curve" smooth="yes"/>
      <point x="860" y="1"/>
      <point x="862" y="0"/>
      <point x="877" y="0" type="curve" smooth="yes"/>
      <point x="893" y="0"/>
      <point x="894" y="1"/>
      <point x="894" y="17" type="curve" smooth="yes"/>
      <point x="894" y="33"/>
      <point x="893" y="34"/>
      <point x="877" y="34" type="curve" smooth="yes"/>
      <point x="861" y="34"/>
      <point x="860" y="33"/>
    </contour>
  </outline>
</glyph>
<glyph name="uni2070" format="2">
	<advance width="615"/>
	<unicode hex="2070"/>
	<outline>
		<contour>
			<point x="31" y="565" type="curve" smooth="yes"/>
			<point x="31" y="405"/>
			<point x="161" y="360"/>
			<point x="308" y="360" type="curve" smooth="yes"/>
			<point x="453" y="360"/>
			<point x="584" y="405"/>
			<point x="584" y="565" type="curve" smooth="yes"/>
			<point x="584" y="726"/>
			<point x="453" y="771"/>
			<point x="308" y="771" type="curve" smooth="yes"/>
			<point x="161" y="771"/>
			<point x="31" y="726"/>
		</contour>
		<contour>
			<point x="51" y="565" type="curve" smooth="yes"/>
			<point x="51" y="712"/>
			<point x="171" y="754"/>
			<point x="308" y="754" type="curve" smooth="yes"/>
			<point x="443" y="754"/>
			<point x="564" y="712"/>
			<point x="564" y="565" type="curve" smooth="yes"/>
			<point x="564" y="418"/>
			<point x="443" y="376"/>
			<point x="308" y="376" type="curve" smooth="yes"/>
			<point x="171" y="376"/>
			<point x="51" y="418"/>
		</contour>
	</outline>
</glyph>
<glyph name="uni2076" format="2">
  <advance width="591"/>
  <unicode hex="2076"/>
  <outline>
    <contour>
      <point x="317" y="360" type="curve" smooth="yes"/>
      <point x="431" y="360"/>
      <point x="571" y="388"/>
      <point x="571" y="495" type="curve" smooth="yes"/>
      <point x="571" y="586"/>
      <point x="463" y="616"/>
      <point x="339" y="616" type="curve" smooth="yes"/>
      <point x="223" y="616"/>
      <point x="99" y="588"/>
      <point x="37" y="549" type="curve"/>
      <point x="39" y="534" type="line"/>
      <point x="95" y="572"/>
      <point x="218" y="600"/>
      <point x="337" y="600" type="curve" smooth="yes"/>
      <point x="450" y="600"/>
      <point x="552" y="576"/>
      <point x="552" y="497" type="curve" smooth="yes"/>
      <point x="552" y="402"/>
      <point x="424" y="376"/>
      <point x="318" y="376" type="curve" smooth="yes"/>
      <point x="143" y="376"/>
      <point x="51" y="436"/>
      <point x="51" y="560" type="curve" smooth="yes"/>
      <point x="51" y="699"/>
      <point x="169" y="753"/>
      <point x="332" y="753" type="curve" smooth="yes"/>
      <point x="414" y="753"/>
      <point x="472" y="745"/>
      <point x="539" y="729" type="curve"/>
      <point x="542" y="746" type="line"/>
      <point x="476" y="762"/>
      <point x="416" y="770"/>
      <point x="331" y="770" type="curve" smooth="yes"/>
      <point x="178" y="770"/>
      <point x="31" y="723"/>
      <point x="31" y="564" type="curve" smooth="yes"/>
      <point x="31" y="405"/>
      <point x="158" y="360"/>
    </contour>
  </outline>
</glyph>
<glyph name="uni2078" format="2">
	<advance width="613"/>
	<unicode hex="2078"/>
	<outline>
		<contour>
			<point x="305" y="360" type="curve" smooth="yes"/>
			<point x="482" y="360"/>
			<point x="580" y="399"/>
			<point x="580" y="477" type="curve" smooth="yes"/>
			<point x="580" y="663"/>
			<point x="80" y="523"/>
			<point x="80" y="671" type="curve" smooth="yes"/>
			<point x="80" y="724"/>
			<point x="160" y="754"/>
			<point x="303" y="754" type="curve" smooth="yes"/>
			<point x="447" y="754"/>
			<point x="525" y="724"/>
			<point x="525" y="670" type="curve" smooth="yes"/>
			<point x="525" y="627"/>
			<point x="491" y="597"/>
			<point x="406" y="571" type="curve"/>
			<point x="436" y="567" type="line"/>
			<point x="506" y="588"/>
			<point x="545" y="625"/>
			<point x="545" y="670" type="curve" smooth="yes"/>
			<point x="545" y="735"/>
			<point x="461" y="770"/>
			<point x="303" y="770" type="curve" smooth="yes"/>
			<point x="146" y="770"/>
			<point x="60" y="735"/>
			<point x="60" y="670" type="curve" smooth="yes"/>
			<point x="60" y="500"/>
			<point x="560" y="640"/>
			<point x="560" y="477" type="curve" smooth="yes"/>
			<point x="560" y="407"/>
			<point x="465" y="375"/>
			<point x="306" y="375" type="curve" smooth="yes"/>
			<point x="160" y="375"/>
			<point x="53" y="404"/>
			<point x="53" y="479" type="curve" smooth="yes"/>
			<point x="53" y="529"/>
			<point x="104" y="570"/>
			<point x="200" y="594" type="curve"/>
			<point x="165" y="597" type="line"/>
			<point x="78" y="573"/>
			<point x="33" y="527"/>
			<point x="33" y="479" type="curve" smooth="yes"/>
			<point x="33" y="391"/>
			<point x="142" y="360"/>
		</contour>
	</outline>
</glyph>
<glyph name="uni2079" format="2">
  <advance width="602"/>
  <unicode hex="2079"/>
  <outline>
    <contour>
      <point x="282" y="360" type="curve" smooth="yes"/>
      <point x="429" y="360"/>
      <point x="571" y="406"/>
      <point x="571" y="566" type="curve" smooth="yes"/>
      <point x="571" y="724"/>
      <point x="445" y="770"/>
      <point x="300" y="770" type="curve" smooth="yes"/>
      <point x="173" y="770"/>
      <point x="30" y="744"/>
      <point x="30" y="637" type="curve" smooth="yes"/>
      <point x="30" y="547"/>
      <point x="142" y="513"/>
      <point x="263" y="513" type="curve" smooth="yes"/>
      <point x="374" y="513"/>
      <point x="491" y="539"/>
      <point x="552" y="574" type="curve"/>
      <point x="552" y="428"/>
      <point x="438" y="377"/>
      <point x="280" y="377" type="curve" smooth="yes"/>
      <point x="203" y="377"/>
      <point x="116" y="389"/>
      <point x="64" y="401" type="curve"/>
      <point x="61" y="385" type="line"/>
      <point x="116" y="371"/>
      <point x="205" y="360"/>
    </contour>
    <contour>
      <point x="266" y="530" type="curve" smooth="yes"/>
      <point x="153" y="530"/>
      <point x="49" y="558"/>
      <point x="49" y="637" type="curve" smooth="yes"/>
      <point x="49" y="731"/>
      <point x="184" y="753"/>
      <point x="299" y="753" type="curve" smooth="yes"/>
      <point x="429" y="753"/>
      <point x="539" y="717"/>
      <point x="551" y="590" type="curve"/>
      <point x="495" y="556"/>
      <point x="378" y="530"/>
    </contour>
  </outline>
</glyph>
<glyph name="uni207E" format="2">
  <advance width="256"/>
  <unicode hex="207E"/>
  <outline>
    <contour>
      <point x="23" y="281" type="line"/>
      <point x="135" y="304"/>
      <point x="183" y="426"/>
      <point x="183" y="558" type="curve" smooth="yes"/>
      <point x="183" y="691"/>
      <point x="135" y="812"/>
      <point x="23" y="835" type="curve"/>
      <point x="23" y="817" type="line"/>
      <point x="120" y="797"/>
      <point x="166" y="683"/>
      <point x="166" y="558" type="curve" smooth="yes"/>
      <point x="166" y="434"/>
      <point x="121" y="319"/>
      <point x="23" y="296" type="curve"/>
    </contour>
  </outline>
</glyph>
<glyph name="colonmonetary" format="2">
	<advance width="1034"/>
	<unicode hex="20A1"/>
	<outline>
		<contour>
			<point x="573" y="-10" type="curve" smooth="yes"/>
			<point x="724" y="-10"/>
			<point x="868" y="9"/>
			<point x="987" y="45" type="curve"/>
			<point x="979" y="65" type="line"/>
			<point x="860" y="29"/>
			<point x="718" y="10"/>
			<point x="571" y="10" type="curve" smooth="yes"/>
			<point x="261" y="10"/>
			<point x="91" y="125"/>
			<point x="91" y="336" type="curve" smooth="yes"/>
			<point x="91" y="561"/>
			<point x="274" y="690"/>
			<point x="594" y="690" type="curve" smooth="yes"/>
			<point x="730" y="690"/>
			<point x="825" y="679"/>
			<point x="937" y="649" type="curve"/>
			<point x="942" y="669" type="line"/>
			<point x="829" y="699"/>
			<point x="733" y="710"/>
			<point x="592" y="710" type="curve" smooth="yes"/>
			<point x="259" y="710"/>
			<point x="71" y="576"/>
			<point x="71" y="338" type="curve" smooth="yes"/>
			<point x="71" y="114"/>
			<point x="250" y="-10"/>
		</contour>
		<contour>
			<point x="545" y="700" type="line"/>
			<point x="565" y="698" type="line"/>
			<point x="577" y="805" type="line"/>
			<point x="557" y="805" type="line"/>
		</contour>
		<contour>
			<point x="685" y="699" type="line"/>
			<point x="705" y="698" type="line"/>
			<point x="717" y="805" type="line"/>
			<point x="697" y="805" type="line"/>
		</contour>
		<contour>
			<point x="461" y="-105" type="line"/>
			<point x="481" y="-105" type="line"/>
			<point x="493" y="8" type="line"/>
			<point x="473" y="8" type="line"/>
		</contour>
		<contour>
			<point x="601" y="-105" type="line"/>
			<point x="621" y="-105" type="line"/>
			<point x="632" y="-5" type="line"/>
			<point x="612" y="-5" type="line"/>
		</contour>
	</outline>
</glyph>
<glyph name="uni20AD" format="2">
	<advance width="1034"/>
	<unicode hex="20AD"/>
	<outline>
		<contour>
			<point x="989" y="-10" type="curve" smooth="yes"/>
			<point x="993" y="-10"/>
			<point x="1000" y="-10"/>
			<point x="1006" y="-9" type="curve"/>
			<point x="1006" y="11" type="line"/>
			<point x="1001" y="10"/>
			<point x="995" y="10"/>
			<point x="991" y="10" type="curve" smooth="yes"/>
			<point x="903" y="10"/>
			<point x="843" y="40"/>
			<point x="669" y="126" type="curve" smooth="yes"/>
			<point x="233" y="342" type="line"/>
			<point x="960" y="342" type="line"/>
			<point x="960" y="362" type="line"/>
			<point x="247" y="362" type="line"/>
			<point x="531" y="447"/>
			<point x="771" y="562"/>
			<point x="962" y="694" type="curve"/>
			<point x="946" y="706" type="line"/>
			<point x="742" y="566"/>
			<point x="485" y="448"/>
			<point x="192" y="364" type="curve"/>
			<point x="192" y="700" type="line"/>
			<point x="172" y="700" type="line"/>
			<point x="172" y="362" type="line"/>
			<point x="31" y="362" type="line"/>
			<point x="31" y="342" type="line"/>
			<point x="172" y="342" type="line"/>
			<point x="172" y="0" type="line"/>
			<point x="192" y="0" type="line"/>
			<point x="192" y="342" type="line"/>
			<point x="664" y="105" type="line" smooth="yes"/>
			<point x="832" y="21"/>
			<point x="898" y="-10"/>
		</contour>
	</outline>
</glyph>
<glyph name="uni20B5" format="2">
	<advance width="1034"/>
	<unicode hex="20B5"/>
	<outline>
		<contour>
			<point x="71" y="337" type="curve" smooth="yes"/>
			<point x="71" y="113"/>
			<point x="249" y="-10"/>
			<point x="572" y="-10" type="curve" smooth="yes"/>
			<point x="723" y="-10"/>
			<point x="867" y="9"/>
			<point x="986" y="45" type="curve"/>
			<point x="980" y="65" type="line"/>
			<point x="861" y="29"/>
			<point x="719" y="10"/>
			<point x="572" y="10" type="curve" smooth="yes"/>
			<point x="262" y="10"/>
			<point x="91" y="126"/>
			<point x="91" y="337" type="curve" smooth="yes"/>
			<point x="91" y="562"/>
			<point x="273" y="690"/>
			<point x="593" y="690" type="curve" smooth="yes"/>
			<point x="729" y="690"/>
			<point x="824" y="679"/>
			<point x="936" y="649" type="curve"/>
			<point x="942" y="669" type="line"/>
			<point x="830" y="699"/>
			<point x="734" y="710"/>
			<point x="593" y="710" type="curve" smooth="yes"/>
			<point x="260" y="710"/>
			<point x="71" y="575"/>
		</contour>
		<contour>
			<point x="569" y="-105" type="line"/>
			<point x="589" y="-105" type="line"/>
			<point x="589" y="-5" type="line"/>
			<point x="569" y="-5" type="line"/>
		</contour>
		<contour>
			<point x="569" y="705" type="line"/>
			<point x="589" y="705" type="line"/>
			<point x="589" y="805" type="line"/>
			<point x="569" y="805" type="line"/>
		</contour>
	</outline>
</glyph>
<glyph name="uni20BC" format="2">
	<advance width="1034"/>
	<unicode hex="20BC"/>
	<outline>
		<contour>
			<point x="55" y="0" type="curve"/>
			<point x="75" y="0" type="line"/>
			<point x="74" y="13"/>
			<point x="73" y="26"/>
			<point x="73" y="40" type="curve" smooth="yes"/>
			<point x="73" y="524"/>
			<point x="283" y="610"/>
			<point x="517" y="610" type="curve" smooth="yes"/>
			<point x="751" y="610"/>
			<point x="961" y="524"/>
			<point x="961" y="40" type="curve" smooth="yes"/>
			<point x="961" y="26"/>
			<point x="960" y="13"/>
			<point x="959" y="0" type="curve"/>
			<point x="979" y="0" type="line"/>
			<point x="980" y="13"/>
			<point x="981" y="26"/>
			<point x="981" y="40" type="curve" smooth="yes"/>
			<point x="981" y="540"/>
			<point x="761" y="630"/>
			<point x="517" y="630" type="curve" smooth="yes"/>
			<point x="273" y="630"/>
			<point x="53" y="540"/>
			<point x="53" y="40" type="curve" smooth="yes"/>
			<point x="53" y="26"/>
			<point x="54" y="13"/>
		</contour>
		<contour>
			<point x="507" y="75" type="line"/>
			<point x="527" y="75" type="line"/>
			<point x="527" y="710" type="line"/>
			<point x="507" y="710" type="line"/>
		</contour>
	</outline>
</glyph>
<glyph name="uni20BD" format="2">
	<advance width="1034"/>
	<unicode hex="20BD"/>
	<outline>
		<contour>
			<point x="192" y="0" type="line"/>
			<point x="212" y="0" type="line"/>
			<point x="212" y="288" type="line"/>
			<point x="585" y="288" type="line" smooth="yes"/>
			<point x="852" y="288"/>
			<point x="970" y="332"/>
			<point x="970" y="503" type="curve" smooth="yes"/>
			<point x="970" y="648"/>
			<point x="886" y="710"/>
			<point x="560" y="710" type="curve" smooth="yes"/>
			<point x="496" y="710"/>
			<point x="414" y="708"/>
			<point x="192" y="700" type="curve"/>
		</contour>
		<contour>
			<point x="212" y="308" type="line"/>
			<point x="212" y="680" type="line"/>
			<point x="418" y="688"/>
			<point x="494" y="690"/>
			<point x="560" y="690" type="curve" smooth="yes"/>
			<point x="864" y="690"/>
			<point x="950" y="637"/>
			<point x="950" y="503" type="curve" smooth="yes"/>
			<point x="950" y="357"/>
			<point x="858" y="308"/>
			<point x="585" y="308" type="curve" smooth="yes"/>
		</contour>
		<contour>
			<point x="47" y="288" type="line"/>
			<point x="196" y="288" type="line"/>
			<point x="196" y="308" type="line"/>
			<point x="47" y="308" type="line"/>
		</contour>
		<contour>
			<point x="47" y="158" type="line"/>
			<point x="683" y="158" type="line"/>
			<point x="683" y="178" type="line"/>
			<point x="47" y="178" type="line"/>
		</contour>
	</outline>
</glyph>
<glyph name="uni2117" format="2">
  <advance width="1114"/>
  <unicode hex="2117"/>
  <outline>
    <contour>
      <point x="397" y="179" type="line"/>
      <point x="417" y="179" type="line"/>
      <point x="417" y="302" type="line"/>
      <point x="490" y="300"/>
      <point x="518" y="300"/>
      <point x="574" y="300" type="curve" smooth="yes"/>
      <point x="717" y="300"/>
      <point x="770" y="322"/>
      <point x="770" y="407" type="curve" smooth="yes"/>
      <point x="770" y="478"/>
      <point x="733" y="509"/>
      <point x="563" y="509" type="curve" smooth="yes"/>
      <point x="534" y="509"/>
      <point x="497" y="508"/>
      <point x="397" y="504" type="curve"/>
    </contour>
    <contour>
      <point x="417" y="484" type="line"/>
      <point x="510" y="488"/>
      <point x="533" y="489"/>
      <point x="563" y="489" type="curve" smooth="yes"/>
      <point x="723" y="489"/>
      <point x="750" y="473"/>
      <point x="750" y="407" type="curve" smooth="yes"/>
      <point x="750" y="337"/>
      <point x="720" y="320"/>
      <point x="574" y="320" type="curve" smooth="yes"/>
      <point x="508" y="320"/>
      <point x="486" y="321"/>
      <point x="417" y="323" type="curve"/>
    </contour>
    <contour>
      <point x="73" y="350" type="curve" smooth="yes"/>
      <point x="73" y="69"/>
      <point x="302" y="-10"/>
      <point x="557" y="-10" type="curve" smooth="yes"/>
      <point x="812" y="-10"/>
      <point x="1041" y="69"/>
      <point x="1041" y="350" type="curve" smooth="yes"/>
      <point x="1041" y="631"/>
      <point x="812" y="710"/>
      <point x="557" y="710" type="curve" smooth="yes"/>
      <point x="302" y="710"/>
      <point x="73" y="631"/>
    </contour>
    <contour>
      <point x="93" y="350" type="curve" smooth="yes"/>
      <point x="93" y="615"/>
      <point x="312" y="690"/>
      <point x="557" y="690" type="curve" smooth="yes"/>
      <point x="802" y="690"/>
      <point x="1021" y="615"/>
      <point x="1021" y="350" type="curve" smooth="yes"/>
      <point x="1021" y="85"/>
      <point x="802" y="10"/>
      <point x="557" y="10" type="curve" smooth="yes"/>
      <point x="312" y="10"/>
      <point x="93" y="85"/>
    </contour>
  </outline>
</glyph>
<glyph name="trademark" format="2">
	<advance width="1105"/>
	<unicode hex="2122"/>
	<outline>
		<contour>
			<point x="402" y="680" type="line"/>
			<point x="402" y="700" type="line"/>
			<point x="22" y="700" type="line"/>
			<point x="22" y="680" type="line"/>
			<point x="202" y="680" type="line"/>
			<point x="202" y="381" type="line"/>
			<point x="222" y="381" type="line"/>
			<point x="222" y="680" type="line"/>
		</contour>
		<contour>
			<point x="492" y="381" type="line"/>
			<point x="512" y="381" type="line"/>
			<point x="512" y="676" type="line"/>
			<point x="749" y="503" type="line"/>
			<point x="757" y="503" type="line"/>
			<point x="995" y="675" type="line"/>
			<point x="995" y="381" type="line"/>
			<point x="1015" y="381" type="line"/>
			<point x="1015" y="700" type="line"/>
			<point x="997" y="700" type="line"/>
			<point x="753" y="524" type="line"/>
			<point x="510" y="700" type="line"/>
			<point x="492" y="700" type="line"/>
		</contour>
	</outline>
</glyph>
<glyph name="uni2126" format="2">
  <advance width="1273"/>
  <unicode hex="2126"/>
  <outline>
    <contour>
      <point x="99" y="0" type="line"/>
      <point x="490" y="0" type="line"/>
      <point x="490" y="15" type="line"/>
      <point x="302" y="42"/>
      <point x="121" y="133"/>
      <point x="121" y="350" type="curve" smooth="yes"/>
      <point x="121" y="636"/>
      <point x="410" y="690"/>
      <point x="636" y="690" type="curve" smooth="yes"/>
      <point x="863" y="690"/>
      <point x="1153" y="637"/>
      <point x="1153" y="350" type="curve" smooth="yes"/>
      <point x="1153" y="127"/>
      <point x="980" y="41"/>
      <point x="796" y="15" type="curve"/>
      <point x="796" y="0" type="line"/>
      <point x="1174" y="0" type="line"/>
      <point x="1174" y="20" type="line"/>
      <point x="897" y="20" type="line"/>
      <point x="1051" y="61"/>
      <point x="1174" y="155"/>
      <point x="1174" y="355" type="curve" smooth="yes"/>
      <point x="1174" y="652"/>
      <point x="869" y="710"/>
      <point x="636" y="710" type="curve" smooth="yes"/>
      <point x="399" y="710"/>
      <point x="101" y="648"/>
      <point x="101" y="350" type="curve" smooth="yes"/>
      <point x="101" y="160"/>
      <point x="233" y="63"/>
      <point x="391" y="20" type="curve"/>
      <point x="99" y="20" type="line"/>
    </contour>
  </outline>
</glyph>
<glyph name="estimated" format="2">
	<advance width="820"/>
	<unicode hex="212E"/>
	<outline>
		<contour>
			<point x="165" y="114" type="curve"/>
			<point x="165" y="339" type="line"/>
			<point x="770" y="339" type="line"/>
			<point x="770" y="343"/>
			<point x="770" y="346"/>
			<point x="770" y="350" type="curve" smooth="yes"/>
			<point x="770" y="548"/>
			<point x="608" y="710"/>
			<point x="410" y="710" type="curve" smooth="yes"/>
			<point x="211" y="710"/>
			<point x="50" y="548"/>
			<point x="50" y="350" type="curve" smooth="yes"/>
			<point x="50" y="151"/>
			<point x="211" y="-10"/>
			<point x="410" y="-10" type="curve" smooth="yes"/>
			<point x="563" y="-10"/>
			<point x="688" y="84"/>
			<point x="742" y="212" type="curve"/>
			<point x="720" y="212" type="line"/>
			<point x="668" y="95"/>
			<point x="552" y="10"/>
			<point x="410" y="10" type="curve" smooth="yes"/>
			<point x="313" y="10"/>
			<point x="227" y="50"/>
		</contour>
		<contour>
			<point x="165" y="359" type="line"/>
			<point x="165" y="585" type="line"/>
			<point x="227" y="649"/>
			<point x="313" y="690"/>
			<point x="410" y="690" type="curve" smooth="yes"/>
			<point x="512" y="690"/>
			<point x="603" y="644"/>
			<point x="666" y="573" type="curve"/>
			<point x="666" y="359" type="line"/>
		</contour>
	</outline>
</glyph>
<glyph name="arrowright" format="2">
	<advance width="700"/>
	<unicode hex="2192"/>
	<outline>
		<contour>
			<point x="30" y="279" type="line"/>
			<point x="628" y="279" type="line"/>
			<point x="438" y="98" type="line"/>
			<point x="453" y="83" type="line"/>
			<point x="670" y="289" type="line"/>
			<point x="453" y="495" type="line"/>
			<point x="438" y="480" type="line"/>
			<point x="628" y="299" type="line"/>
			<point x="30" y="299" type="line"/>
		</contour>
	</outline>
</glyph>
<glyph name="arrowdown" format="2">
	<advance width="500"/>
	<unicode hex="2193"/>
	<outline>
		<contour>
			<point x="240" y="629" type="line"/>
			<point x="240" y="31" type="line"/>
			<point x="59" y="221" type="line"/>
			<point x="44" y="206" type="line"/>
			<point x="250" y="-11" type="line"/>
			<point x="456" y="206" type="line"/>
			<point x="441" y="221" type="line"/>
			<point x="260" y="31" type="line"/>
			<point x="260" y="629" type="line"/>
		</contour>
	</outline>
</glyph>
<glyph name="uni2197" format="2">
	<advance width="507"/>
	<unicode hex="2197"/>
	<outline>
		<contour>
			<point x="463" y="145" type="line"/>
			<point x="463" y="445" type="line"/>
			<point x="163" y="444" type="line"/>
			<point x="163" y="423" type="line"/>
			<point x="427" y="423" type="line"/>
			<point x="44" y="41" type="line"/>
			<point x="59" y="26" type="line"/>
			<point x="441" y="409" type="line"/>
			<point x="441" y="145" type="line"/>
		</contour>
	</outline>
</glyph>
<glyph name="uni2198" format="2">
	<advance width="507"/>
	<unicode hex="2198"/>
	<outline>
		<contour>
			<point x="59" y="545" type="line"/>
			<point x="44" y="530" type="line"/>
			<point x="427" y="148" type="line"/>
			<point x="163" y="148" type="line"/>
			<point x="163" y="127" type="line"/>
			<point x="463" y="126" type="line"/>
			<point x="463" y="426" type="line"/>
			<point x="441" y="426" type="line"/>
			<point x="441" y="162" type="line"/>
		</contour>
	</outline>
</glyph>
<glyph name="partialdiff" format="2">
  <advance width="1067"/>
  <unicode hex="2202"/>
  <outline>
    <contour>
      <point x="492" y="-10" type="curve" smooth="yes"/>
      <point x="802" y="-10"/>
      <point x="982" y="87"/>
      <point x="982" y="350" type="curve" smooth="yes"/>
      <point x="982" y="631"/>
      <point x="725" y="710"/>
      <point x="493" y="710" type="curve" smooth="yes"/>
      <point x="379" y="710"/>
      <point x="229" y="694"/>
      <point x="139" y="677" type="curve"/>
      <point x="143" y="657" type="line"/>
      <point x="217" y="671"/>
      <point x="384" y="690"/>
      <point x="493" y="690" type="curve" smooth="yes"/>
      <point x="713" y="690"/>
      <point x="962" y="607"/>
      <point x="962" y="356" type="curve" smooth="yes"/>
      <point x="962" y="111"/>
      <point x="807" y="10"/>
      <point x="492" y="10" type="curve" smooth="yes"/>
      <point x="332" y="10"/>
      <point x="53" y="48"/>
      <point x="53" y="218" type="curve" smooth="yes"/>
      <point x="53" y="391"/>
      <point x="275" y="420"/>
      <point x="477" y="420" type="curve" smooth="yes"/>
      <point x="641" y="420"/>
      <point x="846" y="377"/>
      <point x="968" y="309" type="curve"/>
      <point x="968" y="329" type="line"/>
      <point x="866" y="381"/>
      <point x="686" y="440"/>
      <point x="477" y="440" type="curve" smooth="yes"/>
      <point x="265" y="440"/>
      <point x="33" y="405"/>
      <point x="33" y="218" type="curve" smooth="yes"/>
      <point x="33" y="36"/>
      <point x="307" y="-10"/>
    </contour>
  </outline>
</glyph>
<glyph name="summation" format="2">
	<advance width="792"/>
	<unicode hex="2211"/>
	<outline>
		<contour>
			<point x="17" y="-210" type="line"/>
			<point x="776" y="-210" type="line"/>
			<point x="776" y="-190" type="line"/>
			<point x="50" y="-190" type="line"/>
			<point x="715" y="276" type="line"/>
			<point x="715" y="300" type="line"/>
			<point x="55" y="680" type="line"/>
			<point x="747" y="680" type="line"/>
			<point x="747" y="700" type="line"/>
			<point x="17" y="700" type="line"/>
			<point x="17" y="680" type="line"/>
			<point x="698" y="286" type="line"/>
			<point x="17" y="-190" type="line"/>
		</contour>
	</outline>
</glyph>
<glyph name="infinity" format="2">
	<advance width="780"/>
	<unicode hex="221E"/>
	<outline>
		<contour>
			<point x="166" y="208" type="curve" smooth="yes"/>
			<point x="269" y="208"/>
			<point x="323" y="270"/>
			<point x="391" y="340" type="curve"/>
			<point x="462" y="272"/>
			<point x="513" y="208"/>
			<point x="602" y="208" type="curve" smooth="yes"/>
			<point x="686" y="208"/>
			<point x="748" y="266"/>
			<point x="748" y="355" type="curve" smooth="yes"/>
			<point x="748" y="447"/>
			<point x="686" y="497"/>
			<point x="614" y="497" type="curve" smooth="yes"/>
			<point x="517" y="497"/>
			<point x="459" y="437"/>
			<point x="388" y="365" type="curve"/>
			<point x="318" y="433"/>
			<point x="267" y="498"/>
			<point x="178" y="498" type="curve" smooth="yes"/>
			<point x="94" y="498"/>
			<point x="32" y="428"/>
			<point x="32" y="351" type="curve" smooth="yes"/>
			<point x="32" y="260"/>
			<point x="94" y="208"/>
		</contour>
		<contour>
			<point x="614" y="477" type="curve" smooth="yes"/>
			<point x="674" y="477"/>
			<point x="728" y="434"/>
			<point x="728" y="355" type="curve" smooth="yes"/>
			<point x="728" y="286"/>
			<point x="675" y="228"/>
			<point x="602" y="228" type="curve" smooth="yes"/>
			<point x="530" y="228"/>
			<point x="483" y="276"/>
			<point x="405" y="355" type="curve"/>
			<point x="478" y="429"/>
			<point x="535" y="477"/>
		</contour>
		<contour>
			<point x="166" y="228" type="curve" smooth="yes"/>
			<point x="106" y="228"/>
			<point x="52" y="270"/>
			<point x="52" y="351" type="curve" smooth="yes"/>
			<point x="52" y="420"/>
			<point x="105" y="478"/>
			<point x="178" y="478" type="curve" smooth="yes"/>
			<point x="250" y="478"/>
			<point x="296" y="429"/>
			<point x="374" y="351" type="curve"/>
			<point x="304" y="279"/>
			<point x="256" y="228"/>
		</contour>
	</outline>
</glyph>
<glyph name="lessequal" format="2">
	<advance width="560"/>
	<unicode hex="2264"/>
	<outline>
		<contour>
			<point x="497" y="108" type="line"/>
			<point x="497" y="129" type="line"/>
			<point x="85" y="308" type="line"/>
			<point x="497" y="487" type="line"/>
			<point x="497" y="509" type="line"/>
			<point x="63" y="318" type="line"/>
			<point x="63" y="298" type="line"/>
		</contour>
		<contour>
			<point x="63" y="72" type="line"/>
			<point x="497" y="72" type="line"/>
			<point x="497" y="92" type="line"/>
			<point x="63" y="92" type="line"/>
		</contour>
	</outline>
</glyph>
<glyph name="filledbox" format="2">
	<advance width="694"/>
	<unicode hex="25A0"/>
	<outline>
		<contour>
			<point x="139" y="117" type="line"/>
			<point x="556" y="117" type="line"/>
			<point x="556" y="534" type="line"/>
			<point x="139" y="534" type="line"/>
		</contour>
	</outline>
</glyph>
<glyph name="uni25A1" format="2">
	<advance width="694"/>
	<unicode hex="25A1"/>
	<outline>
		<contour>
			<point x="139" y="117" type="line"/>
			<point x="556" y="117" type="line"/>
			<point x="556" y="534" type="line"/>
			<point x="139" y="534" type="line"/>
		</contour>
		<contour>
			<point x="159" y="137" type="line"/>
			<point x="159" y="514" type="line"/>
			<point x="536" y="514" type="line"/>
			<point x="536" y="137" type="line"/>
		</contour>
	</outline>
</glyph>
<glyph name="triagup" format="2">
	<advance width="694"/>
	<unicode hex="25B2"/>
	<outline>
		<contour>
			<point x="113" y="42" type="line"/>
			<point x="582" y="42" type="line"/>
			<point x="348" y="556" type="line"/>
		</contour>
	</outline>
</glyph>
<glyph name="uni25B6" format="2">
	<advance width="694"/>
	<unicode hex="25B6"/>
	<outline>
		<contour>
			<point x="120" y="65" type="line"/>
			<point x="634" y="299" type="line"/>
			<point x="120" y="534" type="line"/>
		</contour>
	</outline>
</glyph>
<glyph name="uni25BD" format="2">
	<advance width="694"/>
	<unicode hex="25BD"/>
	<outline>
		<contour>
			<point x="348" y="42" type="line"/>
			<point x="582" y="556" type="line"/>
			<point x="113" y="556" type="line"/>
		</contour>
		<contour>
			<point x="348" y="89" type="line"/>
			<point x="144" y="536" type="line"/>
			<point x="551" y="536" type="line"/>
		</contour>
	</outline>
</glyph>
<glyph name="uni25C1" format="2">
	<advance width="694"/>
	<unicode hex="25C1"/>
	<outline>
		<contour>
			<point x="60" y="299" type="line"/>
			<point x="574" y="65" type="line"/>
			<point x="574" y="534" type="line"/>
		</contour>
		<contour>
			<point x="107" y="299" type="line"/>
			<point x="554" y="503" type="line"/>
			<point x="554" y="96" type="line"/>
		</contour>
	</outline>
</glyph>
<glyph name="circle" format="2">
	<advance width="694"/>
	<unicode hex="25CB"/>
	<outline>
		<contour>
			<point x="107" y="320" type="curve" smooth="yes"/>
			<point x="107" y="188"/>
			<point x="214" y="81"/>
			<point x="346" y="81" type="curve" smooth="yes"/>
			<point x="478" y="81"/>
			<point x="586" y="188"/>
			<point x="586" y="320" type="curve" smooth="yes"/>
			<point x="586" y="452"/>
			<point x="478" y="560"/>
			<point x="346" y="560" type="curve" smooth="yes"/>
			<point x="214" y="560"/>
			<point x="107" y="452"/>
		</contour>
		<contour>
			<point x="127" y="320" type="curve" smooth="yes"/>
			<point x="127" y="441"/>
			<point x="225" y="540"/>
			<point x="346" y="540" type="curve" smooth="yes"/>
			<point x="467" y="540"/>
			<point x="566" y="441"/>
			<point x="566" y="320" type="curve" smooth="yes"/>
			<point x="566" y="199"/>
			<point x="467" y="101"/>
			<point x="346" y="101" type="curve" smooth="yes"/>
			<point x="225" y="101"/>
			<point x="127" y="199"/>
		</contour>
	</outline>
</glyph>
<glyph name="uni25CF" format="2">
	<advance width="694"/>
	<unicode hex="25CF"/>
	<outline>
		<contour>
			<point x="107" y="320" type="curve" smooth="yes"/>
			<point x="107" y="188"/>
			<point x="214" y="81"/>
			<point x="346" y="81" type="curve" smooth="yes"/>
			<point x="478" y="81"/>
			<point x="586" y="188"/>
			<point x="586" y="320" type="curve" smooth="yes"/>
			<point x="586" y="452"/>
			<point x="478" y="560"/>
			<point x="346" y="560" type="curve" smooth="yes"/>
			<point x="214" y="560"/>
			<point x="107" y="452"/>
		</contour>
	</outline>
</glyph>
<glyph name="uni2780" format="2">
	<advance width="1114"/>
	<unicode hex="2780"/>
	<outline>
		<contour>
			<point x="307" y="164" type="line"/>
			<point x="813" y="164" type="line"/>
			<point x="813" y="184" type="line"/>
			<point x="596" y="184" type="line"/>
			<point x="596" y="563" type="line"/>
			<point x="582" y="563" type="line"/>
			<point x="302" y="445" type="line"/>
			<point x="310" y="425" type="line"/>
			<point x="573" y="535" type="line"/>
			<point x="573" y="184" type="line"/>
			<point x="307" y="184" type="line"/>
		</contour>
		<contour>
			<point x="557" y="-10" type="curve" smooth="yes"/>
			<point x="812" y="-10"/>
			<point x="1041" y="69"/>
			<point x="1041" y="350" type="curve" smooth="yes"/>
			<point x="1041" y="631"/>
			<point x="812" y="710"/>
			<point x="557" y="710" type="curve" smooth="yes"/>
			<point x="302" y="710"/>
			<point x="73" y="631"/>
			<point x="73" y="350" type="curve" smooth="yes"/>
			<point x="73" y="69"/>
			<point x="302" y="-10"/>
		</contour>
		<contour>
			<point x="557" y="690" type="curve" smooth="yes"/>
			<point x="802" y="690"/>
			<point x="1021" y="615"/>
			<point x="1021" y="350" type="curve" smooth="yes"/>
			<point x="1021" y="85"/>
			<point x="802" y="10"/>
			<point x="557" y="10" type="curve" smooth="yes"/>
			<point x="312" y="10"/>
			<point x="93" y="85"/>
			<point x="93" y="350" type="curve" smooth="yes"/>
			<point x="93" y="615"/>
			<point x="312" y="690"/>
		</contour>
	</outline>
</glyph>
<glyph name="uni2784" format="2">
  <advance width="1114"/>
  <unicode hex="2784"/>
  <outline>
    <contour>
      <point x="292" y="209" type="line"/>
      <point x="360" y="176"/>
      <point x="437" y="157"/>
      <point x="549" y="157" type="curve" smooth="yes"/>
      <point x="692" y="157"/>
      <point x="817" y="195"/>
      <point x="817" y="281" type="curve" smooth="yes"/>
      <point x="817" y="355"/>
      <point x="757" y="398"/>
      <point x="589" y="398" type="curve" smooth="yes"/>
      <point x="348" y="398" type="line"/>
      <point x="376" y="537" type="line"/>
      <point x="775" y="537" type="line"/>
      <point x="775" y="558" type="line"/>
      <point x="359" y="558" type="line"/>
      <point x="324" y="386" type="line"/>
      <point x="332" y="377" type="line"/>
      <point x="575" y="377" type="line" smooth="yes"/>
      <point x="738" y="377"/>
      <point x="793" y="345"/>
      <point x="793" y="282" type="curve" smooth="yes"/>
      <point x="793" y="217"/>
      <point x="702" y="177"/>
      <point x="549" y="177" type="curve" smooth="yes"/>
      <point x="442" y="177"/>
      <point x="365" y="197"/>
      <point x="301" y="229" type="curve"/>
    </contour>
    <contour>
      <point x="73" y="350" type="curve" smooth="yes"/>
      <point x="73" y="69"/>
      <point x="302" y="-10"/>
      <point x="557" y="-10" type="curve" smooth="yes"/>
      <point x="812" y="-10"/>
      <point x="1041" y="69"/>
      <point x="1041" y="350" type="curve" smooth="yes"/>
      <point x="1041" y="631"/>
      <point x="812" y="710"/>
      <point x="557" y="710" type="curve" smooth="yes"/>
      <point x="302" y="710"/>
      <point x="73" y="631"/>
    </contour>
    <contour>
      <point x="93" y="350" type="curve" smooth="yes"/>
      <point x="93" y="615"/>
      <point x="312" y="690"/>
      <point x="557" y="690" type="curve" smooth="yes"/>
      <point x="802" y="690"/>
      <point x="1021" y="615"/>
      <point x="1021" y="350" type="curve" smooth="yes"/>
      <point x="1021" y="85"/>
      <point x="802" y="10"/>
      <point x="557" y="10" type="curve" smooth="yes"/>
      <point x="312" y="10"/>
      <point x="93" y="85"/>
    </contour>
  </outline>
</glyph>
<glyph name="uni2789" format="2">
  <advance width="1114"/>
  <unicode hex="2789"/>
  <outline>
    <contour>
      <point x="204" y="164" type="line"/>
      <point x="534" y="164" type="line"/>
      <point x="534" y="184" type="line"/>
      <point x="387" y="184" type="line"/>
      <point x="387" y="563" type="line"/>
      <point x="373" y="563" type="line"/>
      <point x="172" y="475" type="line"/>
      <point x="180" y="456" type="line"/>
      <point x="364" y="535" type="line"/>
      <point x="364" y="184" type="line"/>
      <point x="204" y="184" type="line"/>
    </contour>
    <contour>
      <point x="522" y="363" type="curve" smooth="yes"/>
      <point x="522" y="507"/>
      <point x="615" y="549"/>
      <point x="721" y="549" type="curve" smooth="yes"/>
      <point x="825" y="549"/>
      <point x="918" y="507"/>
      <point x="918" y="363" type="curve" smooth="yes"/>
      <point x="918" y="219"/>
      <point x="825" y="178"/>
      <point x="721" y="178" type="curve" smooth="yes"/>
      <point x="615" y="178"/>
      <point x="522" y="219"/>
    </contour>
    <contour>
      <point x="498" y="363" type="curve" smooth="yes"/>
      <point x="498" y="202"/>
      <point x="603" y="158"/>
      <point x="721" y="158" type="curve" smooth="yes"/>
      <point x="837" y="158"/>
      <point x="942" y="202"/>
      <point x="942" y="363" type="curve" smooth="yes"/>
      <point x="942" y="525"/>
      <point x="837" y="570"/>
      <point x="721" y="570" type="curve" smooth="yes"/>
      <point x="603" y="570"/>
      <point x="498" y="525"/>
    </contour>
    <contour>
      <point x="557" y="-10" type="curve" smooth="yes"/>
      <point x="812" y="-10"/>
      <point x="1041" y="69"/>
      <point x="1041" y="350" type="curve" smooth="yes"/>
      <point x="1041" y="631"/>
      <point x="812" y="710"/>
      <point x="557" y="710" type="curve" smooth="yes"/>
      <point x="302" y="710"/>
      <point x="73" y="631"/>
      <point x="73" y="350" type="curve" smooth="yes"/>
      <point x="73" y="69"/>
      <point x="302" y="-10"/>
    </contour>
    <contour>
      <point x="557" y="690" type="curve" smooth="yes"/>
      <point x="802" y="690"/>
      <point x="1021" y="615"/>
      <point x="1021" y="350" type="curve" smooth="yes"/>
      <point x="1021" y="85"/>
      <point x="802" y="10"/>
      <point x="557" y="10" type="curve" smooth="yes"/>
      <point x="312" y="10"/>
      <point x="93" y="85"/>
      <point x="93" y="350" type="curve" smooth="yes"/>
      <point x="93" y="615"/>
      <point x="312" y="690"/>
    </contour>
  </outline>
</glyph>
<glyph name="uni278A" format="2">
  <advance width="1114"/>
  <unicode hex="278A"/>
  <outline>
    <contour>
      <point x="557" y="-10" type="curve" smooth="yes"/>
      <point x="812" y="-10"/>
      <point x="1041" y="69"/>
      <point x="1041" y="350" type="curve" smooth="yes"/>
      <point x="1041" y="631"/>
      <point x="812" y="710"/>
      <point x="557" y="710" type="curve" smooth="yes"/>
      <point x="302" y="710"/>
      <point x="73" y="631"/>
      <point x="73" y="350" type="curve" smooth="yes"/>
      <point x="73" y="69"/>
      <point x="302" y="-10"/>
    </contour>
    <contour>
      <point x="307" y="164" type="line"/>
      <point x="307" y="184" type="line"/>
      <point x="573" y="184" type="line"/>
      <point x="573" y="535" type="line"/>
      <point x="310" y="425" type="line"/>
      <point x="302" y="445" type="line"/>
      <point x="582" y="563" type="line"/>
      <point x="596" y="563" type="line"/>
      <point x="596" y="184" type="line"/>
      <point x="813" y="184" type="line"/>
      <point x="813" y="164" type="line"/>
    </contour>
  </outline>
</glyph>
<glyph name="uni278D" format="2">
  <advance width="1114"/>
  <unicode hex="278D"/>
  <outline>
    <contour>
      <point x="557" y="-10" type="curve" smooth="yes"/>
      <point x="812" y="-10"/>
      <point x="1041" y="69"/>
      <point x="1041" y="350" type="curve" smooth="yes"/>
      <point x="1041" y="631"/>
      <point x="812" y="710"/>
      <point x="557" y="710" type="curve" smooth="yes"/>
      <point x="302" y="710"/>
      <point x="73" y="631"/>
      <point x="73" y="350" type="curve" smooth="yes"/>
      <point x="73" y="69"/>
      <point x="302" y="-10"/>
    </contour>
    <contour>
      <point x="291" y="299" type="line"/>
      <point x="641" y="299" type="line"/>
      <point x="641" y="534" type="line"/>
    </contour>
    <contour>
      <point x="641" y="164" type="line"/>
      <point x="641" y="279" type="line"/>
      <point x="254" y="279" type="line"/>
      <point x="252" y="296" type="line"/>
      <point x="649" y="565" type="line"/>
      <point x="664" y="559" type="line"/>
      <point x="664" y="299" type="line"/>
      <point x="791" y="299" type="line"/>
      <point x="791" y="279" type="line"/>
      <point x="664" y="279" type="line"/>
      <point x="664" y="164" type="line"/>
    </contour>
  </outline>
</glyph>
<glyph name="uni278F" format="2">
  <advance width="1114"/>
  <unicode hex="278F"/>
  <outline>
    <contour>
      <point x="557" y="-10" type="curve" smooth="yes"/>
      <point x="812" y="-10"/>
      <point x="1041" y="69"/>
      <point x="1041" y="350" type="curve" smooth="yes"/>
      <point x="1041" y="631"/>
      <point x="812" y="710"/>
      <point x="557" y="710" type="curve" smooth="yes"/>
      <point x="302" y="710"/>
      <point x="73" y="631"/>
      <point x="73" y="350" type="curve" smooth="yes"/>
      <point x="73" y="69"/>
      <point x="302" y="-10"/>
    </contour>
    <contour>
      <point x="553" y="177" type="curve" smooth="yes"/>
      <point x="703" y="177"/>
      <point x="797" y="220"/>
      <point x="797" y="288" type="curve" smooth="yes"/>
      <point x="797" y="369"/>
      <point x="697" y="395"/>
      <point x="586" y="395" type="curve" smooth="yes"/>
      <point x="476" y="395"/>
      <point x="360" y="369"/>
      <point x="305" y="336" type="curve"/>
      <point x="317" y="233"/>
      <point x="407" y="177"/>
    </contour>
    <contour>
      <point x="546" y="157" type="curve" smooth="yes"/>
      <point x="381" y="157"/>
      <point x="280" y="229"/>
      <point x="280" y="361" type="curve" smooth="yes"/>
      <point x="280" y="494"/>
      <point x="391" y="568"/>
      <point x="590" y="568" type="curve" smooth="yes"/>
      <point x="667" y="568"/>
      <point x="717" y="560"/>
      <point x="791" y="544" type="curve"/>
      <point x="787" y="524" type="line"/>
      <point x="722" y="538"/>
      <point x="666" y="547"/>
      <point x="591" y="547" type="curve" smooth="yes"/>
      <point x="402" y="547"/>
      <point x="306" y="484"/>
      <point x="304" y="357" type="curve"/>
      <point x="364" y="389"/>
      <point x="479" y="415"/>
      <point x="588" y="415" type="curve" smooth="yes"/>
      <point x="712" y="415"/>
      <point x="820" y="381"/>
      <point x="820" y="287" type="curve" smooth="yes"/>
      <point x="820" y="205"/>
      <point x="718" y="157"/>
    </contour>
  </outline>
</glyph>
<glyph name="uni2792" format="2">
  <advance width="1114"/>
  <unicode hex="2792"/>
  <outline>
    <contour>
      <point x="557" y="-10" type="curve" smooth="yes"/>
      <point x="812" y="-10"/>
      <point x="1041" y="69"/>
      <point x="1041" y="350" type="curve" smooth="yes"/>
      <point x="1041" y="631"/>
      <point x="812" y="710"/>
      <point x="557" y="710" type="curve" smooth="yes"/>
      <point x="302" y="710"/>
      <point x="73" y="631"/>
      <point x="73" y="350" type="curve" smooth="yes"/>
      <point x="73" y="69"/>
      <point x="302" y="-10"/>
    </contour>
    <contour>
      <point x="553" y="157" type="curve" smooth="yes"/>
      <point x="449" y="157"/>
      <point x="328" y="182"/>
      <point x="326" y="184" type="curve"/>
      <point x="328" y="204" type="line"/>
      <point x="332" y="203"/>
      <point x="454" y="178"/>
      <point x="545" y="178" type="curve" smooth="yes"/>
      <point x="699" y="178"/>
      <point x="811" y="226"/>
      <point x="813" y="365" type="curve"/>
      <point x="752" y="333"/>
      <point x="637" y="309"/>
      <point x="528" y="309" type="curve" smooth="yes"/>
      <point x="407" y="309"/>
      <point x="295" y="343"/>
      <point x="295" y="434" type="curve" smooth="yes"/>
      <point x="295" y="542"/>
      <point x="445" y="568"/>
      <point x="572" y="568" type="curve" smooth="yes"/>
      <point x="717" y="568"/>
      <point x="836" y="512"/>
      <point x="836" y="370" type="curve" smooth="yes"/>
      <point x="836" y="202"/>
      <point x="700" y="157"/>
    </contour>
    <contour>
      <point x="531" y="330" type="curve" smooth="yes"/>
      <point x="640" y="330"/>
      <point x="756" y="353"/>
      <point x="812" y="386" type="curve"/>
      <point x="800" y="502"/>
      <point x="694" y="547"/>
      <point x="569" y="547" type="curve" smooth="yes"/>
      <point x="456" y="547"/>
      <point x="318" y="525"/>
      <point x="318" y="434" type="curve" smooth="yes"/>
      <point x="318" y="356"/>
      <point x="420" y="330"/>
    </contour>
  </outline>
</glyph>
<glyph name="uni27E8" format="2">
	<advance width="600"/>
	<unicode hex="27E8"/>
	<outline>
		<contour>
			<point x="155" y="349" type="line"/>
			<point x="463" y="-5" type="line"/>
			<point x="477" y="8" type="line"/>
			<point x="178" y="354" type="line"/>
			<point x="477" y="697" type="line"/>
			<point x="463" y="709" type="line"/>
			<point x="155" y="355" type="line"/>
		</contour>
	</outline>
</glyph>
<glyph name="uni27F7" format="2">
	<advance width="1049"/>
	<unicode hex="27F7"/>
	<outline>
		<contour>
			<point x="247" y="83" type="line"/>
			<point x="262" y="98" type="line"/>
			<point x="71" y="279" type="line"/>
			<point x="977" y="279" type="line"/>
			<point x="787" y="98" type="line"/>
			<point x="802" y="83" type="line"/>
			<point x="1019" y="289" type="line"/>
			<point x="802" y="495" type="line"/>
			<point x="787" y="480" type="line"/>
			<point x="977" y="299" type="line"/>
			<point x="71" y="299" type="line"/>
			<point x="262" y="480" type="line"/>
			<point x="247" y="495" type="line"/>
			<point x="30" y="289" type="line"/>
		</contour>
	</outline>
</glyph>
<glyph name="fi" format="2">
  <advance width="699"/>
  <unicode hex="FB01"/>
  <outline>
    <contour>
      <point x="185" y="0" type="line"/>
      <point x="205" y="0" type="line"/>
      <point x="205" y="464" type="line"/>
      <point x="555" y="464" type="line"/>
      <point x="555" y="0" type="line"/>
      <point x="575" y="0" type="line"/>
      <point x="575" y="484" type="line"/>
      <point x="205" y="484" type="line"/>
      <point x="205" y="499" type="line" smooth="yes"/>
      <point x="205" y="666"/>
      <point x="274" y="730"/>
      <point x="442" y="730" type="curve" smooth="yes"/>
      <point x="483" y="730"/>
      <point x="535" y="721"/>
      <point x="603" y="700" type="curve"/>
      <point x="611" y="718" type="line"/>
      <point x="531" y="746"/>
      <point x="471" y="750"/>
      <point x="444" y="750" type="curve" smooth="yes"/>
      <point x="272" y="750"/>
      <point x="185" y="686"/>
      <point x="185" y="499" type="curve" smooth="yes"/>
      <point x="185" y="484" type="line"/>
      <point x="45" y="479" type="line"/>
      <point x="45" y="464" type="line"/>
      <point x="185" y="464" type="line"/>
    </contour>
  </outline>
</glyph>
<glyph name="fl" format="2">
  <advance width="873"/>
  <unicode hex="FB02"/>
  <outline>
    <contour>
      <point x="780" y="-10" type="curve" smooth="yes"/>
      <point x="815" y="-10"/>
      <point x="849" y="-3"/>
      <point x="875" y="6" type="curve"/>
      <point x="871" y="26" type="line"/>
      <point x="845" y="17"/>
      <point x="812" y="10"/>
      <point x="780" y="10" type="curve" smooth="yes"/>
      <point x="721" y="10"/>
      <point x="664" y="32"/>
      <point x="664" y="155" type="curve" smooth="yes"/>
      <point x="664" y="723" type="line"/>
      <point x="605" y="740"/>
      <point x="539" y="751"/>
      <point x="471" y="751" type="curve" smooth="yes"/>
      <point x="275" y="751"/>
      <point x="185" y="679"/>
      <point x="185" y="499" type="curve" smooth="yes"/>
      <point x="185" y="484" type="line"/>
      <point x="45" y="479" type="line"/>
      <point x="45" y="464" type="line"/>
      <point x="185" y="464" type="line"/>
      <point x="185" y="0" type="line"/>
      <point x="205" y="0" type="line"/>
      <point x="205" y="464" type="line"/>
      <point x="538" y="464" type="line"/>
      <point x="538" y="484" type="line"/>
      <point x="205" y="484" type="line"/>
      <point x="205" y="499" type="line" smooth="yes"/>
      <point x="205" y="676"/>
      <point x="295" y="731"/>
      <point x="475" y="731" type="curve" smooth="yes"/>
      <point x="526" y="731"/>
      <point x="590" y="722"/>
      <point x="644" y="707" type="curve"/>
      <point x="644" y="155" type="line" smooth="yes"/>
      <point x="644" y="16"/>
      <point x="711" y="-10"/>
    </contour>
  </outline>
</glyph>
<glyph name="Euro.tosf" format="2">
	<advance width="1034"/>
	<outline>
		<contour>
			<point x="211" y="265" type="curve" smooth="yes"/>
			<point x="211" y="50"/>
			<point x="400" y="-10"/>
			<point x="655" y="-10" type="curve" smooth="yes"/>
			<point x="732" y="-10"/>
			<point x="846" y="-3"/>
			<point x="913" y="15" type="curve"/>
			<point x="906" y="33" type="line"/>
			<point x="841" y="15"/>
			<point x="731" y="10"/>
			<point x="655" y="10" type="curve" smooth="yes"/>
			<point x="410" y="10"/>
			<point x="231" y="67"/>
			<point x="231" y="265" type="curve" smooth="yes"/>
			<point x="231" y="458"/>
			<point x="410" y="520"/>
			<point x="655" y="520" type="curve" smooth="yes"/>
			<point x="732" y="520"/>
			<point x="847" y="513"/>
			<point x="913" y="494" type="curve"/>
			<point x="917" y="513" type="line"/>
			<point x="849" y="532"/>
			<point x="734" y="540"/>
			<point x="655" y="540" type="curve" smooth="yes"/>
			<point x="400" y="540"/>
			<point x="211" y="474"/>
		</contour>
		<contour>
			<point x="745" y="313" type="line"/>
			<point x="745" y="333" type="line"/>
			<point x="116" y="333" type="line"/>
			<point x="116" y="313" type="line"/>
		</contour>
		<contour>
			<point x="745" y="183" type="line"/>
			<point x="745" y="203" type="line"/>
			<point x="116" y="203" type="line"/>
			<point x="116" y="183" type="line"/>
		</contour>
	</outline>
</glyph>
<glyph name="a.superior" format="2">
	<advance width="469"/>
	<outline>
		<contour>
			<point x="40" y="443" type="curve" smooth="yes"/>
			<point x="40" y="388"/>
			<point x="78" y="364"/>
			<point x="139" y="364" type="curve" smooth="yes"/>
			<point x="237" y="364"/>
			<point x="305" y="407"/>
			<point x="350" y="444" type="curve"/>
			<point x="351" y="385"/>
			<point x="372" y="364"/>
			<point x="408" y="364" type="curve" smooth="yes"/>
			<point x="417" y="364"/>
			<point x="428" y="366"/>
			<point x="438" y="369" type="curve"/>
			<point x="434" y="383" type="line"/>
			<point x="427" y="381"/>
			<point x="419" y="378"/>
			<point x="413" y="378" type="curve" smooth="yes"/>
			<point x="385" y="378"/>
			<point x="367" y="394"/>
			<point x="367" y="447" type="curve" smooth="yes"/>
			<point x="367" y="567" type="line" smooth="yes"/>
			<point x="367" y="644"/>
			<point x="308" y="674"/>
			<point x="217" y="674" type="curve" smooth="yes"/>
			<point x="172" y="674"/>
			<point x="121" y="666"/>
			<point x="71" y="653" type="curve"/>
			<point x="73" y="638" type="line"/>
			<point x="128" y="651"/>
			<point x="178" y="658"/>
			<point x="218" y="658" type="curve" smooth="yes"/>
			<point x="308" y="658"/>
			<point x="350" y="626"/>
			<point x="350" y="567" type="curve" smooth="yes"/>
			<point x="350" y="537" type="line"/>
			<point x="117" y="536"/>
			<point x="40" y="523"/>
		</contour>
		<contour>
			<point x="56" y="444" type="curve" smooth="yes"/>
			<point x="56" y="505"/>
			<point x="112" y="523"/>
			<point x="350" y="523" type="curve"/>
			<point x="350" y="461" type="line"/>
			<point x="287" y="405"/>
			<point x="210" y="378"/>
			<point x="143" y="378" type="curve" smooth="yes"/>
			<point x="90" y="378"/>
			<point x="56" y="397"/>
		</contour>
	</outline>
</glyph>
<glyph name="acutecomb.case" format="2">
	<advance width="0"/>
	<anchor x="-508" y="890" name="top"/>
	<anchor x="-630" y="700" name="_top"/>
	<outline>
		<contour>
			<point x="-634" y="756" type="line"/>
			<point x="-606" y="756" type="line"/>
			<point x="-382" y="950" type="line"/>
			<point x="-412" y="950" type="line"/>
		</contour>
	</outline>
</glyph>
<glyph name="ampersand.sc" format="2">
	<advance width="897"/>
	<outline>
		<contour>
			<point x="884" y="-9" type="line"/>
			<point x="894" y="10" type="line"/>
			<point x="279" y="353" type="line" smooth="yes"/>
			<point x="218" y="387"/>
			<point x="180" y="434"/>
			<point x="180" y="483" type="curve" smooth="yes"/>
			<point x="180" y="559"/>
			<point x="254" y="605"/>
			<point x="430" y="605" type="curve" smooth="yes"/>
			<point x="572" y="605"/>
			<point x="649" y="564"/>
			<point x="649" y="482" type="curve" smooth="yes"/>
			<point x="649" y="418"/>
			<point x="612" y="384"/>
			<point x="523" y="368" type="curve"/>
			<point x="526" y="349" type="line"/>
			<point x="624" y="368"/>
			<point x="670" y="409"/>
			<point x="670" y="483" type="curve" smooth="yes"/>
			<point x="670" y="576"/>
			<point x="586" y="625"/>
			<point x="430" y="625" type="curve" smooth="yes"/>
			<point x="243" y="625"/>
			<point x="159" y="569"/>
			<point x="159" y="481" type="curve" smooth="yes"/>
			<point x="159" y="427"/>
			<point x="200" y="372"/>
			<point x="259" y="339" type="curve" smooth="yes"/>
		</contour>
		<contour>
			<point x="359" y="-10" type="curve" smooth="yes"/>
			<point x="517" y="-10"/>
			<point x="645" y="32"/>
			<point x="720" y="92" type="curve"/>
			<point x="700" y="100" type="line"/>
			<point x="629" y="47"/>
			<point x="515" y="11"/>
			<point x="359" y="11" type="curve" smooth="yes"/>
			<point x="195" y="11"/>
			<point x="92" y="73"/>
			<point x="92" y="173" type="curve" smooth="yes"/>
			<point x="92" y="256"/>
			<point x="145" y="311"/>
			<point x="278" y="341" type="curve"/>
			<point x="254" y="352" type="line"/>
			<point x="127" y="320"/>
			<point x="70" y="261"/>
			<point x="70" y="173" type="curve" smooth="yes"/>
			<point x="70" y="60"/>
			<point x="181" y="-10"/>
		</contour>
		<contour>
			<point x="726" y="97" type="line"/>
			<point x="780" y="147"/>
			<point x="807" y="209"/>
			<point x="807" y="282" type="curve" smooth="yes"/>
			<point x="807" y="302"/>
			<point x="804" y="318"/>
			<point x="797" y="338" type="curve"/>
			<point x="776" y="332" type="line"/>
			<point x="783" y="312"/>
			<point x="786" y="297"/>
			<point x="786" y="282" type="curve" smooth="yes"/>
			<point x="786" y="213"/>
			<point x="758" y="152"/>
			<point x="707" y="106" type="curve"/>
		</contour>
	</outline>
</glyph>
<glyph name="b.superior" format="2">
  <advance width="522"/>
  <outline>
    <contour>
      <point x="93" y="381" type="line"/>
      <point x="161" y="369"/>
      <point x="207" y="364"/>
      <point x="250" y="364" type="curve" smooth="yes"/>
      <point x="396" y="364"/>
      <point x="469" y="420"/>
      <point x="469" y="531" type="curve" smooth="yes"/>
      <point x="469" y="620"/>
      <point x="406" y="675"/>
      <point x="304" y="675" type="curve" smooth="yes"/>
      <point x="242" y="675"/>
      <point x="186" y="654"/>
      <point x="112" y="602" type="curve"/>
      <point x="112" y="788" type="line"/>
      <point x="93" y="788" type="line"/>
    </contour>
    <contour>
      <point x="112" y="394" type="curve"/>
      <point x="112" y="586" type="line"/>
      <point x="186" y="638"/>
      <point x="240" y="659"/>
      <point x="302" y="659" type="curve" smooth="yes"/>
      <point x="391" y="659"/>
      <point x="449" y="609"/>
      <point x="449" y="531" type="curve" smooth="yes"/>
      <point x="449" y="429"/>
      <point x="383" y="379"/>
      <point x="250" y="379" type="curve" smooth="yes"/>
      <point x="210" y="379"/>
      <point x="160" y="384"/>
    </contour>
  </outline>
</glyph>
<glyph name="braceleft.sc" format="2">
	<advance width="398"/>
	<outline>
		<contour>
			<point x="184" y="5" type="curve" smooth="yes"/>
			<point x="184" y="-59"/>
			<point x="214" y="-125"/>
			<point x="338" y="-125" type="curve" smooth="yes"/>
			<point x="376" y="-125" type="line"/>
			<point x="376" y="-105" type="line"/>
			<point x="338" y="-105" type="line" smooth="yes"/>
			<point x="229" y="-105"/>
			<point x="204" y="-50"/>
			<point x="204" y="5" type="curve" smooth="yes"/>
			<point x="204" y="69"/>
			<point x="234" y="136"/>
			<point x="234" y="199" type="curve" smooth="yes"/>
			<point x="234" y="237"/>
			<point x="226" y="299"/>
			<point x="173" y="307" type="curve"/>
			<point x="225" y="320"/>
			<point x="234" y="376"/>
			<point x="234" y="414" type="curve" smooth="yes"/>
			<point x="234" y="481"/>
			<point x="204" y="543"/>
			<point x="204" y="608" type="curve" smooth="yes"/>
			<point x="204" y="663"/>
			<point x="229" y="720"/>
			<point x="338" y="720" type="curve" smooth="yes"/>
			<point x="376" y="720" type="line"/>
			<point x="376" y="740" type="line"/>
			<point x="338" y="740" type="line" smooth="yes"/>
			<point x="214" y="740"/>
			<point x="184" y="672"/>
			<point x="184" y="608" type="curve" smooth="yes"/>
			<point x="184" y="541"/>
			<point x="214" y="479"/>
			<point x="214" y="414" type="curve" smooth="yes"/>
			<point x="214" y="373"/>
			<point x="203" y="317"/>
			<point x="150" y="317" type="curve" smooth="yes"/>
			<point x="127" y="317" type="line"/>
			<point x="127" y="297" type="line"/>
			<point x="150" y="297" type="line" smooth="yes"/>
			<point x="203" y="297"/>
			<point x="214" y="240"/>
			<point x="214" y="199" type="curve" smooth="yes"/>
			<point x="214" y="136"/>
			<point x="184" y="70"/>
		</contour>
	</outline>
</glyph>
<glyph name="braceright.sc" format="2">
  <advance width="398"/>
  <outline>
    <contour>
      <point x="22" y="-105" type="line"/>
      <point x="22" y="-125" type="line"/>
      <point x="60" y="-125" type="line" smooth="yes"/>
      <point x="184" y="-125"/>
      <point x="214" y="-59"/>
      <point x="214" y="5" type="curve" smooth="yes"/>
      <point x="214" y="70"/>
      <point x="184" y="136"/>
      <point x="184" y="199" type="curve" smooth="yes"/>
      <point x="184" y="240"/>
      <point x="195" y="297"/>
      <point x="248" y="297" type="curve" smooth="yes"/>
      <point x="271" y="297" type="line"/>
      <point x="271" y="317" type="line"/>
      <point x="248" y="317" type="line" smooth="yes"/>
      <point x="195" y="317"/>
      <point x="184" y="373"/>
      <point x="184" y="414" type="curve" smooth="yes"/>
      <point x="184" y="479"/>
      <point x="214" y="541"/>
      <point x="214" y="608" type="curve" smooth="yes"/>
      <point x="214" y="672"/>
      <point x="184" y="740"/>
      <point x="60" y="740" type="curve" smooth="yes"/>
      <point x="22" y="740" type="line"/>
      <point x="22" y="720" type="line"/>
      <point x="60" y="720" type="line" smooth="yes"/>
      <point x="169" y="720"/>
      <point x="194" y="663"/>
      <point x="194" y="608" type="curve" smooth="yes"/>
      <point x="194" y="543"/>
      <point x="164" y="481"/>
      <point x="164" y="414" type="curve" smooth="yes"/>
      <point x="164" y="376"/>
      <point x="173" y="320"/>
      <point x="225" y="307" type="curve"/>
      <point x="172" y="299"/>
      <point x="164" y="237"/>
      <point x="164" y="199" type="curve" smooth="yes"/>
      <point x="164" y="136"/>
      <point x="194" y="69"/>
      <point x="194" y="5" type="curve" smooth="yes"/>
      <point x="194" y="-50"/>
      <point x="169" y="-105"/>
      <point x="60" y="-105" type="curve" smooth="yes"/>
    </contour>
  </outline>
</glyph>
<glyph name="bracketleft.sc" format="2">
	<advance width="398"/>
	<outline>
		<contour>
			<point x="115" y="-125" type="line"/>
			<point x="386" y="-125" type="line"/>
			<point x="386" y="-105" type="line"/>
			<point x="135" y="-105" type="line"/>
			<point x="135" y="720" type="line"/>
			<point x="386" y="720" type="line"/>
			<point x="386" y="740" type="line"/>
			<point x="115" y="740" type="line"/>
		</contour>
	</outline>
</glyph>
<glyph name="commasuperior" format="2">
	<advance width="239"/>
	<outline>
		<contour>
			<point x="118" y="386" type="line"/>
			<point x="125" y="374"/>
			<point x="128" y="360"/>
			<point x="128" y="348" type="curve" smooth="yes"/>
			<point x="128" y="316"/>
			<point x="109" y="281"/>
			<point x="74" y="268" type="curve"/>
			<point x="81" y="252" type="line"/>
			<point x="123" y="267"/>
			<point x="145" y="310"/>
			<point x="145" y="349" type="curve" smooth="yes"/>
			<point x="145" y="366"/>
			<point x="142" y="382"/>
			<point x="134" y="394" type="curve"/>
		</contour>
	</outline>
</glyph>
<glyph name="d.sc" format="2">
  <advance width="1112"/>
  <anchor x="556" y="275" name="center"/>
  <anchor x="556" y="0" name="bottom"/>
  <anchor x="536" y="615" name="top"/>
  <outline>
    <contour>
      <point x="516" y="-9" type="curve" smooth="yes"/>
      <point x="823" y="-9"/>
      <point x="1011" y="96"/>
      <point x="1011" y="301" type="curve" smooth="yes"/>
      <point x="1011" y="520"/>
      <point x="843" y="624"/>
      <point x="496" y="624" type="curve" smooth="yes"/>
      <point x="403" y="624"/>
      <point x="293" y="622"/>
      <point x="148" y="615" type="curve"/>
      <point x="148" y="0" type="line"/>
      <point x="185" y="-1"/>
      <point x="437" y="-9"/>
    </contour>
    <contour>
      <point x="507" y="11" type="curve" smooth="yes"/>
      <point x="436" y="11"/>
      <point x="251" y="15"/>
      <point x="168" y="19" type="curve"/>
      <point x="168" y="596" type="line"/>
      <point x="268" y="601"/>
      <point x="412" y="604"/>
      <point x="488" y="604" type="curve" smooth="yes"/>
      <point x="827" y="604"/>
      <point x="990" y="508"/>
      <point x="990" y="302" type="curve" smooth="yes"/>
      <point x="990" y="110"/>
      <point x="812" y="11"/>
    </contour>
  </outline>
</glyph>
<glyph name="dcroat.sc" format="2">
  <advance width="1112"/>
  <outline>
    <contour>
      <point x="7" y="307" type="line"/>
      <point x="148" y="307" type="line"/>
      <point x="148" y="0" type="line"/>
      <point x="190" y="-1"/>
      <point x="431" y="-9"/>
      <point x="511" y="-9" type="curve" smooth="yes"/>
      <point x="827" y="-9"/>
      <point x="1011" y="104"/>
      <point x="1011" y="302" type="curve" smooth="yes"/>
      <point x="1011" y="520"/>
      <point x="841" y="624"/>
      <point x="486" y="624" type="curve" smooth="yes"/>
      <point x="377" y="624"/>
      <point x="279" y="619"/>
      <point x="148" y="615" type="curve"/>
      <point x="148" y="326" type="line"/>
      <point x="7" y="326" type="line"/>
    </contour>
    <contour>
      <point x="168" y="18" type="curve"/>
      <point x="168" y="307" type="line"/>
      <point x="544" y="307" type="line"/>
      <point x="544" y="326" type="line"/>
      <point x="168" y="326" type="line"/>
      <point x="168" y="597" type="line"/>
      <point x="233" y="599"/>
      <point x="367" y="606"/>
      <point x="478" y="606" type="curve" smooth="yes"/>
      <point x="825" y="606"/>
      <point x="990" y="508"/>
      <point x="990" y="303" type="curve" smooth="yes"/>
      <point x="990" y="117"/>
      <point x="813" y="10"/>
      <point x="506" y="10" type="curve" smooth="yes"/>
      <point x="460" y="10"/>
      <point x="198" y="18"/>
    </contour>
  </outline>
</glyph>
<glyph name="dividesuperior" format="2">
	<advance width="400"/>
	<outline>
		<contour>
			<point x="187" y="418" type="curve" smooth="yes"/>
			<point x="187" y="406"/>
			<point x="188" y="405"/>
			<point x="199" y="405" type="curve" smooth="yes"/>
			<point x="212" y="405"/>
			<point x="212" y="406"/>
			<point x="212" y="418" type="curve" smooth="yes"/>
			<point x="212" y="430"/>
			<point x="212" y="431"/>
			<point x="199" y="431" type="curve" smooth="yes"/>
			<point x="187" y="431"/>
			<point x="187" y="430"/>
		</contour>
		<contour>
			<point x="187" y="645" type="curve" smooth="yes"/>
			<point x="187" y="633"/>
			<point x="188" y="633"/>
			<point x="199" y="633" type="curve" smooth="yes"/>
			<point x="212" y="633"/>
			<point x="212" y="633"/>
			<point x="212" y="645" type="curve" smooth="yes"/>
			<point x="212" y="657"/>
			<point x="212" y="658"/>
			<point x="199" y="658" type="curve" smooth="yes"/>
			<point x="187" y="658"/>
			<point x="187" y="657"/>
		</contour>
		<contour>
			<point x="75" y="523" type="line"/>
			<point x="325" y="523" type="line"/>
			<point x="325" y="540" type="line"/>
			<point x="75" y="540" type="line"/>
		</contour>
	</outline>
</glyph>
<glyph name="dollar.tosf" format="2">
	<advance width="1034"/>
	<outline>
		<contour>
			<point x="523" y="-10" type="curve" smooth="yes"/>
			<point x="798" y="-10"/>
			<point x="903" y="37"/>
			<point x="903" y="137" type="curve" smooth="yes"/>
			<point x="903" y="243"/>
			<point x="741" y="262"/>
			<point x="538" y="276" type="curve" smooth="yes"/>
			<point x="393" y="286"/>
			<point x="181" y="302"/>
			<point x="181" y="402" type="curve" smooth="yes"/>
			<point x="181" y="480"/>
			<point x="284" y="520"/>
			<point x="533" y="520" type="curve" smooth="yes"/>
			<point x="608" y="520"/>
			<point x="768" y="505"/>
			<point x="846" y="483" type="curve"/>
			<point x="852" y="503" type="line"/>
			<point x="766" y="524"/>
			<point x="598" y="541"/>
			<point x="524" y="540" type="curve" smooth="yes"/>
			<point x="268" y="538"/>
			<point x="161" y="491"/>
			<point x="161" y="402" type="curve" smooth="yes"/>
			<point x="161" y="286"/>
			<point x="345" y="270"/>
			<point x="536" y="256" type="curve" smooth="yes"/>
			<point x="735" y="241"/>
			<point x="883" y="223"/>
			<point x="883" y="137" type="curve" smooth="yes"/>
			<point x="883" y="51"/>
			<point x="783" y="10"/>
			<point x="523" y="10" type="curve" smooth="yes"/>
			<point x="437" y="10"/>
			<point x="219" y="36"/>
			<point x="137" y="62" type="curve"/>
			<point x="131" y="42" type="line"/>
			<point x="211" y="17"/>
			<point x="432" y="-10"/>
		</contour>
		<contour>
			<point x="516" y="-105" type="line"/>
			<point x="536" y="-105" type="line"/>
			<point x="536" y="-5" type="line"/>
			<point x="516" y="-5" type="line"/>
		</contour>
		<contour>
			<point x="516" y="535" type="line"/>
			<point x="536" y="535" type="line"/>
			<point x="536" y="635" type="line"/>
			<point x="516" y="635" type="line"/>
		</contour>
	</outline>
</glyph>
<glyph name="eng.sc" format="2">
  <advance width="1147"/>
  <outline>
    <contour>
      <point x="148" y="0" type="line"/>
      <point x="168" y="0" type="line"/>
      <point x="168" y="600" type="line"/>
      <point x="976" y="-7" type="line"/>
      <point x="976" y="-11" type="line" smooth="yes"/>
      <point x="976" y="-132"/>
      <point x="859" y="-175"/>
      <point x="715" y="-175" type="curve" smooth="yes"/>
      <point x="643" y="-175"/>
      <point x="565" y="-164"/>
      <point x="504" y="-152" type="curve"/>
      <point x="500" y="-171" type="line"/>
      <point x="559" y="-182"/>
      <point x="639" y="-193"/>
      <point x="715" y="-193" type="curve" smooth="yes"/>
      <point x="872" y="-193"/>
      <point x="999" y="-144"/>
      <point x="999" y="-9" type="curve" smooth="yes"/>
      <point x="999" y="615" type="line"/>
      <point x="979" y="615" type="line"/>
      <point x="979" y="15" type="line"/>
      <point x="166" y="624" type="line"/>
      <point x="148" y="624" type="line"/>
    </contour>
  </outline>
</glyph>
<glyph name="eurosuperior" format="2">
	<advance width="600"/>
	<outline>
		<contour>
			<point x="147" y="567" type="curve" smooth="yes"/>
			<point x="147" y="407"/>
			<point x="278" y="361"/>
			<point x="424" y="361" type="curve" smooth="yes"/>
			<point x="467" y="361"/>
			<point x="510" y="365"/>
			<point x="552" y="377" type="curve"/>
			<point x="546" y="393" type="line"/>
			<point x="505" y="382"/>
			<point x="466" y="379"/>
			<point x="424" y="379" type="curve" smooth="yes"/>
			<point x="288" y="379"/>
			<point x="165" y="419"/>
			<point x="165" y="567" type="curve" smooth="yes"/>
			<point x="165" y="716"/>
			<point x="288" y="757"/>
			<point x="424" y="757" type="curve" smooth="yes"/>
			<point x="467" y="757"/>
			<point x="511" y="753"/>
			<point x="551" y="741" type="curve"/>
			<point x="553" y="758" type="line"/>
			<point x="512" y="769"/>
			<point x="468" y="774"/>
			<point x="424" y="774" type="curve" smooth="yes"/>
			<point x="278" y="774"/>
			<point x="147" y="729"/>
		</contour>
		<contour>
			<point x="503" y="613" type="line"/>
			<point x="503" y="630" type="line"/>
			<point x="86" y="630" type="line"/>
			<point x="86" y="613" type="line"/>
		</contour>
		<contour>
			<point x="503" y="506" type="line"/>
			<point x="503" y="523" type="line"/>
			<point x="86" y="523" type="line"/>
			<point x="86" y="506" type="line"/>
		</contour>
	</outline>
</glyph>
<glyph name="f.superior" format="2">
	<advance width="271"/>
	<outline>
		<contour>
			<point x="103" y="370" type="line"/>
			<point x="121" y="370" type="line"/>
			<point x="121" y="628" type="line"/>
			<point x="304" y="628" type="line"/>
			<point x="304" y="644" type="line"/>
			<point x="121" y="644" type="line"/>
			<point x="121" y="652" type="line" smooth="yes"/>
			<point x="121" y="741"/>
			<point x="166" y="779"/>
			<point x="242" y="779" type="curve" smooth="yes"/>
			<point x="284" y="779"/>
			<point x="322" y="770"/>
			<point x="368" y="758" type="curve"/>
			<point x="372" y="774" type="line"/>
			<point x="319" y="787"/>
			<point x="282" y="794"/>
			<point x="238" y="794" type="curve" smooth="yes"/>
			<point x="155" y="794"/>
			<point x="103" y="757"/>
			<point x="103" y="652" type="curve" smooth="yes"/>
			<point x="103" y="644" type="line"/>
			<point x="24" y="641" type="line"/>
			<point x="24" y="628" type="line"/>
			<point x="103" y="628" type="line"/>
		</contour>
	</outline>
</glyph>
<glyph name="f_b.liga" format="2">
  <advance width="1381"/>
  <outline>
    <contour>
      <point x="916" y="-10" type="curve" smooth="yes"/>
      <point x="1175" y="-10"/>
      <point x="1307" y="90"/>
      <point x="1307" y="285" type="curve" smooth="yes"/>
      <point x="1307" y="443"/>
      <point x="1196" y="540"/>
      <point x="1014" y="540" type="curve" smooth="yes"/>
      <point x="900" y="540"/>
      <point x="800" y="503"/>
      <point x="664" y="409" type="curve"/>
      <point x="664" y="723" type="line"/>
      <point x="605" y="740"/>
      <point x="539" y="751"/>
      <point x="471" y="751" type="curve" smooth="yes"/>
      <point x="275" y="751"/>
      <point x="185" y="679"/>
      <point x="185" y="499" type="curve" smooth="yes"/>
      <point x="185" y="484" type="line"/>
      <point x="45" y="479" type="line"/>
      <point x="45" y="464" type="line"/>
      <point x="185" y="464" type="line"/>
      <point x="185" y="0" type="line"/>
      <point x="205" y="0" type="line"/>
      <point x="205" y="464" type="line"/>
      <point x="538" y="464" type="line"/>
      <point x="538" y="484" type="line"/>
      <point x="205" y="484" type="line"/>
      <point x="205" y="499" type="line" smooth="yes"/>
      <point x="205" y="676"/>
      <point x="295" y="731"/>
      <point x="475" y="731" type="curve" smooth="yes"/>
      <point x="526" y="731"/>
      <point x="590" y="722"/>
      <point x="644" y="707" type="curve"/>
      <point x="644" y="21" type="line"/>
      <point x="751" y="0"/>
      <point x="837" y="-10"/>
    </contour>
    <contour>
      <point x="916" y="9" type="curve" smooth="yes"/>
      <point x="848" y="9"/>
      <point x="763" y="18"/>
      <point x="664" y="37" type="curve"/>
      <point x="664" y="387" type="line"/>
      <point x="801" y="482"/>
      <point x="900" y="520"/>
      <point x="1014" y="520" type="curve" smooth="yes"/>
      <point x="1182" y="520"/>
      <point x="1287" y="430"/>
      <point x="1287" y="285" type="curve" smooth="yes"/>
      <point x="1287" y="101"/>
      <point x="1163" y="9"/>
    </contour>
  </outline>
</glyph>
<glyph name="f_f_k.liga" format="2">
  <advance width="1691"/>
  <outline>
    <contour>
      <point x="1661" y="-10" type="curve" smooth="yes"/>
      <point x="1665" y="-10"/>
      <point x="1672" y="-10"/>
      <point x="1677" y="-9" type="curve"/>
      <point x="1673" y="11" type="line"/>
      <point x="1668" y="10"/>
      <point x="1663" y="10"/>
      <point x="1661" y="10" type="curve" smooth="yes"/>
      <point x="1613" y="10"/>
      <point x="1537" y="52"/>
      <point x="1353" y="175" type="curve" smooth="yes"/>
      <point x="1034" y="389" type="line"/>
      <point x="1034" y="723" type="line"/>
      <point x="975" y="740"/>
      <point x="909" y="751"/>
      <point x="841" y="751" type="curve" smooth="yes"/>
      <point x="766" y="751"/>
      <point x="707" y="741"/>
      <point x="662" y="718" type="curve"/>
      <point x="564" y="745"/>
      <point x="496" y="750"/>
      <point x="464" y="750" type="curve" smooth="yes"/>
      <point x="279" y="750"/>
      <point x="185" y="686"/>
      <point x="185" y="499" type="curve" smooth="yes"/>
      <point x="185" y="484" type="line"/>
      <point x="45" y="479" type="line"/>
      <point x="45" y="464" type="line"/>
      <point x="185" y="464" type="line"/>
      <point x="185" y="0" type="line"/>
      <point x="205" y="0" type="line"/>
      <point x="205" y="464" type="line"/>
      <point x="555" y="464" type="line"/>
      <point x="555" y="0" type="line"/>
      <point x="575" y="0" type="line"/>
      <point x="575" y="464" type="line"/>
      <point x="908" y="464" type="line"/>
      <point x="908" y="484" type="line"/>
      <point x="575" y="484" type="line"/>
      <point x="575" y="499" type="line" smooth="yes"/>
      <point x="575" y="676"/>
      <point x="665" y="731"/>
      <point x="845" y="731" type="curve" smooth="yes"/>
      <point x="896" y="731"/>
      <point x="960" y="722"/>
      <point x="1014" y="707" type="curve"/>
      <point x="1014" y="0" type="line"/>
      <point x="1034" y="0" type="line"/>
      <point x="1034" y="365" type="line"/>
      <point x="1354" y="150" type="line" smooth="yes"/>
      <point x="1578" y="0"/>
      <point x="1616" y="-10"/>
    </contour>
    <contour>
      <point x="205" y="484" type="line"/>
      <point x="205" y="499" type="line" smooth="yes"/>
      <point x="205" y="666"/>
      <point x="280" y="730"/>
      <point x="462" y="730" type="curve" smooth="yes"/>
      <point x="509" y="730"/>
      <point x="558" y="721"/>
      <point x="637" y="703" type="curve"/>
      <point x="582" y="663"/>
      <point x="555" y="597"/>
      <point x="555" y="499" type="curve" smooth="yes"/>
      <point x="555" y="484" type="line"/>
    </contour>
    <contour>
      <point x="1197" y="264" type="line"/>
      <point x="1331" y="320"/>
      <point x="1528" y="397"/>
      <point x="1615" y="528" type="curve"/>
      <point x="1599" y="540" type="line"/>
      <point x="1515" y="415"/>
      <point x="1325" y="336"/>
      <point x="1177" y="277" type="curve"/>
    </contour>
  </outline>
</glyph>
<glyph name="f_f_t.liga" format="2">
  <advance width="1351"/>
  <outline>
    <contour>
      <point x="185" y="0" type="line"/>
      <point x="205" y="0" type="line"/>
      <point x="205" y="464" type="line"/>
      <point x="555" y="464" type="line"/>
      <point x="555" y="0" type="line"/>
      <point x="575" y="0" type="line"/>
      <point x="575" y="464" type="line"/>
      <point x="972" y="464" type="line"/>
      <point x="972" y="155" type="line" smooth="yes"/>
      <point x="972" y="87"/>
      <point x="984" y="-10"/>
      <point x="1142" y="-10" type="curve" smooth="yes"/>
      <point x="1214" y="-10"/>
      <point x="1287" y="14"/>
      <point x="1327" y="38" type="curve"/>
      <point x="1317" y="56" type="line"/>
      <point x="1279" y="33"/>
      <point x="1210" y="10"/>
      <point x="1142" y="10" type="curve" smooth="yes"/>
      <point x="1000" y="10"/>
      <point x="992" y="95"/>
      <point x="992" y="155" type="curve" smooth="yes"/>
      <point x="992" y="464" type="line"/>
      <point x="1296" y="464" type="line"/>
      <point x="1296" y="484" type="line"/>
      <point x="992" y="484" type="line"/>
      <point x="992" y="720" type="line"/>
      <point x="944" y="738"/>
      <point x="873" y="750"/>
      <point x="808" y="750" type="curve" smooth="yes"/>
      <point x="745" y="750"/>
      <point x="694" y="740"/>
      <point x="655" y="719" type="curve"/>
      <point x="561" y="745"/>
      <point x="495" y="750"/>
      <point x="464" y="750" type="curve" smooth="yes"/>
      <point x="279" y="750"/>
      <point x="185" y="686"/>
      <point x="185" y="499" type="curve" smooth="yes"/>
      <point x="185" y="484" type="line"/>
      <point x="45" y="479" type="line"/>
      <point x="45" y="464" type="line"/>
      <point x="185" y="464" type="line"/>
    </contour>
    <contour>
      <point x="575" y="484" type="line"/>
      <point x="575" y="499" type="line" smooth="yes"/>
      <point x="575" y="664"/>
      <point x="645" y="730"/>
      <point x="806" y="730" type="curve" smooth="yes"/>
      <point x="871" y="730"/>
      <point x="919" y="721"/>
      <point x="972" y="703" type="curve"/>
      <point x="972" y="484" type="line"/>
    </contour>
    <contour>
      <point x="205" y="484" type="line"/>
      <point x="205" y="499" type="line" smooth="yes"/>
      <point x="205" y="666"/>
      <point x="280" y="730"/>
      <point x="462" y="730" type="curve" smooth="yes"/>
      <point x="508" y="730"/>
      <point x="555" y="722"/>
      <point x="631" y="704" type="curve"/>
      <point x="579" y="664"/>
      <point x="555" y="598"/>
      <point x="555" y="499" type="curve" smooth="yes"/>
      <point x="555" y="484" type="line"/>
    </contour>
  </outline>
</glyph>
<glyph name="f_h.liga" format="2">
  <advance width="1413"/>
  <outline>
    <contour>
      <point x="185" y="0" type="line"/>
      <point x="205" y="0" type="line"/>
      <point x="205" y="464" type="line"/>
      <point x="538" y="464" type="line"/>
      <point x="538" y="484" type="line"/>
      <point x="205" y="484" type="line"/>
      <point x="205" y="499" type="line" smooth="yes"/>
      <point x="205" y="676"/>
      <point x="295" y="731"/>
      <point x="475" y="731" type="curve" smooth="yes"/>
      <point x="526" y="731"/>
      <point x="590" y="722"/>
      <point x="644" y="707" type="curve"/>
      <point x="644" y="0" type="line"/>
      <point x="664" y="0" type="line"/>
      <point x="664" y="411" type="line"/>
      <point x="804" y="476"/>
      <point x="899" y="520"/>
      <point x="1048" y="520" type="curve" smooth="yes"/>
      <point x="1201" y="520"/>
      <point x="1269" y="446"/>
      <point x="1269" y="333" type="curve" smooth="yes"/>
      <point x="1269" y="0" type="line"/>
      <point x="1289" y="0" type="line"/>
      <point x="1289" y="333" type="line" smooth="yes"/>
      <point x="1289" y="463"/>
      <point x="1210" y="540"/>
      <point x="1048" y="540" type="curve" smooth="yes"/>
      <point x="898" y="540"/>
      <point x="798" y="494"/>
      <point x="664" y="432" type="curve"/>
      <point x="664" y="723" type="line"/>
      <point x="605" y="740"/>
      <point x="539" y="751"/>
      <point x="471" y="751" type="curve" smooth="yes"/>
      <point x="275" y="751"/>
      <point x="185" y="679"/>
      <point x="185" y="499" type="curve" smooth="yes"/>
      <point x="185" y="484" type="line"/>
      <point x="45" y="479" type="line"/>
      <point x="45" y="464" type="line"/>
      <point x="185" y="464" type="line"/>
    </contour>
  </outline>
</glyph>
<glyph name="f_t.liga" format="2">
  <advance width="981"/>
  <outline>
    <contour>
      <point x="772" y="-10" type="curve" smooth="yes"/>
      <point x="844" y="-10"/>
      <point x="917" y="14"/>
      <point x="957" y="38" type="curve"/>
      <point x="947" y="56" type="line"/>
      <point x="909" y="33"/>
      <point x="840" y="10"/>
      <point x="772" y="10" type="curve" smooth="yes"/>
      <point x="630" y="10"/>
      <point x="622" y="95"/>
      <point x="622" y="155" type="curve" smooth="yes"/>
      <point x="622" y="464" type="line"/>
      <point x="926" y="464" type="line"/>
      <point x="926" y="484" type="line"/>
      <point x="622" y="484" type="line"/>
      <point x="622" y="720" type="line"/>
      <point x="574" y="738"/>
      <point x="503" y="750"/>
      <point x="438" y="750" type="curve" smooth="yes"/>
      <point x="263" y="750"/>
      <point x="185" y="676"/>
      <point x="185" y="499" type="curve" smooth="yes"/>
      <point x="185" y="484" type="line"/>
      <point x="45" y="479" type="line"/>
      <point x="45" y="464" type="line"/>
      <point x="185" y="464" type="line"/>
      <point x="185" y="0" type="line"/>
      <point x="205" y="0" type="line"/>
      <point x="205" y="464" type="line"/>
      <point x="602" y="464" type="line"/>
      <point x="602" y="155" type="line" smooth="yes"/>
      <point x="602" y="87"/>
      <point x="614" y="-10"/>
    </contour>
    <contour>
      <point x="205" y="484" type="line"/>
      <point x="205" y="499" type="line" smooth="yes"/>
      <point x="205" y="664"/>
      <point x="275" y="730"/>
      <point x="436" y="730" type="curve" smooth="yes"/>
      <point x="501" y="730"/>
      <point x="549" y="721"/>
      <point x="602" y="703" type="curve"/>
      <point x="602" y="484" type="line"/>
    </contour>
  </outline>
</glyph>
<glyph name="g.sc" format="2">
  <advance width="1094"/>
  <anchor x="558" y="615" name="top"/>
  <anchor x="561" y="0" name="bottom"/>
  <outline>
    <contour>
      <point x="101" y="287" type="curve" smooth="yes"/>
      <point x="101" y="104"/>
      <point x="263" y="-9"/>
      <point x="528" y="-9" type="curve" smooth="yes"/>
      <point x="704" y="-9"/>
      <point x="862" y="12"/>
      <point x="966" y="51" type="curve"/>
      <point x="966" y="273" type="line"/>
      <point x="576" y="273" type="line"/>
      <point x="576" y="255" type="line"/>
      <point x="946" y="255" type="line"/>
      <point x="946" y="64" type="line"/>
      <point x="833" y="27"/>
      <point x="698" y="11"/>
      <point x="528" y="11" type="curve" smooth="yes"/>
      <point x="276" y="11"/>
      <point x="121" y="116"/>
      <point x="121" y="287" type="curve" smooth="yes"/>
      <point x="121" y="483"/>
      <point x="288" y="604"/>
      <point x="552" y="604" type="curve" smooth="yes"/>
      <point x="686" y="604"/>
      <point x="803" y="589"/>
      <point x="916" y="556" type="curve"/>
      <point x="922" y="575" type="line"/>
      <point x="818" y="607"/>
      <point x="695" y="624"/>
      <point x="552" y="624" type="curve" smooth="yes"/>
      <point x="276" y="624"/>
      <point x="101" y="494"/>
    </contour>
  </outline>
</glyph>
<glyph name="gravecomb.case" format="2">
	<advance width="0"/>
	<anchor x="-741" y="890" name="top"/>
	<anchor x="-630" y="700" name="_top"/>
	<outline>
		<contour>
			<point x="-644" y="756" type="line"/>
			<point x="-615" y="756" type="line"/>
			<point x="-837" y="950" type="line"/>
			<point x="-867" y="950" type="line"/>
		</contour>
	</outline>
</glyph>
<glyph name="h.superior" format="2">
  <advance width="550"/>
  <outline>
    <contour>
      <point x="93" y="370" type="line"/>
      <point x="112" y="370" type="line"/>
      <point x="112" y="595" type="line"/>
      <point x="189" y="630"/>
      <point x="239" y="654"/>
      <point x="319" y="654" type="curve" smooth="yes"/>
      <point x="401" y="654"/>
      <point x="438" y="613"/>
      <point x="438" y="553" type="curve" smooth="yes"/>
      <point x="438" y="370" type="line"/>
      <point x="457" y="370" type="line"/>
      <point x="457" y="556" type="line" smooth="yes"/>
      <point x="457" y="626"/>
      <point x="413" y="671"/>
      <point x="321" y="671" type="curve" smooth="yes"/>
      <point x="241" y="671"/>
      <point x="186" y="645"/>
      <point x="112" y="610" type="curve"/>
      <point x="112" y="784" type="line"/>
      <point x="93" y="784" type="line"/>
    </contour>
  </outline>
</glyph>
<glyph name="hbar.sc" format="2">
	<advance width="1151"/>
	<outline>
		<contour>
			<point x="150" y="0" type="line"/>
			<point x="170" y="0" type="line"/>
			<point x="170" y="254" type="line"/>
			<point x="981" y="254" type="line"/>
			<point x="981" y="0" type="line"/>
			<point x="1001" y="0" type="line"/>
			<point x="1001" y="439" type="line"/>
			<point x="1141" y="439" type="line"/>
			<point x="1141" y="459" type="line"/>
			<point x="1001" y="459" type="line"/>
			<point x="1001" y="615" type="line"/>
			<point x="981" y="615" type="line"/>
			<point x="981" y="459" type="line"/>
			<point x="170" y="459" type="line"/>
			<point x="170" y="615" type="line"/>
			<point x="150" y="615" type="line"/>
			<point x="150" y="459" type="line"/>
			<point x="10" y="459" type="line"/>
			<point x="10" y="439" type="line"/>
			<point x="150" y="439" type="line"/>
		</contour>
		<contour>
			<point x="170" y="274" type="line"/>
			<point x="170" y="439" type="line"/>
			<point x="981" y="439" type="line"/>
			<point x="981" y="274" type="line"/>
		</contour>
	</outline>
</glyph>
<glyph name="i.sc" format="2">
  <advance width="316"/>
  <anchor x="167" y="0" name="ogonek"/>
  <anchor x="158" y="0" name="bottom"/>
  <anchor x="158" y="615" name="top"/>
  <outline>
    <contour>
      <point x="148" y="0" type="line"/>
      <point x="168" y="0" type="line"/>
      <point x="168" y="615" type="line"/>
      <point x="148" y="615" type="line"/>
    </contour>
  </outline>
</glyph>
<glyph name="i.sc.loclTRK" format="2">
  <advance width="316"/>
  <outline>
    <contour>
      <point x="158" y="762" type="curve" smooth="yes"/>
      <point x="174" y="762"/>
      <point x="175" y="763"/>
      <point x="175" y="779" type="curve" smooth="yes"/>
      <point x="175" y="795"/>
      <point x="174" y="796"/>
      <point x="158" y="796" type="curve" smooth="yes"/>
      <point x="142" y="796"/>
      <point x="141" y="795"/>
      <point x="141" y="779" type="curve" smooth="yes"/>
      <point x="141" y="763"/>
      <point x="143" y="762"/>
    </contour>
    <component base="i.sc"/>
  </outline>
</glyph>
<glyph name="i.superior" format="2">
	<advance width="215"/>
	<outline>
		<contour>
			<point x="108" y="750" type="curve" smooth="yes"/>
			<point x="120" y="750"/>
			<point x="122" y="751"/>
			<point x="122" y="762" type="curve" smooth="yes"/>
			<point x="122" y="772"/>
			<point x="120" y="774"/>
			<point x="108" y="774" type="curve" smooth="yes"/>
			<point x="95" y="774"/>
			<point x="93" y="772"/>
			<point x="93" y="762" type="curve" smooth="yes"/>
			<point x="93" y="751"/>
			<point x="96" y="750"/>
		</contour>
		<contour>
			<point x="98" y="370" type="line"/>
			<point x="117" y="370" type="line"/>
			<point x="117" y="670" type="line"/>
			<point x="98" y="670" type="line"/>
		</contour>
	</outline>
</glyph>
<glyph name="j.short" format="2">
	<advance width="270"/>
	<outline>
		<contour>
			<point x="147" y="530" type="line"/>
			<point x="127" y="530" type="line"/>
			<point x="127" y="14" type="line" smooth="yes"/>
			<point x="127" y="-81"/>
			<point x="100" y="-140"/>
			<point x="47" y="-172" type="curve" smooth="yes"/>
			<point x="37" y="-178"/>
			<point x="27" y="-183"/>
			<point x="16" y="-187" type="curve"/>
			<point x="26" y="-206" type="line"/>
			<point x="38" y="-202"/>
			<point x="50" y="-196"/>
			<point x="60" y="-190" type="curve" smooth="yes"/>
			<point x="117" y="-155"/>
			<point x="147" y="-90"/>
			<point x="147" y="14" type="curve" smooth="yes"/>
		</contour>
		<contour>
			<point x="135" y="677" type="curve" smooth="yes"/>
			<point x="151" y="677"/>
			<point x="152" y="678"/>
			<point x="152" y="694" type="curve" smooth="yes"/>
			<point x="152" y="710"/>
			<point x="151" y="711"/>
			<point x="135" y="711" type="curve" smooth="yes"/>
			<point x="119" y="711"/>
			<point x="118" y="710"/>
			<point x="118" y="694" type="curve" smooth="yes"/>
			<point x="118" y="678"/>
			<point x="120" y="677"/>
		</contour>
	</outline>
</glyph>
<glyph name="j.superior" format="2">
	<advance width="192"/>
	<outline>
		<contour>
			<point x="95" y="372" type="curve" smooth="yes"/>
			<point x="95" y="670" type="line"/>
			<point x="76" y="670" type="line"/>
			<point x="76" y="376" type="line" smooth="yes"/>
			<point x="76" y="320"/>
			<point x="59" y="288"/>
			<point x="27" y="270" type="curve" smooth="yes"/>
			<point x="22" y="267"/>
			<point x="18" y="266"/>
			<point x="13" y="264" type="curve"/>
			<point x="18" y="248" type="line"/>
			<point x="23" y="250"/>
			<point x="29" y="252"/>
			<point x="34" y="254" type="curve" smooth="yes"/>
			<point x="74" y="272"/>
			<point x="95" y="311"/>
		</contour>
		<contour>
			<point x="85" y="751" type="curve" smooth="yes"/>
			<point x="97" y="751"/>
			<point x="99" y="752"/>
			<point x="99" y="763" type="curve" smooth="yes"/>
			<point x="99" y="773"/>
			<point x="97" y="775"/>
			<point x="85" y="775" type="curve" smooth="yes"/>
			<point x="72" y="775"/>
			<point x="70" y="773"/>
			<point x="70" y="763" type="curve" smooth="yes"/>
			<point x="70" y="752"/>
			<point x="73" y="751"/>
		</contour>
	</outline>
</glyph>
<glyph name="l.superior" format="2">
  <advance width="252"/>
  <outline>
    <contour>
      <point x="112" y="788" type="line"/>
      <point x="93" y="788" type="line"/>
      <point x="93" y="463" type="line" smooth="yes"/>
      <point x="93" y="384"/>
      <point x="132" y="364"/>
      <point x="177" y="364" type="curve" smooth="yes"/>
      <point x="200" y="364"/>
      <point x="222" y="368"/>
      <point x="239" y="373" type="curve"/>
      <point x="237" y="390" type="line"/>
      <point x="220" y="386"/>
      <point x="199" y="380"/>
      <point x="180" y="380" type="curve" smooth="yes"/>
      <point x="145" y="380"/>
      <point x="112" y="396"/>
      <point x="112" y="464" type="curve" smooth="yes"/>
    </contour>
  </outline>
</glyph>
<glyph name="ldot.sc" format="2">
  <advance width="819"/>
  <outline>
    <contour>
      <point x="553" y="320" type="curve" smooth="yes"/>
      <point x="569" y="320"/>
      <point x="570" y="321"/>
      <point x="570" y="337" type="curve" smooth="yes"/>
      <point x="570" y="353"/>
      <point x="569" y="354"/>
      <point x="553" y="354" type="curve" smooth="yes"/>
      <point x="537" y="354"/>
      <point x="536" y="353"/>
      <point x="536" y="337" type="curve" smooth="yes"/>
      <point x="536" y="321"/>
      <point x="538" y="320"/>
    </contour>
    <contour>
      <point x="148" y="0" type="line"/>
      <point x="805" y="0" type="line"/>
      <point x="805" y="20" type="line"/>
      <point x="168" y="20" type="line"/>
      <point x="168" y="615" type="line"/>
      <point x="148" y="615" type="line"/>
    </contour>
  </outline>
</glyph>
<glyph name="n.sc" format="2">
  <advance width="1147"/>
  <anchor x="574" y="615" name="top"/>
  <anchor x="574" y="0" name="bottom"/>
  <outline>
    <contour>
      <point x="148" y="0" type="line"/>
      <point x="168" y="0" type="line"/>
      <point x="168" y="599" type="line"/>
      <point x="981" y="0" type="line"/>
      <point x="999" y="0" type="line"/>
      <point x="999" y="615" type="line"/>
      <point x="979" y="615" type="line"/>
      <point x="979" y="24" type="line"/>
      <point x="166" y="624" type="line"/>
      <point x="148" y="624" type="line"/>
    </contour>
  </outline>
</glyph>
<glyph name="o.sc" format="2">
  <advance width="1211"/>
  <anchor x="606" y="275" name="center"/>
  <anchor x="675" y="0" name="ogonek"/>
  <anchor x="605" y="615" name="top"/>
  <anchor x="758" y="615" name="topright"/>
  <anchor x="167" y="615" name="topleft"/>
  <anchor x="604" y="0" name="bottom"/>
  <outline>
    <contour>
      <point x="604" y="12" type="curve" smooth="yes"/>
      <point x="393" y="12"/>
      <point x="121" y="67"/>
      <point x="121" y="308" type="curve" smooth="yes"/>
      <point x="121" y="558"/>
      <point x="392" y="605"/>
      <point x="604" y="605" type="curve" smooth="yes"/>
      <point x="817" y="605"/>
      <point x="1090" y="559"/>
      <point x="1090" y="308" type="curve" smooth="yes"/>
      <point x="1090" y="55"/>
      <point x="816" y="12"/>
    </contour>
    <contour>
      <point x="604" y="-9" type="curve" smooth="yes"/>
      <point x="835" y="-9"/>
      <point x="1110" y="43"/>
      <point x="1110" y="312" type="curve" smooth="yes"/>
      <point x="1110" y="573"/>
      <point x="823" y="625"/>
      <point x="604" y="625" type="curve" smooth="yes"/>
      <point x="380" y="625"/>
      <point x="101" y="569"/>
      <point x="101" y="308" type="curve" smooth="yes"/>
      <point x="101" y="57"/>
      <point x="382" y="-9"/>
    </contour>
  </outline>
</glyph>
<glyph name="one.tosf" format="2">
	<advance width="1034"/>
	<outline>
		<contour>
			<point x="101" y="0" type="line"/>
			<point x="933" y="0" type="line"/>
			<point x="933" y="20" type="line"/>
			<point x="527" y="20" type="line"/>
			<point x="527" y="510" type="line"/>
			<point x="933" y="510" type="line"/>
			<point x="933" y="530" type="line"/>
			<point x="101" y="530" type="line"/>
			<point x="101" y="510" type="line"/>
			<point x="507" y="510" type="line"/>
			<point x="507" y="20" type="line"/>
			<point x="101" y="20" type="line"/>
		</contour>
	</outline>
</glyph>
<glyph name="oslash.sc" format="2">
  <advance width="1211"/>
  <anchor x="605" y="615" name="top"/>
  <anchor x="606" y="0" name="bottom"/>
  <outline>
    <contour>
      <point x="136" y="-9" type="line"/>
      <point x="1110" y="624" type="line"/>
      <point x="1075" y="624" type="line"/>
      <point x="101" y="-9" type="line"/>
    </contour>
    <contour>
      <point x="604" y="10" type="curve" smooth="yes"/>
      <point x="393" y="10"/>
      <point x="121" y="67"/>
      <point x="121" y="308" type="curve" smooth="yes"/>
      <point x="121" y="558"/>
      <point x="392" y="606"/>
      <point x="604" y="606" type="curve" smooth="yes"/>
      <point x="817" y="606"/>
      <point x="1089" y="559"/>
      <point x="1089" y="308" type="curve" smooth="yes"/>
      <point x="1089" y="55"/>
      <point x="816" y="10"/>
    </contour>
    <contour>
      <point x="604" y="-9" type="curve" smooth="yes"/>
      <point x="835" y="-9"/>
      <point x="1110" y="43"/>
      <point x="1110" y="312" type="curve" smooth="yes"/>
      <point x="1110" y="573"/>
      <point x="823" y="624"/>
      <point x="604" y="624" type="curve" smooth="yes"/>
      <point x="380" y="624"/>
      <point x="101" y="569"/>
      <point x="101" y="308" type="curve" smooth="yes"/>
      <point x="101" y="57"/>
      <point x="382" y="-9"/>
    </contour>
  </outline>
</glyph>
<glyph name="p.sc" format="2">
  <advance width="1015"/>
  <outline>
    <contour>
      <point x="148" y="0" type="line"/>
      <point x="168" y="0" type="line"/>
      <point x="168" y="219" type="line"/>
      <point x="320" y="216"/>
      <point x="389" y="215"/>
      <point x="518" y="215" type="curve" smooth="yes"/>
      <point x="816" y="215"/>
      <point x="927" y="260"/>
      <point x="927" y="424" type="curve" smooth="yes"/>
      <point x="927" y="564"/>
      <point x="848" y="624"/>
      <point x="494" y="624" type="curve" smooth="yes"/>
      <point x="428" y="624"/>
      <point x="357" y="622"/>
      <point x="148" y="615" type="curve"/>
    </contour>
    <contour>
      <point x="168" y="595" type="line"/>
      <point x="361" y="602"/>
      <point x="432" y="604"/>
      <point x="495" y="604" type="curve" smooth="yes"/>
      <point x="826" y="604"/>
      <point x="907" y="554"/>
      <point x="907" y="424" type="curve" smooth="yes"/>
      <point x="907" y="283"/>
      <point x="820" y="235"/>
      <point x="518" y="235" type="curve" smooth="yes"/>
      <point x="381" y="235"/>
      <point x="311" y="238"/>
      <point x="168" y="241" type="curve"/>
    </contour>
  </outline>
</glyph>
<glyph name="p.superior" format="2">
  <advance width="520"/>
  <outline>
    <contour>
      <point x="93" y="253" type="line"/>
      <point x="112" y="253" type="line"/>
      <point x="112" y="379" type="line"/>
      <point x="146" y="372"/>
      <point x="198" y="364"/>
      <point x="249" y="364" type="curve" smooth="yes"/>
      <point x="392" y="364"/>
      <point x="467" y="421"/>
      <point x="467" y="529" type="curve" smooth="yes"/>
      <point x="467" y="621"/>
      <point x="405" y="675"/>
      <point x="300" y="675" type="curve" smooth="yes"/>
      <point x="227" y="675"/>
      <point x="169" y="641"/>
      <point x="111" y="599" type="curve"/>
      <point x="111" y="670" type="line"/>
      <point x="93" y="670" type="line"/>
    </contour>
    <contour>
      <point x="249" y="379" type="curve" smooth="yes"/>
      <point x="197" y="379"/>
      <point x="144" y="389"/>
      <point x="112" y="396" type="curve"/>
      <point x="112" y="583" type="line"/>
      <point x="186" y="636"/>
      <point x="240" y="659"/>
      <point x="300" y="659" type="curve" smooth="yes"/>
      <point x="392" y="659"/>
      <point x="448" y="607"/>
      <point x="448" y="529" type="curve" smooth="yes"/>
      <point x="448" y="430"/>
      <point x="381" y="379"/>
    </contour>
  </outline>
</glyph>
<glyph name="parenleft.sc" format="2">
	<advance width="398"/>
	<outline>
		<contour>
			<point x="125" y="307" type="curve" smooth="yes"/>
			<point x="125" y="95"/>
			<point x="202" y="-99"/>
			<point x="374" y="-135" type="curve"/>
			<point x="374" y="-115" type="line"/>
			<point x="220" y="-83"/>
			<point x="145" y="103"/>
			<point x="145" y="307" type="curve" smooth="yes"/>
			<point x="145" y="512"/>
			<point x="220" y="698"/>
			<point x="374" y="730" type="curve"/>
			<point x="374" y="750" type="line"/>
			<point x="202" y="713"/>
			<point x="125" y="520"/>
		</contour>
	</outline>
</glyph>
<glyph name="parenright.sc" format="2">
  <advance width="398"/>
  <outline>
    <contour>
      <point x="24" y="-115" type="curve"/>
      <point x="24" y="-135" type="line"/>
      <point x="196" y="-99"/>
      <point x="273" y="95"/>
      <point x="273" y="307" type="curve" smooth="yes"/>
      <point x="273" y="520"/>
      <point x="196" y="713"/>
      <point x="24" y="750" type="curve"/>
      <point x="24" y="730" type="line"/>
      <point x="178" y="698"/>
      <point x="253" y="512"/>
      <point x="253" y="307" type="curve" smooth="yes"/>
      <point x="253" y="103"/>
      <point x="178" y="-83"/>
    </contour>
  </outline>
</glyph>
<glyph name="q.superior" format="2">
  <advance width="519"/>
  <outline>
    <contour>
      <point x="426" y="658" type="line"/>
      <point x="381" y="666"/>
      <point x="328" y="675"/>
      <point x="271" y="675" type="curve" smooth="yes"/>
      <point x="126" y="675"/>
      <point x="53" y="620"/>
      <point x="53" y="510" type="curve" smooth="yes"/>
      <point x="53" y="420"/>
      <point x="115" y="364"/>
      <point x="215" y="364" type="curve" smooth="yes"/>
      <point x="291" y="364"/>
      <point x="348" y="395"/>
      <point x="407" y="436" type="curve"/>
      <point x="407" y="253" type="line"/>
      <point x="426" y="253" type="line"/>
    </contour>
    <contour>
      <point x="407" y="644" type="curve"/>
      <point x="407" y="452" type="line"/>
      <point x="335" y="401"/>
      <point x="280" y="380"/>
      <point x="219" y="380" type="curve" smooth="yes"/>
      <point x="129" y="380"/>
      <point x="72" y="425"/>
      <point x="72" y="510" type="curve" smooth="yes"/>
      <point x="72" y="610"/>
      <point x="138" y="659"/>
      <point x="271" y="659" type="curve" smooth="yes"/>
      <point x="325" y="659"/>
      <point x="376" y="650"/>
    </contour>
  </outline>
</glyph>
<glyph name="r.sc" format="2">
  <advance width="1098"/>
  <anchor x="478" y="615" name="top"/>
  <anchor x="531" y="0" name="bottom"/>
  <outline>
    <contour>
      <point x="1064" y="-9" type="curve" smooth="yes"/>
      <point x="1067" y="-9"/>
      <point x="1074" y="-9"/>
      <point x="1080" y="-8" type="curve"/>
      <point x="1080" y="11" type="line"/>
      <point x="1075" y="10"/>
      <point x="1069" y="10"/>
      <point x="1066" y="10" type="curve" smooth="yes"/>
      <point x="969" y="10"/>
      <point x="788" y="137"/>
      <point x="625" y="272" type="curve"/>
      <point x="810" y="283"/>
      <point x="907" y="322"/>
      <point x="907" y="451" type="curve" smooth="yes"/>
      <point x="907" y="589"/>
      <point x="790" y="623"/>
      <point x="464" y="623" type="curve" smooth="yes"/>
      <point x="323" y="623"/>
      <point x="259" y="622"/>
      <point x="148" y="617" type="curve"/>
      <point x="148" y="0" type="line"/>
      <point x="168" y="0" type="line"/>
      <point x="168" y="274" type="line"/>
      <point x="291" y="271"/>
      <point x="413" y="269"/>
      <point x="508" y="269" type="curve" smooth="yes"/>
      <point x="539" y="269"/>
      <point x="570" y="269"/>
      <point x="601" y="270" type="curve"/>
      <point x="764" y="132"/>
      <point x="952" y="-9"/>
    </contour>
    <contour>
      <point x="509" y="289" type="curve" smooth="yes"/>
      <point x="413" y="289"/>
      <point x="305" y="290"/>
      <point x="168" y="293" type="curve"/>
      <point x="168" y="600" type="line"/>
      <point x="287" y="605"/>
      <point x="336" y="605"/>
      <point x="464" y="605" type="curve" smooth="yes"/>
      <point x="777" y="605"/>
      <point x="887" y="574"/>
      <point x="887" y="451" type="curve" smooth="yes"/>
      <point x="887" y="331"/>
      <point x="790" y="289"/>
    </contour>
  </outline>
</glyph>
<glyph name="r.superior" format="2">
	<advance width="378"/>
	<outline>
		<contour>
			<point x="111" y="670" type="line"/>
			<point x="93" y="670" type="line"/>
			<point x="93" y="370" type="line"/>
			<point x="112" y="370" type="line"/>
			<point x="112" y="581" type="line"/>
			<point x="174" y="637"/>
			<point x="232" y="658"/>
			<point x="286" y="658" type="curve" smooth="yes"/>
			<point x="309" y="658"/>
			<point x="338" y="654"/>
			<point x="360" y="648" type="curve"/>
			<point x="363" y="665" type="line"/>
			<point x="345" y="670"/>
			<point x="314" y="675"/>
			<point x="283" y="675" type="curve" smooth="yes"/>
			<point x="228" y="675"/>
			<point x="176" y="655"/>
			<point x="111" y="601" type="curve"/>
		</contour>
	</outline>
</glyph>
<glyph name="thorn.sc" format="2">
  <advance width="1015"/>
  <outline>
    <contour>
      <point x="148" y="0" type="line"/>
      <point x="168" y="0" type="line"/>
      <point x="168" y="148" type="line"/>
      <point x="307" y="145"/>
      <point x="388" y="144"/>
      <point x="518" y="144" type="curve" smooth="yes"/>
      <point x="816" y="144"/>
      <point x="927" y="189"/>
      <point x="927" y="353" type="curve" smooth="yes"/>
      <point x="927" y="493"/>
      <point x="848" y="553"/>
      <point x="494" y="553" type="curve" smooth="yes"/>
      <point x="434" y="553"/>
      <point x="355" y="551"/>
      <point x="168" y="544" type="curve"/>
      <point x="168" y="615" type="line"/>
      <point x="148" y="615" type="line"/>
    </contour>
    <contour>
      <point x="518" y="164" type="curve" smooth="yes"/>
      <point x="374" y="164"/>
      <point x="307" y="167"/>
      <point x="168" y="169" type="curve"/>
      <point x="168" y="524" type="line"/>
      <point x="365" y="531"/>
      <point x="434" y="533"/>
      <point x="495" y="533" type="curve" smooth="yes"/>
      <point x="826" y="533"/>
      <point x="907" y="483"/>
      <point x="907" y="353" type="curve" smooth="yes"/>
      <point x="907" y="212"/>
      <point x="820" y="164"/>
    </contour>
  </outline>
</glyph>
<glyph name="tildecomb.case" format="2">
	<advance width="0"/>
	<anchor x="-630" y="882" name="top"/>
	<anchor x="-630" y="700" name="_top"/>
	<outline>
		<contour>
			<point x="-851" y="799" type="curve"/>
			<point x="-831" y="799" type="line"/>
			<point x="-832" y="809"/>
			<point x="-832" y="820"/>
			<point x="-832" y="828" type="curve" smooth="yes"/>
			<point x="-832" y="880"/>
			<point x="-807" y="904"/>
			<point x="-768" y="904" type="curve" smooth="yes"/>
			<point x="-678" y="904"/>
			<point x="-602" y="799"/>
			<point x="-494" y="799" type="curve" smooth="yes"/>
			<point x="-440" y="799"/>
			<point x="-408" y="838"/>
			<point x="-408" y="893" type="curve" smooth="yes"/>
			<point x="-408" y="901"/>
			<point x="-408" y="912"/>
			<point x="-409" y="922" type="curve"/>
			<point x="-429" y="922" type="line"/>
			<point x="-428" y="912"/>
			<point x="-428" y="901"/>
			<point x="-428" y="893" type="curve" smooth="yes"/>
			<point x="-428" y="842"/>
			<point x="-456" y="818"/>
			<point x="-494" y="818" type="curve" smooth="yes"/>
			<point x="-600" y="818"/>
			<point x="-667" y="922"/>
			<point x="-768" y="922" type="curve" smooth="yes"/>
			<point x="-817" y="922"/>
			<point x="-852" y="894"/>
			<point x="-852" y="828" type="curve" smooth="yes"/>
			<point x="-852" y="820"/>
			<point x="-852" y="809"/>
		</contour>
	</outline>
</glyph>
<glyph name="two.tosf" format="2">
	<advance width="1034"/>
	<outline>
		<contour>
			<point x="124" y="0" type="line"/>
			<point x="977" y="0" type="line"/>
			<point x="977" y="20" type="line"/>
			<point x="183" y="20" type="line"/>
			<point x="666" y="180"/>
			<point x="801" y="262"/>
			<point x="801" y="375" type="curve" smooth="yes"/>
			<point x="801" y="481"/>
			<point x="698" y="540"/>
			<point x="498" y="540" type="curve" smooth="yes"/>
			<point x="393" y="540"/>
			<point x="269" y="521"/>
			<point x="177" y="491" type="curve"/>
			<point x="185" y="473" type="line"/>
			<point x="275" y="502"/>
			<point x="395" y="520"/>
			<point x="498" y="520" type="curve" smooth="yes"/>
			<point x="687" y="520"/>
			<point x="781" y="468"/>
			<point x="781" y="375" type="curve" smooth="yes"/>
			<point x="781" y="268"/>
			<point x="655" y="196"/>
			<point x="120" y="17" type="curve"/>
		</contour>
	</outline>
</glyph>
<glyph name="u.superior" format="2">
  <advance width="535"/>
  <outline>
    <contour>
      <point x="219" y="364" type="curve" smooth="yes"/>
      <point x="297" y="364"/>
      <point x="348" y="389"/>
      <point x="416" y="425" type="curve"/>
      <point x="421" y="380"/>
      <point x="449" y="364"/>
      <point x="472" y="364" type="curve" smooth="yes"/>
      <point x="482" y="364"/>
      <point x="492" y="366"/>
      <point x="502" y="369" type="curve"/>
      <point x="498" y="383" type="line"/>
      <point x="492" y="380"/>
      <point x="484" y="378"/>
      <point x="478" y="378" type="curve" smooth="yes"/>
      <point x="455" y="378"/>
      <point x="433" y="394"/>
      <point x="433" y="451" type="curve" smooth="yes"/>
      <point x="433" y="670" type="line"/>
      <point x="414" y="670" type="line"/>
      <point x="414" y="439" type="line"/>
      <point x="346" y="404"/>
      <point x="297" y="380"/>
      <point x="222" y="380" type="curve" smooth="yes"/>
      <point x="150" y="380"/>
      <point x="112" y="420"/>
      <point x="112" y="473" type="curve" smooth="yes"/>
      <point x="112" y="670" type="line"/>
      <point x="93" y="670" type="line"/>
      <point x="93" y="470" type="line" smooth="yes"/>
      <point x="93" y="409"/>
      <point x="135" y="364"/>
    </contour>
  </outline>
</glyph>
<glyph name="uni0163.sc" format="2">
  <advance width="811"/>
  <outline>
    <contour>
      <point x="423" y="-220" type="curve" smooth="yes"/>
      <point x="511" y="-220"/>
      <point x="556" y="-181"/>
      <point x="556" y="-116" type="curve" smooth="yes"/>
      <point x="556" y="-61"/>
      <point x="502" y="-22"/>
      <point x="411" y="7" type="curve"/>
      <point x="396" y="0" type="line"/>
      <point x="463" y="-28"/>
      <point x="536" y="-60"/>
      <point x="536" y="-116" type="curve" smooth="yes"/>
      <point x="536" y="-169"/>
      <point x="497" y="-200"/>
      <point x="423" y="-200" type="curve" smooth="yes"/>
      <point x="380" y="-200"/>
      <point x="327" y="-188"/>
      <point x="265" y="-163" type="curve"/>
      <point x="257" y="-181" type="line"/>
      <point x="322" y="-208"/>
      <point x="378" y="-220"/>
    </contour>
    <contour>
      <point x="793" y="595" type="line"/>
      <point x="793" y="615" type="line"/>
      <point x="18" y="615" type="line"/>
      <point x="18" y="595" type="line"/>
      <point x="396" y="595" type="line"/>
      <point x="396" y="0" type="line"/>
      <point x="416" y="0" type="line"/>
      <point x="416" y="595" type="line"/>
    </contour>
  </outline>
</glyph>
<glyph name="uni0259.sc" format="2">
  <advance width="1081"/>
  <outline>
    <contour>
      <point x="107" y="557" type="line"/>
      <point x="192" y="576"/>
      <point x="374" y="604"/>
      <point x="542" y="604" type="curve" smooth="yes"/>
      <point x="784" y="604"/>
      <point x="959" y="511"/>
      <point x="959" y="326" type="curve" smooth="yes"/>
      <point x="959" y="307"/>
      <point x="957" y="290"/>
      <point x="956" y="280" type="curve"/>
      <point x="689" y="279"/>
      <point x="411" y="272"/>
      <point x="93" y="255" type="curve"/>
      <point x="93" y="249"/>
      <point x="93" y="242"/>
      <point x="93" y="237" type="curve" smooth="yes"/>
      <point x="93" y="70"/>
      <point x="225" y="-8"/>
      <point x="483" y="-8" type="curve" smooth="yes"/>
      <point x="792" y="-8"/>
      <point x="980" y="119"/>
      <point x="980" y="325" type="curve" smooth="yes"/>
      <point x="980" y="522"/>
      <point x="797" y="624"/>
      <point x="542" y="624" type="curve" smooth="yes"/>
      <point x="361" y="624"/>
      <point x="191" y="595"/>
      <point x="102" y="576" type="curve"/>
    </contour>
    <contour>
      <point x="953" y="261" type="curve"/>
      <point x="918" y="102"/>
      <point x="743" y="12"/>
      <point x="483" y="12" type="curve" smooth="yes"/>
      <point x="229" y="12"/>
      <point x="112" y="88"/>
      <point x="112" y="239" type="curve"/>
      <point x="302" y="250"/>
      <point x="694" y="261"/>
    </contour>
  </outline>
</glyph>
<glyph name="uni0302.case" format="2">
	<advance width="0"/>
	<anchor x="-630" y="871" name="top"/>
	<anchor x="-630" y="700" name="_top"/>
	<anchor x="-470" y="824" name="top_viet"/>
	<outline>
		<contour>
			<point x="-857" y="756" type="line"/>
			<point x="-830" y="756" type="line"/>
			<point x="-630" y="935" type="line"/>
			<point x="-431" y="756" type="line"/>
			<point x="-403" y="756" type="line"/>
			<point x="-616" y="950" type="line"/>
			<point x="-644" y="950" type="line"/>
		</contour>
	</outline>
</glyph>
<glyph name="uni0304.case" format="2">
	<advance width="0"/>
	<anchor x="-630" y="865" name="top"/>
	<anchor x="-630" y="700" name="_top"/>
	<outline>
		<contour>
			<point x="-825" y="845" type="line"/>
			<point x="-435" y="845" type="line"/>
			<point x="-435" y="865" type="line"/>
			<point x="-825" y="865" type="line"/>
		</contour>
	</outline>
</glyph>
